<svg width="24" height="25" viewBox="0 0 24 25" fill="none" xmlns="http://www.w3.org/2000/svg">
<g id="icons">
<path id="Mask" fill-rule="evenodd" clip-rule="evenodd" d="M18.295 7.78199C18.6844 7.39263 18.6844 6.76135 18.295 6.37199C17.9056 5.98263 17.2744 5.98263 16.885 6.37199L12 11.257L7.115 6.37199C6.72564 5.98263 6.09436 5.98263 5.705 6.37199C5.31564 6.76135 5.31564 7.39263 5.705 7.78199L10.59 12.667L5.705 17.552C5.31564 17.9414 5.31564 18.5726 5.705 18.962C6.09436 19.3514 6.72564 19.3514 7.115 18.962L12 14.077L16.885 18.962C17.2744 19.3514 17.9056 19.3514 18.295 18.962C18.6844 18.5726 18.6844 17.9414 18.295 17.552L13.41 12.667L18.295 7.78199Z" fill="#A82D7D"/>
</g>
</svg>
