<svg width="66" height="14" viewBox="0 0 66 14" fill="none" xmlns="http://www.w3.org/2000/svg">
<path id="Vector" d="M59.6496 9.02664C58.8449 9.81812 57.9401 10.5067 57.0905 11.248C56.7106 11.6253 56.6315 12.211 56.9006 12.6727C57.0509 12.9312 57.291 13.1265 57.5759 13.2135C57.9031 13.2979 58.2513 13.2505 58.5415 13.079C59.0138 12.8969 59.4649 12.6727 59.8923 12.4036L60.5677 11.9445C60.8579 11.7493 61.1217 11.5119 61.3908 11.2692C61.6599 11.0264 62.0662 10.6808 62.3696 10.3774C62.673 10.0741 63.1136 9.70207 63.4988 9.37754C63.9816 9.0504 64.4353 8.67576 64.8495 8.26424C65.2453 7.8474 65.4722 7.29865 65.4854 6.72356C65.459 6.06401 65.1002 5.45985 64.5329 5.12216C64.1557 4.82141 63.7547 4.54703 63.3378 4.30698C62.8181 3.99039 62.2984 3.66589 61.7839 3.34138C60.5756 2.57894 59.3673 1.82177 58.1695 1.04616L58.1695 1.04352C57.8107 0.784976 57.3596 0.687364 56.9243 0.779695C56.4916 0.869393 56.117 1.14113 55.8928 1.52106C55.6685 1.90361 55.6131 2.36266 55.745 2.7874C55.8769 3.20952 56.1803 3.55775 56.584 3.7451C57.4889 4.33342 58.4017 4.90061 59.2855 5.47313L58.4809 5.47313L54.637 5.47313C51.7534 5.47313 48.8619 5.43356 45.9786 5.43356C43.3588 5.43356 40.7365 5.47313 38.1164 5.50743C35.1986 5.547 32.2807 5.547 29.3365 5.50743L21.2926 5.50742L16.9158 5.50742L13.2012 5.50742C11.3043 5.50742 9.40483 5.55491 7.50795 5.62878C6.51595 5.66836 5.4818 5.69738 4.51621 5.75806L4.51885 5.75806C3.45566 5.77917 2.39774 5.88469 1.35036 6.06937C0.830627 6.21183 0.426971 6.62076 0.28717 7.14046C0.147346 7.66283 0.295082 8.21688 0.674987 8.60205C0.967826 8.916 1.38205 9.08484 1.80943 9.06638C2.44524 9.01362 3.07841 8.92392 3.70631 8.86324C4.45031 8.78937 5.19161 8.72077 5.94088 8.6601C7.34439 8.54401 8.75851 8.47015 10.162 8.391C12.7422 8.24853 15.3276 8.20896 17.9154 8.15356C23.6351 8.02429 29.3969 7.99791 35.0978 7.88446C37.6833 7.8317 40.2793 7.73672 42.8647 7.66286C45.6349 7.58108 48.405 7.53358 51.178 7.51512C54.5892 7.51512 57.9926 7.47554 61.404 7.38057C61.2272 7.52303 61.0531 7.65758 60.8764 7.80532C60.4331 8.16148 60.0479 8.60189 59.6496 9.02664Z" fill="#DC90B8"/>
</svg>
