<svg width="26" height="58" viewBox="0 0 26 58" fill="none" xmlns="http://www.w3.org/2000/svg">
<g id="Frame 226">
<path id="Vector" d="M7.42627 52.3481C8.32294 53.4848 9.24153 54.6446 10.2427 55.69C10.4417 55.8994 10.6651 56.1136 10.9055 56.3037C10.9513 56.3519 11.0076 56.3901 11.0598 56.4242C11.6157 56.8246 12.2563 57.1046 12.9538 56.9999C14.0556 56.8298 14.7432 55.7581 15.3206 54.9146C16.1296 53.7275 16.9044 52.5212 17.6572 51.2958C19.2013 48.7767 20.6184 46.1868 21.9042 43.5264C22.2364 42.8441 22.5248 41.5579 21.8285 40.976C21.1322 40.3941 20.3249 41.2727 20.0423 41.8561C18.998 44.0119 17.877 46.1292 16.6575 48.1845C16.0894 49.1427 15.499 50.0902 14.8846 51.0207C14.623 51.4207 14.3554 51.8184 14.0898 52.2142C13.9093 52.4773 13.731 52.7385 13.5464 53.0055C13.4651 53.3059 13.3267 53.3657 13.1294 53.1665C13.0826 53.1592 13.0358 53.1519 12.9769 53.136C12.1983 36.5194 13.8455 19.8262 17.9448 3.70897C18.115 3.04913 18.2727 1.75545 17.3947 1.48572C16.5695 1.2296 15.8555 2.37823 15.6921 3.01167C11.7586 18.4818 9.92463 34.4158 10.3013 50.3624C9.76788 49.7254 9.24093 49.0743 8.73471 48.4115C7.25756 46.4793 5.90533 44.4562 4.66088 42.3745C3.6319 40.6581 1.76864 43.9906 2.52501 45.2607C4.02921 47.7332 5.6527 50.0963 7.42633 52.349L7.42627 52.3481Z" fill="#EAD4DF"/>
</g>
</svg>
