<svg width="26" height="21" viewBox="0 0 26 21" fill="none" xmlns="http://www.w3.org/2000/svg">
<g id="Frame 224">
<path id="Vector" d="M25.5697 12.5128C24.4621 13.7977 23.3545 15.0382 22.2468 16.3232C21.6708 16.9434 21.2278 17.608 20.5632 18.0511C20.0758 18.5827 18.5252 18.8485 18.2151 18.4498C17.8606 18.2726 17.5505 18.0067 17.1518 17.6523C15.5125 16.146 13.9618 14.5508 12.3669 13.0004C11.7909 12.4245 14.1833 11.494 14.7593 12.0257C15.8226 13.0447 16.8859 14.2852 18.0377 15.3928C18.082 13.665 18.3035 11.8927 18.1263 10.1648C17.9048 7.99386 15.2908 5.73432 13.2527 7.55079C12.2337 8.43688 11.7463 9.89891 10.8602 10.8737C9.35388 12.513 6.38555 13.2661 4.56885 11.5826C3.72705 10.7851 3.1954 9.36734 2.75238 8.34841C1.91058 6.48762 1.29035 4.5826 0.980201 2.58896C0.847288 1.74716 3.41697 1.17122 3.54986 1.92438C3.86001 4.00671 4.52456 6.04463 5.36634 7.9498C5.72077 8.7916 6.56257 11.2727 7.89168 11.184C8.99928 11.0953 10.0626 8.52569 10.6829 7.77258C11.569 6.70927 12.8095 6.0004 14.183 5.73457C16.8856 5.15863 20.2969 6.48773 20.6071 9.50039C20.8286 11.5384 20.4742 13.6206 20.5185 15.6588C21.4046 14.6398 22.2907 13.5765 23.1768 12.5573C23.6641 11.9814 26.1899 11.7597 25.5697 12.5128Z" fill="#A82D7D"/>
</g>
</svg>
