<svg width="17" height="21" viewBox="0 0 17 21" fill="none" xmlns="http://www.w3.org/2000/svg">
<g id="Frame 225">
<g id="Group 4">
<path id="Vector" d="M5.83482 12.5935C5.54723 12.3059 4.95905 12.0623 4.74645 12.2749L1.69573 14.5447C1.48315 14.7572 2.11719 15.7365 2.40479 16.0235C2.69238 16.3111 3.67104 16.9451 3.88362 16.7326L6.15274 13.6818C6.36596 13.4699 6.1224 12.8811 5.83482 12.5935Z" fill="#A82D7D"/>
<path id="Vector_2" d="M12.7573 3.48314L10.4882 6.53386C10.2756 6.74644 10.5192 7.33464 10.8067 7.62223C11.0943 7.90981 11.6825 8.1534 11.8951 7.9408L14.9458 5.67169C15.1584 5.4591 14.5244 4.47982 14.2368 4.19285C13.9492 3.90526 12.9699 3.27056 12.7573 3.48314Z" fill="#A82D7D"/>
<path id="Vector_3" d="M2.40552 4.19288C2.11793 4.48047 1.48388 5.45913 1.69646 5.67172L4.74718 7.94083C4.95976 8.15341 5.54796 7.90984 5.83555 7.62226C6.12313 7.33467 6.36672 6.74649 6.15412 6.53389L3.88437 3.48318C3.67179 3.27059 2.69249 3.9053 2.40552 4.19288Z" fill="#A82D7D"/>
<path id="Vector_4" d="M9.4573 5.93134L11.497 2.91601C9.47825 2.02474 7.16217 2.02474 5.14343 2.91601L7.18375 5.93134C7.92689 5.72991 8.71402 5.72991 9.45714 5.93134H9.4573Z" fill="#A82D7D"/>
<path id="Vector_5" d="M4.14396 8.97147L1.12927 6.93115C0.237998 8.94989 0.237998 11.266 1.12927 13.2847L4.1446 11.245C3.94255 10.5019 3.94255 9.71475 4.14398 8.97163L4.14396 8.97147Z" fill="#A82D7D"/>
<path id="Vector_6" d="M12.4977 11.245L15.513 13.2847C16.4043 11.266 16.4043 8.94989 15.513 6.93115L12.4977 8.97147C12.6991 9.7146 12.6991 10.5017 12.4977 11.2449V11.245Z" fill="#A82D7D"/>
<path id="Vector_7" d="M7.18399 14.2852L5.14368 17.3005C7.16241 18.1918 9.47849 18.1918 11.4972 17.3005L9.45755 14.2852C8.71441 14.4866 7.92727 14.4866 7.18415 14.2852H7.18399Z" fill="#A82D7D"/>
<path id="Vector_8" d="M10.8067 12.5938C10.5192 12.8814 10.2756 13.4696 10.4882 13.6822L12.7573 16.7329C12.9699 16.9455 13.9492 16.3114 14.2361 16.0238C14.5237 15.7363 15.1578 14.7576 14.9452 14.545L11.8945 12.2759C11.6825 12.0633 11.0937 12.3069 10.8067 12.5938Z" fill="#A82D7D"/>
</g>
</g>
</svg>
