<svg width="24" height="25" viewBox="0 0 24 25" fill="none" xmlns="http://www.w3.org/2000/svg">
<g id="icons">
<path id="Mask" fill-rule="evenodd" clip-rule="evenodd" d="M20 18.667C20.5523 18.667 21 18.2193 21 17.667C21 17.1147 20.5523 16.667 20 16.667H4C3.44772 16.667 3 17.1147 3 17.667C3 18.2193 3.44772 18.667 4 18.667H20ZM20 13.667C20.5523 13.667 21 13.2193 21 12.667C21 12.1147 20.5523 11.667 20 11.667H4C3.44772 11.667 3 12.1147 3 12.667C3 13.2193 3.44772 13.667 4 13.667H20ZM3 7.66699C3 8.21928 3.44772 8.66699 4 8.66699H20C20.5523 8.66699 21 8.21928 21 7.66699C21 7.11471 20.5523 6.66699 20 6.66699H4C3.44772 6.66699 3 7.11471 3 7.66699Z" fill="#A82D7D"/>
</g>
</svg>
