<svg width="250" height="134" viewBox="0 0 250 134" fill="none" xmlns="http://www.w3.org/2000/svg">
<g id="np_bouncing-up-arrow_3905943_000000 1" clip-path="url(#clip0_5078_54487)">
<path id="Vector" d="M223.975 73.2546C227.598 73.2774 231.185 73.3683 234.794 73.573C234.146 74.1189 233.499 74.6647 232.878 75.2637C231.572 76.4868 230.272 77.6492 229.063 79.0536C228.347 79.8176 227.676 80.6364 227.084 81.4924C225.938 83.116 225.198 84.998 224.919 86.9603C224.733 88.5434 225.394 90.1168 226.656 91.0794C227.929 92.0429 229.611 92.2673 231.088 91.6596C232.157 91.1802 233.014 90.3263 233.482 89.256C234.145 88.3959 234.865 87.5915 235.643 86.8327C237.12 85.3899 238.495 83.9487 240.221 82.69C242.858 80.6635 245.393 78.5063 247.808 76.2163C250.215 73.5287 250.085 69.4239 247.509 66.9036C245.516 65.0743 243.228 63.5969 240.73 62.5496C237.008 60.6956 233.203 59.0994 229.433 57.0784L229.444 57.0793C228.864 56.7143 228.318 56.3013 227.796 55.8497L227.586 55.567C226.535 54.2761 225.005 53.4638 223.349 53.3027C221.903 53.1799 220.471 53.6081 219.337 54.4995C216.774 56.4916 216.289 60.1672 218.249 62.7473C219.154 63.8425 220.169 64.8453 221.273 65.7437C221.762 66.1009 222.284 66.4304 222.809 66.7295L223.686 67.191L221.412 67.232L217.34 67.3341C215.903 67.3444 214.456 67.4761 213.023 67.5681L205.997 68.0404C204.839 68.1253 203.702 68.3139 202.552 68.43L194.649 69.3981C193.23 69.5626 191.782 69.7044 190.358 69.9195L178.282 71.8161C175.455 72.2581 172.612 72.6378 169.828 73.1549L155.259 75.8782L151.492 76.5765C146.193 77.5825 140.871 78.8515 135.335 79.5318C132.7 79.8578 130.057 80.285 127.44 80.3987C128.666 79.515 129.926 78.7056 131.224 77.93L135.26 76.4501C136.309 76.0911 137.362 75.6917 138.408 75.3631L138.388 75.3614C139.466 75.1373 140.498 74.7362 141.432 74.1638C142.56 73.4755 143.291 72.3054 143.423 70.9929C143.651 69.8717 143.261 68.7082 142.41 67.9333C141.456 67.2922 140.243 67.1891 139.205 67.661C137.299 68.2731 135.426 68.9897 133.596 69.7914C132.24 70.4094 130.881 71.0679 129.648 71.7981C128.415 72.5284 127.202 72.6596 125.945 73.0721L118.306 75.4782C115.11 76.5407 111.899 77.5408 108.67 78.3866C102.583 80.0284 96.4142 81.4391 90.2216 82.5321L90.2317 82.5329C83.7043 83.7299 77.0908 84.3797 70.4616 84.4987C66.3366 84.6268 62.2215 84.2772 58.1874 83.4558C56.7446 83.0583 55.3349 82.5108 53.9977 81.8269C53.6795 81.6166 53.3833 81.3877 53.0879 81.1488L53.098 81.1496C53.0535 81.0746 52.998 81.0088 52.9315 80.9522C52.8829 80.8055 52.8241 80.6579 52.7544 80.5196C52.9531 80.0986 53.172 79.6793 53.4103 79.2719C53.9831 78.404 54.6332 77.5835 55.3592 76.8305C56.8723 75.4417 58.4872 74.1736 60.1921 73.0455L60.5279 72.8092C62.7503 72.0612 64.9366 71.2591 67.1439 70.4487C70.6128 69.1752 74.1572 67.9692 77.5839 66.5903C81.0106 65.2114 84.8118 63.7421 88.3769 62.2934C92.4008 60.5986 96.4828 58.9392 100.449 57.0869L101.425 56.6199L102.604 55.9359L102.603 55.946C102.952 55.6702 103.273 55.3716 103.566 55.04C103.84 54.6866 104.038 54.2757 104.167 53.8386C104.594 52.7649 104.443 51.5402 103.76 50.5961C103.043 49.6798 101.892 49.2052 100.739 49.3517C99.5223 49.5334 98.3095 49.6646 97.1461 49.9323C95.9727 50.1992 94.4831 50.592 93.2481 50.986C90.5739 51.7772 87.8843 52.7503 85.395 53.7608L85.4051 53.7616C80.486 55.6859 75.6859 57.8849 71.0254 60.3607C69.5023 61.1478 67.9976 61.9569 66.5192 62.8189L66.0387 62.9614C60.1468 65.0678 54.2476 67.0207 48.2696 68.7021C44.2138 69.8138 40.1331 70.6178 36.0161 71.4901L36.006 71.4893C32.0031 72.2184 27.9475 72.607 23.8909 72.6493C21.5339 72.7036 19.1782 72.5035 16.8743 72.0531C15.5748 71.6474 14.3251 71.1339 13.116 70.5016C12.6969 70.1605 12.3015 69.7806 11.9398 69.3629L11.6993 69.0777C11.7216 68.8149 11.6117 68.5509 11.5835 68.2838L11.6075 68.0007C12.9827 65.9586 14.5413 64.034 16.2692 62.2764C19.3015 59.4281 22.6407 56.9216 26.212 54.8013C33.7907 50.6998 41.85 47.5351 50.1907 45.3722C56.8371 43.6151 63.6066 42.3266 70.4375 41.512C72.4122 41.2827 73.8912 39.5753 73.8162 37.5831C73.7512 35.5918 72.1561 33.9899 70.1677 33.9023C69.9166 33.8606 69.6538 33.8383 69.3892 33.8362C64.1611 34.4816 58.9723 35.3849 53.8319 36.5572C48.5439 37.7882 43.3238 39.2998 38.194 41.0637C33.2044 42.7375 28.3517 44.8404 23.7187 47.3491C21.4339 48.5909 19.2299 49.9616 17.1057 51.4717C14.9341 53.0591 12.8921 54.8002 10.9795 56.6946C9.97939 57.6789 9.00956 58.6657 8.11635 59.71C7.22313 60.7543 6.59985 61.6179 5.88537 62.5959L5.89548 62.5968C5.4505 63.1598 5.06272 63.7684 4.72377 64.4015C4.37473 65.0338 4.11324 65.7142 3.95201 66.4134C3.65834 67.7123 3.64691 69.0453 3.90266 70.3502C4.77414 75.4345 9.79202 78.101 14.2929 79.4204C16.8105 80.1129 19.407 80.4761 22.0209 80.5149C24.9187 80.5677 27.8194 80.4679 30.7024 80.2139C36.0838 79.5611 41.3994 78.4853 46.6169 77.0039L48.512 76.5131C48.0339 77.2261 47.624 77.9754 47.273 78.7501C46.8456 79.946 46.8569 81.2504 47.3269 82.431C47.626 83.4646 48.1773 84.4076 48.9167 85.1731C50.6415 86.8064 52.7513 87.9836 55.0397 88.616C60.0317 90.0279 65.2124 90.6616 70.3898 90.4905C81.5148 90.3155 92.588 88.8327 103.381 86.1041C106.36 85.4407 109.322 84.6231 112.253 83.8028C114.225 83.2372 116.226 82.7046 118.183 82.0867L118.192 82.0977C118.213 82.4457 118.296 82.7888 118.442 83.1068C118.765 83.8674 119.364 84.4885 120.118 84.8378L120.37 84.9915C121.198 85.5507 122.096 86.0038 123.046 86.3391C124.27 86.6672 125.529 86.8352 126.801 86.8415C129.545 86.7895 132.275 86.5428 134.97 86.0997C137.605 85.7737 140.244 85.3971 142.689 84.9022C145.135 84.4073 148.286 83.7585 151.072 83.2111L163.339 80.8623C166.412 80.2884 169.462 79.6309 172.567 79.0394L186.545 76.8155C188.732 76.482 190.904 76.0861 193.095 75.8344L205.71 74.2993C208.818 73.9117 211.985 73.7938 215.101 73.5595C218.236 73.3371 221.013 73.3594 223.975 73.2546Z" fill="#CF4D92"/>
</g>
<defs>
<clipPath id="clip0_5078_54487">
<rect width="249" height="133" fill="white" transform="translate(0.5 0.5)"/>
</clipPath>
</defs>
</svg>
