<svg width="80" height="81" viewBox="0 0 80 81" fill="none" xmlns="http://www.w3.org/2000/svg">
<g id="support">
<path id="Vector" d="M70.9356 19.4613L54.0683 19.108L56.4648 18.3817L60.9239 10.4648L57.9708 4.67437L50.3622 2.92741L43.775 11.8061L42.197 13.2717L41.8696 11.4005L39.5124 11.1846L36.0289 12.2249L35.898 13.6578L26.8488 0.5L17.5639 0.781345L13.7858 10.0134L19.3712 16.5694L25.4083 18.0219L7.48023 17.6882L5.2867 19.5137V26.436H72.0356L72.3172 21.1298L70.9356 19.4613ZM35.3479 28.6606L32.7288 80.0551L5.37182 79.7541L3.87891 75.4031L7.71595 28.6606H35.3479ZM41.7059 28.6606V80.1532L35.2432 80.0813L36.4873 28.6606H41.7059ZM76.3638 74.0422L73.2535 80.5L44.8816 80.1859L42.6226 28.6606H69.5147L72.5005 30.5254L76.3638 74.0422Z" fill="#F99D47"/>
</g>
</svg>
