<svg width="28" height="10" viewBox="0 0 28 10" fill="none" xmlns="http://www.w3.org/2000/svg">
<path id="Vector" d="M25.3668 2.729C25.9029 3.1746 26.4498 3.63103 26.9406 4.12581C27.039 4.22418 27.1393 4.33435 27.2279 4.45241C27.2505 4.47503 27.2682 4.50258 27.2839 4.52815C27.4699 4.80063 27.5967 5.11245 27.5377 5.4469C27.4423 5.97514 26.918 6.29288 26.5049 6.56042C25.9235 6.93519 25.3333 7.29325 24.7342 7.64051C23.5027 8.35272 22.2386 9.00292 20.9423 9.58906C20.6098 9.74055 19.9871 9.8635 19.7156 9.5212C19.4441 9.17886 19.8769 8.80114 20.1612 8.67228C21.2118 8.19619 22.2447 7.6827 23.249 7.12103C23.7172 6.85938 24.1805 6.58688 24.636 6.30261C24.8317 6.18162 25.0265 6.05768 25.2203 5.93472C25.3491 5.85111 25.477 5.76848 25.6078 5.68291C25.7534 5.64749 25.7839 5.58159 25.6904 5.48421C25.6875 5.46158 25.6845 5.43896 25.6777 5.41043C17.6891 4.83099 9.63382 5.41823 1.82557 7.19283C1.50588 7.2666 0.881238 7.32659 0.762227 6.90066C0.64911 6.50031 1.21078 6.17078 1.51768 6.09996C9.01241 4.39714 16.7046 3.71067 24.3756 4.0884C24.0756 3.82379 23.7686 3.56213 23.4558 3.31031C22.544 2.57551 21.5868 1.89972 20.6002 1.27508C19.7867 0.758655 21.4137 -0.0971463 22.0157 0.282561C23.1873 1.03704 24.3047 1.84759 25.3672 2.72904L25.3668 2.729Z" fill="#A82D7D"/>
</svg>
