<svg width="285" height="510" viewBox="0 0 285 510" fill="none" xmlns="http://www.w3.org/2000/svg">
<g clip-path="url(#clip0_5372_1620)">
<path d="M161.46 278.34V124.77H72.59L25.32 188.89V322.22H43.89V376.79L0 509.57H69.77L115.9 379.6V322.22H127.7V345.84L165.41 393.11V509.56H234.04V379.05L161.46 278.34Z" fill="#EFAD81"/>
<path d="M160.51 218.12L225.35 245.86H278.86L284.8 226.82L222.66 203.26L161.46 124.77L160.51 218.12Z" fill="#EFAD81"/>
<path d="M130.76 109.8L93.0898 91.12L95.2598 21.76L143.28 0L173.36 14.88L188.35 47.97L168.09 92.89L130.76 109.8Z" fill="#EFAD81"/>
<path d="M130.91 165.55C130.91 165.55 134.56 160.44 136.43 159.56C138.3 158.68 142.77 157.95 142.77 157.95L149.45 162.35C149.45 162.35 149.69 170.15 149.43 172.61C149.17 175.07 141.48 183.42 141.48 183.42L128.27 191.3C128.27 191.3 120.44 184.87 116.94 180.91C113.43 176.95 111.34 168.71 111.34 168.71C111.34 168.71 113.1 161.62 114.85 158.83C116.6 156.04 120.84 155.71 120.84 155.71L126.72 158.57L130.91 165.55Z" fill="#F9F0DA"/>
</g>
<defs>
<clipPath id="clip0_5372_1620">
<rect width="284.8" height="509.57" fill="white"/>
</clipPath>
</defs>
</svg>
