<svg width="226" height="443" viewBox="0 0 226 443" fill="none" xmlns="http://www.w3.org/2000/svg">
<g clip-path="url(#clip0_5372_1634)">
<path d="M155.49 94L186.99 165L226.41 271.405L210.84 284.395L103.04 298.475L99.0702 315.875L141.28 401.585L140.51 430.785L105.65 442.615L-0.00976562 313.225L15.8402 268.935L103.04 234.595L78.4902 133L155.49 94Z" fill="#F0C480"/>
<path d="M76.3714 103.775H118.421L147.291 40.6754L113.921 -0.15457L80.3714 -0.18457L52.2414 22.8054L50.4414 72.0554L76.3714 103.775Z" fill="#F0C480"/>
<g clip-path="url(#clip1_5372_1634)">
<path d="M114.114 157.89C114.114 157.89 117.236 152.439 119.014 151.39C120.792 150.342 125.164 149.159 125.164 149.159L132.247 152.885C132.247 152.885 133.256 160.624 133.242 163.093C133.228 165.563 126.396 174.635 126.396 174.635L114.039 183.783C114.039 183.783 105.611 178.157 101.73 174.559C97.8492 170.961 94.9585 162.977 94.9585 162.977C94.9585 162.977 96.0074 155.745 97.4648 152.799C98.9221 149.853 103.116 149.096 103.116 149.096L109.252 151.364L114.111 157.9L114.114 157.89Z" fill="#FFE2B6"/>
</g>
</g>
<defs>
<clipPath id="clip0_5372_1634">
<rect width="226" height="443" fill="white" transform="translate(-0.00976562)"/>
</clipPath>
<clipPath id="clip1_5372_1634">
<rect width="37.38" height="36.36" fill="white" transform="translate(101.438 141) rotate(18.9782)"/>
</clipPath>
</defs>
</svg>
