<svg width="284" height="82" viewBox="0 0 284 82" fill="none" xmlns="http://www.w3.org/2000/svg">
<g clip-path="url(#clip0_5077_53636)">
<path d="M111.847 43.9322L120.298 39.9892C115.114 35.3703 108.917 29.3995 111.396 19.2605C113.762 11.9378 120.749 6.53027 128.411 6.53027H151.172C157.144 8.7834 162.778 12.2758 166.159 15.5428C169.201 22.4148 168.75 28.7236 165.708 34.3564L154.665 44.9461L156.13 46.4107L184.3 29.2869L185.765 48.1005L176.751 55.6485L185.765 61.056V76.0393L179.568 76.2646C174.722 75.814 165.933 72.7723 161.764 70.1812L155.116 76.3773L112.297 76.2646C96.8602 66.5762 104.072 47.4246 111.847 43.9322ZM131.228 49.903C123.227 52.3815 123.566 61.1687 131.228 62.5205C135.284 62.2952 141.256 62.4079 142.496 59.5915C140.13 54.9725 137.425 52.1561 131.228 49.903ZM135.284 21.063C130.89 23.7667 130.101 29.5122 136.411 33.5678C143.059 33.5678 145.313 29.2869 146.552 26.9211C145.989 22.6401 141.594 21.063 135.284 21.063Z" fill="#CF4D92"/>
<path d="M276.293 81.2664C269.915 80.4778 267.098 75.8138 266.377 69.9332C274.129 62.9485 273.047 64.03 276.788 62.8809C280.101 65.472 283.865 72.006 284 74.3268L276.315 81.2664H276.293Z" fill="#A82E7D"/>
<path d="M273.498 41.6341L275.188 54.567C275.188 54.567 270.974 63.0839 267.188 65.2919C263.402 67.5 256.078 65.2919 256.078 65.2919C256.078 65.2919 238.049 80.861 229.756 80.861C221.462 80.861 209.113 73.7862 209.113 73.7862L200.594 59.9295L203.974 50.2185C203.974 50.2185 189.213 43.2563 189.213 33.8608C189.213 24.4652 194.103 13.3573 194.103 13.3573C194.103 13.3573 204.943 6.41765 212.222 2.54227C219.502 -1.33311 232.595 7.94978 232.595 7.94978C232.595 7.94978 249.993 -1.37818 256.709 0.536983C263.425 2.45214 270.704 10.2705 272.394 17.7284C274.084 25.1862 269.329 37.5108 269.329 37.5108L273.543 41.6566L273.498 41.6341Z" fill="#A82E7D"/>
<path d="M49.9175 22.1672C49.9175 22.1672 56.9262 9.86508 60.9151 7.47677C64.904 5.08845 81.5356 2.40723 81.5356 2.40723L97.5137 10.7438C97.5137 10.7438 99.8349 28.1605 99.8349 33.7483C99.8349 39.336 84.4879 59.7944 84.4879 59.7944L49.94 80.5007C49.94 80.5007 24.1587 67.8832 15.3922 59.7944C6.62561 51.7057 0 33.7483 0 33.7483C0 33.7483 2.32122 17.4581 5.58895 10.7889C8.85669 4.1196 18.2993 2.42976 18.2993 2.42976L38.9199 7.4993L49.9175 22.1897V22.1672Z" fill="#A82E7D"/>
</g>
<defs>
<clipPath id="clip0_5077_53636">
<rect width="284" height="81" fill="white" transform="translate(0 0.266602)"/>
</clipPath>
</defs>
</svg>
