<svg width="1115" height="457" viewBox="0 0 1115 457" fill="none" xmlns="http://www.w3.org/2000/svg">
<g clip-path="url(#clip0_5149_1554)">
<path d="M888.449 319.295H886.819L884.319 345.195L874.629 319.295H873.809L861.009 345.185V319.295H858.319L856.329 291.735L859.059 275.375L861.009 242.835H890.139L894.189 296.575L888.429 319.295H888.449ZM876.909 239.975C884.459 239.975 890.569 233.855 890.569 226.315C890.569 218.775 884.449 212.655 876.909 212.655C869.369 212.655 863.249 218.775 863.249 226.315C863.249 233.855 869.369 239.975 876.909 239.975Z" fill="#092A7C"/>
<path d="M1090.89 314.375L1059.71 319.395L1052.04 269.905L1097.79 269.885L1090.89 314.375ZM1089.52 317.525L1069.16 323.785L1055.07 326.135L1033.15 388.765L1046.89 456.135H1060.16L1073.03 351.815L1086.39 456.135H1100.8L1114.57 403.245L1089.52 317.515V317.525ZM1063.56 228.365C1053.81 228.365 1045.9 236.275 1045.9 246.025C1045.9 255.775 1053.81 263.685 1063.56 263.685C1073.31 263.685 1081.22 255.775 1081.22 246.025C1081.22 236.275 1073.31 228.365 1063.56 228.365Z" fill="#092A7C"/>
<path d="M420.55 172.875H419.61L418.17 187.815L412.58 172.875H412.11L404.73 187.815V172.875H403.18L402.03 156.975L403.6 147.535L404.73 128.755H421.54L423.88 159.765L420.56 172.875H420.55ZM413.89 127.105C418.24 127.105 421.77 123.575 421.77 119.225C421.77 114.875 418.24 111.345 413.89 111.345C409.54 111.345 406.01 114.875 406.01 119.225C406.01 123.575 409.54 127.105 413.89 127.105Z" fill="#092A7C"/>
<path d="M293.44 83.8751L280.89 85.8951L277.8 65.9751H296.22L293.44 83.8751ZM292.89 85.1451L284.7 87.6651L279.03 88.6151L270.21 113.825L275.74 140.945H281.08L286.26 98.9451L291.64 140.945H297.44L302.99 119.655L292.9 85.1451H292.89ZM282.44 49.2551C278.51 49.2551 275.33 52.4351 275.33 56.3651C275.33 60.2951 278.51 63.4751 282.44 63.4751C286.37 63.4751 289.55 60.2951 289.55 56.3651C289.55 52.4351 286.37 49.2551 282.44 49.2551Z" fill="#092A7C"/>
<path d="M654.55 283.135L653.15 308.075C645.92 304.255 640.13 299.645 635.47 294.745C630.81 299.645 625.02 304.255 617.79 308.075V276.975L624.85 269.795H620.47L624.99 240.615L645.44 237.325L650.47 269.785H648.14L654.55 283.145V283.135ZM641.63 235.815C648.03 235.815 653.21 230.625 653.21 224.235C653.21 217.845 648.02 212.655 641.63 212.655C635.24 212.655 630.05 217.845 630.05 224.235C630.05 230.625 635.24 235.815 641.63 235.815Z" fill="#092A7C"/>
<path d="M0.540039 39.7352L2.46004 14.3152H16.24L17.16 29.7052L18.45 37.4452L17.51 50.4852H16.24V62.7352L10.19 50.4852H9.80004L5.21004 62.7352L4.03004 50.4852H3.26004L0.540039 39.7352ZM15.18 6.49516C15.18 2.92516 12.29 0.0351562 8.72004 0.0351562C5.15004 0.0351562 2.26004 2.92516 2.26004 6.49516C2.26004 10.0652 5.15004 12.9552 8.72004 12.9552C12.29 12.9552 15.18 10.0652 15.18 6.49516Z" fill="#092A7C"/>
</g>
<defs>
<clipPath id="clip0_5149_1554">
<rect width="1114.04" height="456.11" fill="white" transform="translate(0.540039 0.0351562)"/>
</clipPath>
</defs>
</svg>
