<svg width="1178" height="439" viewBox="0 0 1178 439" fill="none" xmlns="http://www.w3.org/2000/svg">
<g clip-path="url(#clip0_5149_1530)">
<path d="M297.905 23.34L305.495 93.2L340.675 139.31L426.875 114.26L362.135 17.24L297.905 23.34Z" fill="#25468E"/>
<path d="M297.905 23.3401L299.625 30.3501L294.925 75.2301L260.245 116.98L297.905 23.3401Z" fill="#25468E"/>
<path d="M1037.46 438.64L1022.6 367.3L1017.64 286.48L1157.35 258.31L1150.72 337.94L1177.16 371.26L1037.46 438.64Z" fill="#25468E"/>
<path d="M1148.43 244.43L1017.64 286.48L951.257 265.46L935.397 348.47L914.597 392.07L947.287 253.35L1077.09 227.59L1148.43 244.43Z" fill="#25468E"/>
<path d="M723.257 238.62L725.307 261.61L875.357 318.67V297.45L723.257 238.62Z" fill="#25468E"/>
<path d="M723.257 234.8L802.007 197.94L920.977 247.37L879.087 294.14L723.257 234.8Z" fill="#25468E"/>
<path d="M879.087 314.2V297.01L918.177 256.86L920.207 281.86L879.087 314.2Z" fill="#25468E"/>
<path d="M220.836 92.15L243.086 80L246.996 60.72L233.916 19.29L197.966 0H164.086L136.646 16.43L123.796 64.15L132.366 72.86L146.646 78.57L170.936 32.14L180.226 57.86L179.506 82.86L220.836 92.15Z" fill="#25468E"/>
<path d="M372.586 147.09L327.476 154.89L325.046 166.4L328.976 156.86L368.586 150.04L372.586 147.09Z" fill="#25468E"/>
<path d="M322.427 171.91L328.767 189.8L374.127 193.98L379.527 166.86L372.587 147.09L374.787 166.55L322.427 171.91Z" fill="#25468E"/>
<path d="M374.576 205.87C376.525 205.87 378.106 204.29 378.106 202.34C378.106 200.39 376.525 198.81 374.576 198.81C372.626 198.81 371.046 200.39 371.046 202.34C371.046 204.29 372.626 205.87 374.576 205.87Z" fill="#25468E"/>
<path d="M327.726 200.97C329.676 200.97 331.256 199.39 331.256 197.44C331.256 195.491 329.676 193.91 327.726 193.91C325.777 193.91 324.196 195.491 324.196 197.44C324.196 199.39 325.777 200.97 327.726 200.97Z" fill="#25468E"/>
<path d="M374.997 141.96L384.687 166.4L389.527 164.4L377.227 139.79L374.997 141.96Z" fill="#25468E"/>
<path d="M14.3467 31.29L51.3267 37.68L53.3167 47.12L50.0967 39.3L17.6267 33.71L14.3467 31.29Z" fill="#25468E"/>
<path d="M55.4653 51.63L50.2653 66.3L13.0753 69.73L8.65527 47.49L14.3453 31.29L12.5453 47.24L55.4653 51.63Z" fill="#25468E"/>
<path d="M12.7152 79.4599C14.3113 79.4599 15.6052 78.166 15.6052 76.5699C15.6052 74.9738 14.3113 73.6799 12.7152 73.6799C11.1191 73.6799 9.8252 74.9738 9.8252 76.5699C9.8252 78.166 11.1191 79.4599 12.7152 79.4599Z" fill="#25468E"/>
<path d="M51.1156 75.4502C52.7117 75.4502 54.0056 74.1563 54.0056 72.5602C54.0056 70.9641 52.7117 69.6702 51.1156 69.6702C49.5195 69.6702 48.2256 70.9641 48.2256 72.5602C48.2256 74.1563 49.5195 75.4502 51.1156 75.4502Z" fill="#25468E"/>
<path d="M12.3661 27.08L4.42605 47.12L0.456055 45.48L10.5361 25.3L12.3661 27.08Z" fill="#25468E"/>
</g>
<defs>
<clipPath id="clip0_5149_1530">
<rect width="1176.7" height="438.64" fill="white" transform="translate(0.456055)"/>
</clipPath>
</defs>
</svg>
