<svg width="1172" height="493" viewBox="0 0 1172 493" fill="none" xmlns="http://www.w3.org/2000/svg">
<g clip-path="url(#clip0_5149_1561)">
<path d="M10.9111 15.8853C15.1913 15.8853 18.6611 12.4155 18.6611 8.13525C18.6611 3.85505 15.1913 0.385254 10.9111 0.385254C6.63093 0.385254 3.16113 3.85505 3.16113 8.13525C3.16113 12.4155 6.63093 15.8853 10.9111 15.8853Z" fill="#092A7C"/>
<path d="M5.03051 15.7753L10.9205 18.2153L14.9805 15.7753L18.1105 20.7953V22.8453L27.3105 25.8353L30.8105 36.3353L33.7705 45.8053L28.0905 48.7753L20.3205 48.2253L18.1105 43.5353L17.5705 40.6353L11.6605 43.5353L3.60051 41.7853L0.520508 37.1453V25.0253L5.03051 15.7753Z" fill="#092A7C"/>
<path d="M691.222 240.805C691.222 240.805 691.712 236.625 694.122 230.435C697.992 220.485 698.372 204.785 698.372 204.785L728.022 207.915C728.022 207.915 726.752 223.285 725.622 228.115C724.492 232.955 732.012 249.145 732.012 249.145L743.302 310.365L713.632 278.175L695.462 311.385L691.212 245.265L716.212 247.205L691.212 240.805H691.222ZM725.642 188.805C725.642 181.275 719.542 175.175 712.012 175.175C704.482 175.175 698.382 181.285 698.382 188.805C698.382 196.325 704.482 202.435 712.012 202.435C719.542 202.435 725.642 196.335 725.642 188.805Z" fill="#092A7C"/>
<path d="M1148.25 417.71C1157.01 417.71 1164.11 410.61 1164.11 401.85C1164.11 393.09 1157.01 385.99 1148.25 385.99C1139.49 385.99 1132.39 393.09 1132.39 401.85C1132.39 410.61 1139.49 417.71 1148.25 417.71Z" fill="#092A7C"/>
<path d="M1160.92 453.36L1171.19 446.38L1163.27 421.22L1129.58 423.92L1125.62 443.74L1132.47 456.82L1125.54 492.99L1147.64 481.93L1171.27 491.82L1160.92 453.36Z" fill="#092A7C"/>
<path d="M122.798 70.15C127.118 70.15 130.618 66.65 130.618 62.33C130.618 58.01 127.118 54.51 122.798 54.51C118.478 54.51 114.978 58.01 114.978 62.33C114.978 66.65 118.478 70.15 122.798 70.15Z" fill="#092A7C"/>
<path d="M129.037 87.7201L134.097 84.2801L130.187 71.8801L113.587 73.2101L111.637 82.9801L115.007 89.4301L111.597 107.26L122.487 101.8L134.137 106.68L129.037 87.7201Z" fill="#092A7C"/>
</g>
<defs>
<clipPath id="clip0_5149_1561">
<rect width="1171" height="493" fill="white" transform="translate(0.520508)"/>
</clipPath>
</defs>
</svg>
