<?xml version="1.0" standalone="no"?>
<!DOCTYPE svg PUBLIC "-//W3C//DTD SVG 20010904//EN"
 "http://www.w3.org/TR/2001/REC-SVG-20010904/DTD/svg10.dtd">
<svg version="1.0" xmlns="http://www.w3.org/2000/svg"
 width="760.000000pt" height="760.000000pt" viewBox="0 0 760.000000 760.000000"
 preserveAspectRatio="xMidYMid meet">
<metadata>
Created by potrace 1.14, written by Peter Selinger 2001-2017
</metadata>
<g transform="translate(0.000000,760.000000) scale(0.100000,-0.100000)"
fill="#000000" stroke="none">
<path d="M5107 7054 c-2 -2 -23 -6 -47 -10 -25 -3 -55 -7 -67 -9 -11 -2 -29
-6 -40 -9 -10 -3 -31 -8 -48 -11 -16 -3 -64 -14 -105 -25 -41 -12 -84 -23 -94
-25 -29 -7 -316 -105 -351 -120 -84 -37 -211 -87 -222 -88 -7 0 -13 -4 -13 -9
0 -4 -6 -8 -14 -8 -8 0 -52 -17 -98 -39 -45 -21 -112 -51 -148 -67 -36 -15
-68 -32 -71 -37 -3 -5 -9 -8 -13 -7 -4 1 -72 -30 -150 -69 -79 -39 -148 -71
-153 -71 -4 0 -26 14 -47 30 -22 17 -46 30 -53 30 -7 0 -13 4 -13 8 0 5 -12
15 -27 23 -16 7 -50 27 -78 44 -27 17 -63 38 -80 47 -218 113 -303 153 -415
195 -116 45 -240 83 -287 88 -12 2 -26 5 -30 8 -5 3 -29 8 -53 12 -25 3 -58 8
-75 11 -103 18 -365 -7 -402 -38 -7 -6 -13 -7 -13 -3 0 4 -6 3 -12 -2 -7 -6
-62 -36 -123 -68 -60 -32 -117 -64 -126 -71 -8 -8 -21 -14 -28 -14 -6 0 -17
-5 -24 -10 -7 -6 -97 -60 -202 -121 -104 -61 -208 -122 -230 -135 -22 -14 -55
-32 -73 -41 -17 -9 -32 -20 -32 -25 0 -4 -6 -8 -14 -8 -8 0 -21 -6 -28 -12
-19 -18 -69 -48 -90 -55 -10 -3 -18 -9 -18 -13 0 -4 -8 -10 -18 -14 -9 -3 -29
-14 -43 -23 -15 -10 -55 -35 -90 -56 -35 -21 -109 -67 -164 -102 -55 -35 -121
-77 -147 -92 -50 -29 -46 -22 -125 -228 -62 -161 -169 -493 -177 -550 -2 -11
-5 -21 -6 -22 -1 -2 -3 -6 -4 -10 -1 -5 -12 -51 -25 -103 -13 -52 -25 -104
-27 -115 -11 -57 -26 -141 -27 -157 -1 -10 -4 -18 -7 -18 -3 0 -5 -12 -6 -27
0 -16 -4 -55 -8 -88 -15 -111 -17 -139 -21 -292 -3 -132 0 -164 19 -240 13
-48 30 -103 40 -120 9 -18 13 -33 10 -33 -4 0 0 -8 8 -17 9 -10 19 -29 23 -43
4 -14 11 -27 14 -30 4 -3 18 -23 31 -45 13 -22 28 -44 32 -50 4 -5 27 -35 50
-65 57 -75 82 -102 157 -174 35 -33 73 -70 85 -81 12 -11 55 -47 96 -80 41
-33 77 -62 80 -65 3 -3 12 -9 22 -15 9 -5 45 -31 80 -56 35 -25 79 -54 98 -65
19 -10 37 -22 40 -25 6 -7 84 -53 120 -71 14 -7 27 -15 30 -18 3 -4 36 -22 73
-40 l68 -34 -6 -36 c-4 -19 -10 -39 -14 -45 -4 -5 -17 -41 -30 -80 -12 -38
-27 -79 -31 -90 -7 -17 -19 -52 -25 -75 -1 -3 -4 -12 -8 -20 -8 -22 -58 -165
-108 -310 l-43 -125 47 -75 c26 -41 54 -88 63 -105 10 -16 36 -59 59 -95 23
-36 93 -148 155 -250 62 -102 120 -193 128 -202 8 -10 12 -18 8 -18 -4 0 6
-19 22 -42 27 -38 116 -180 147 -233 54 -95 46 -89 283 -207 124 -62 229 -113
232 -113 3 -1 28 -11 55 -24 61 -27 348 -142 365 -145 3 -1 25 -8 50 -17 155
-56 387 -115 525 -134 22 -3 90 -8 150 -10 165 -7 329 35 555 142 41 19 89 42
105 49 17 8 50 26 75 40 25 14 65 37 90 51 25 13 59 33 75 43 17 11 43 27 58
35 31 18 236 149 252 162 6 4 37 26 70 48 33 22 62 43 63 48 2 4 8 7 13 7 6 0
15 4 22 10 7 5 113 85 237 178 224 167 241 180 309 237 20 17 68 56 106 87 39
30 83 67 99 81 l28 24 76 -19 c42 -11 87 -21 101 -23 14 -2 53 -8 86 -14 296
-47 555 -13 681 90 96 79 229 233 319 369 17 25 32 47 36 50 5 5 81 129 122
200 11 19 40 72 65 118 40 76 43 87 38 135 -6 61 -15 130 -22 172 -2 17 -7 53
-9 80 -3 28 -7 61 -10 75 -3 14 -7 45 -10 70 -3 25 -7 61 -10 80 -12 82 -16
117 -20 150 -2 19 -6 55 -10 80 -4 25 -8 59 -10 75 -6 52 -16 129 -20 150 -2
11 -4 28 -4 37 -1 9 -7 23 -15 30 -7 7 -84 82 -169 166 -149 147 -155 155
-146 180 6 15 12 34 14 42 2 8 13 39 24 68 11 29 20 55 21 57 0 3 2 10 5 17 9
27 44 153 45 160 0 4 7 26 15 49 9 23 17 51 19 63 2 12 12 53 21 91 9 39 19
81 21 95 3 14 10 45 15 70 11 48 14 64 23 120 3 19 8 49 12 65 3 17 7 50 9 75
2 25 4 45 5 45 11 0 17 360 7 420 -26 165 -71 311 -141 455 -23 47 -99 185
-105 190 -3 3 -19 25 -35 50 -176 272 -450 529 -736 690 -41 23 -79 43 -85 44
-5 2 -26 9 -45 18 -19 8 -53 21 -75 28 -22 7 -47 15 -55 18 -8 3 -22 7 -30 9
-18 5 -268 11 -273 7z"/>
<path d="M6950 2030 c-30 -10 -80 -26 -110 -35 -30 -9 -86 -37 -124 -62 -72
-47 -81 -54 -119 -88 -13 -11 -52 -45 -87 -75 -36 -30 -70 -59 -76 -65 -6 -5
-37 -32 -68 -60 -32 -27 -85 -75 -118 -106 -66 -61 -63 -53 -44 -159 3 -14 8
-41 11 -60 4 -19 14 -55 22 -79 8 -24 16 -52 18 -61 5 -26 88 -204 97 -208 4
-2 15 -19 24 -38 22 -46 146 -171 214 -215 67 -44 178 -96 218 -102 17 -3 36
-8 41 -12 13 -7 40 -13 94 -20 43 -6 52 0 153 93 33 32 98 91 144 132 46 41
93 84 106 95 38 35 167 151 212 191 50 45 50 57 1 186 -47 121 -176 354 -251
453 -107 140 -216 262 -268 298 -29 20 -21 20 -90 -3z"/>
</g>
</svg>
