<?xml version="1.0" encoding="UTF-8"?>
<svg id="Layer_2" data-name="Layer 2" xmlns="http://www.w3.org/2000/svg" viewBox="0 0 1440 944" width="100%" height="100%">
  <defs>
    <style>
      .cls-1 {
        fill: #5b0825;
        stroke-width: 0px;
      }
      .transparent{
        fill:transparent;
        stroke-width: 0px;
      }
    </style>
  </defs>
  <g id="shatter">
    <polygon class="cls-1" points="1440 0 1440 944 215.17 944 379.34 794.53 585.43 707.34 622.24 625.43 622.24 543.52 632.99 503.89 677.91 488.04 754.53 488.04 754.53 452.35 743.96 387.63 773.03 337.43 839.08 337.43 907.78 295.16 926.28 242.31 1002.9 242.31 1055.74 210.61 1132.37 210.61 1195.78 62.64 1319.96 30.94 1336.12 0 1440 0"/>
    <polygon class="transparent" points="1336.12 0 1319.96 30.94 1195.78 62.64 1132.37 210.61 1055.74 210.61 1002.9 242.31 926.28 242.31 907.78 295.16 839.08 337.43 773.03 337.43 743.96 387.63 754.53 452.35 754.53 488.04 677.91 488.04 632.99 503.89 622.24 543.52 622.24 625.43 585.43 707.34 379.34 794.53 215.17 944 0 944 0 0 1336.12 0"/>
  </g>
</svg>