<?xml version="1.0" encoding="UTF-8"?>
<svg id="Layer_2" data-name="Layer 2" xmlns="http://www.w3.org/2000/svg" viewBox="0 0 1440 944" width="100%" height="100%">
  <defs>
    <style>
      .cls-1 {
        fill: #660829;
        stroke-width: 0px;
      }
         .transparent{
        fill:transparent;
        stroke-width: 0px;
      }
    </style>
  </defs>
  <g id="shatter">
    <polygon class="cls-1" points="1210.12 845.87 1210.12 880.22 1172.53 944 0 944 0 0 346.85 0 269.5 198.53 298.57 306.86 433.32 409.91 462.38 441.61 528.44 417.83 652.62 394.06 708.11 417.83 734.53 452.18 937.98 428.4 1043.67 531.45 1043.67 573.72 1014.6 616 1043.67 671.49 1109.72 713.76 1210.12 845.87"/>
    <polygon class="transparent" points="1440 0 1440 944 1172.53 944 1210.12 880.22 1210.12 845.87 1109.72 713.76 1043.67 671.49 1014.6 616 1043.67 573.72 1043.67 531.45 937.98 428.4 734.53 452.18 708.11 417.83 652.62 394.06 528.44 417.83 462.38 441.61 433.32 409.91 298.57 306.86 269.5 198.53 346.85 0 1440 0"/>
  </g>
</svg>