<svg width="400" height="864" viewBox="0 0 400 864" fill="none" xmlns="http://www.w3.org/2000/svg">
<g clip-path="url(#clip0_5151_6597)">
<path d="M323.384 283.602C352.478 282.849 376.724 261.978 382.543 234.115L261.638 237.235C268.966 264.775 294.181 284.355 323.276 283.602H323.384Z" fill="#F5E7EE"/>
<path d="M56.8965 347.72L125.647 335.886L141.164 738.453L47.9526 737.485L56.8965 347.72Z" fill="#F5E7EE"/>
<path d="M134.483 285.108L48.8146 282.849L47.9526 327.602L133.621 319.104L134.483 285.108Z" fill="#F5E7EE"/>
<path d="M113.147 -9.77086C113.147 -60.2262 154.203 -101.215 204.741 -101.215C255.28 -101.215 296.336 -59.4732 296.336 -9.77086C296.336 10.7771 285.56 36.9192 285.56 36.9192L340.086 30.5719V-9.77086C340.086 -84.3243 279.31 -145 204.634 -145C129.957 -145 69.3965 -84.3243 69.3965 -9.77086V271.876H125.647L113.147 -9.77086Z" fill="#F5E7EE"/>
<path d="M373.06 42.621L257.974 53.2715L231.034 217.332L400.108 222.819L373.168 42.621H373.06Z" fill="#F5E7EE"/>
<path d="M20.7974 749.749H160.776L185.022 864H0L20.7974 749.749Z" fill="#F5E7EE"/>
</g>
<defs>
<clipPath id="clip0_5151_6597">
<rect width="400" height="1009" fill="white" transform="translate(0 -145)"/>
</clipPath>
</defs>
</svg>
