<svg width="1440" height="1001" viewBox="0 0 1440 1001" fill="none" xmlns="http://www.w3.org/2000/svg">
<path d="M1292.98 0.229492C1298.98 0.229492 1304.98 0.229492 1310.97 0.229492C1304.1 9.18652 1297.81 18.4351 1294.14 29.4752C1314.77 37.2657 1335.1 45.0146 1355.55 52.7634C1358.51 36.4325 1355.14 18.5185 1345.97 0.229492H1361.97C1369.42 18.1436 1371.92 36.6825 1369.59 55.9297C1369.47 56.8879 1369.88 58.5959 1370.55 58.8876C1377.26 61.8871 1384.09 64.6367 1391.63 67.7613C1391.13 61.8455 1390.84 57.0128 1390.3 52.2635C1388.26 34.8911 1386.09 17.5603 1384.01 0.229492C1388.67 0.229492 1393.34 0.229492 1398 0.229492C1398.71 5.52039 1399.5 10.7696 1400.09 16.0605C1402.05 34.0578 1403.88 52.0969 1405.79 70.136C1406.21 74.1771 1413.5 78.8846 1416.33 76.5516C1423.71 70.5525 1431.71 71.2608 1440 73.2188V102.215C1434.25 100.173 1428.5 98.1318 1421.54 95.6738C1421.54 106.922 1420.5 117.629 1421.75 128.002C1425.08 155.915 1429.25 183.703 1433.46 211.49C1435.21 223.114 1437.79 234.612 1440 246.194V324.182C1438.83 318.683 1437.41 313.226 1436.46 307.685C1425.33 243.527 1411.46 179.787 1406.67 117.671C1405.38 127.753 1404.17 140.876 1401.96 153.832C1398.92 171.663 1393.8 188.869 1383.13 203.825C1380.96 206.866 1381.01 209.074 1382.51 212.323C1395.88 241.319 1409.21 270.315 1422.29 299.477C1428.5 313.267 1434.12 327.265 1440 341.18V396.172C1438.91 395.464 1437.75 394.922 1436.79 394.089C1428 386.257 1419.25 378.341 1410.46 370.467C1405.92 366.384 1401.3 362.385 1396.71 358.344C1397.46 364.26 1399.55 369.426 1400.21 374.8C1401.67 386.548 1407.92 394.089 1418.21 399.463C1425.79 403.421 1432.75 408.587 1439.96 413.211V430.208C1430.25 423.918 1420.54 417.627 1410.25 411.003C1410.63 413.044 1410.84 414.502 1411.17 415.877C1418.63 449.122 1426.17 482.326 1433.5 515.571C1435.87 526.403 1437.83 537.318 1439.96 548.191V678.172C1430.04 678.589 1420.08 678.881 1410.17 679.547C1409.21 679.589 1407.71 681.588 1407.59 682.797C1405.46 700.919 1405.75 701.627 1418.33 715C1419.58 716.334 1420.75 717.75 1422 719.083C1428 725.457 1433.96 731.831 1439.96 738.205V759.202C1435 753.911 1429.96 748.704 1425.04 743.371C1419.04 736.831 1413.13 730.165 1406.46 722.749C1406.21 724.707 1406.04 725.457 1406 726.249C1405.09 739.705 1404.42 753.203 1403.13 766.618C1402.34 774.783 1403.5 782.157 1406.67 789.823C1415.42 810.986 1421.33 832.983 1424.29 855.73C1425.42 864.229 1426.08 872.811 1427 881.351C1428.75 878.185 1429.87 874.935 1430.87 871.644C1433.92 861.854 1436.91 852.022 1439.91 842.232V891.225C1433.71 908.014 1426.54 924.511 1421.54 941.634C1415.42 962.548 1407.67 982.461 1394.92 1000.21H1366.93C1366.01 992.377 1363.72 984.378 1364.47 976.671C1366.84 951.799 1370.3 927.053 1373.34 902.265C1378.09 863.729 1382.96 825.234 1387.46 786.698C1387.88 783.157 1386.96 779.033 1385.46 775.741C1374.67 752.161 1361.09 730.29 1345.09 709.876C1337.51 700.169 1337.55 700.294 1326.31 706.002C1322.97 707.71 1321.56 709.834 1320.89 713.5C1317.31 732.456 1313.97 751.537 1309.35 770.242C1292.56 838.482 1265.48 902.515 1229.32 962.714C1227.28 966.089 1226.65 968.838 1229.07 972.171C1235.74 981.462 1242.32 990.835 1248.94 1000.21H1230.94C1226.65 994.085 1222.36 987.961 1217.91 981.628C1213.45 988.044 1209.2 994.126 1204.95 1000.21H1187.95C1194.99 989.877 1202.12 979.628 1208.95 969.172C1209.91 967.713 1210.03 965.006 1209.41 963.339C1184.74 898.14 1192.99 835.983 1227.65 776.825C1246.32 744.954 1273.73 721.458 1304.98 702.335C1307.81 700.586 1309.31 698.628 1309.6 695.336C1310.14 689.212 1311.14 683.088 1311.52 676.964C1311.64 675.09 1310.85 672.548 1309.56 671.34C1294.39 656.967 1278.02 644.177 1260.15 633.304C1257.73 631.804 1255.98 631.929 1253.4 633.179C1242.48 638.47 1231.78 644.636 1220.28 648.094C1204.74 652.76 1188.53 655.176 1172.62 658.675C1170.62 659.133 1167.25 660.133 1167.08 661.258C1165.54 671.59 1162.83 682.13 1163.79 692.337C1167.7 735.539 1168.2 778.491 1159.08 821.152C1158.58 823.568 1159.37 826.609 1160.41 828.942C1166.29 841.94 1172.79 854.688 1178.24 867.895C1180.12 872.477 1180.29 878.018 1180.12 883.101C1179.83 891.391 1174 896.391 1165.79 895.349C1161.12 894.766 1156.41 893.058 1152.16 890.975C1146.67 888.308 1141.62 884.767 1136 881.393C1134.88 883.101 1133.79 884.726 1132.71 886.351C1124.09 899.599 1114.3 912.263 1100.76 920.304C1084.92 929.719 1072.8 942.051 1062.43 956.965C1057.14 964.589 1049.93 970.838 1041.01 974.504C1031.68 978.379 1023.18 976.212 1018.02 967.589C1015.1 962.714 1013.89 956.84 1011.77 951.466C1011.23 950.091 1010.31 947.883 1009.39 947.8C1003.19 947.217 996.938 947.091 990.314 946.8C991.272 949.508 992.188 951.632 992.813 953.84C997.104 968.38 989.814 979.795 974.691 981.253C967.984 981.92 960.86 982.128 954.319 980.628C936.321 976.504 918.532 971.505 900.743 966.672C894.078 964.839 887.537 962.423 881.788 960.589C876.413 967.838 871.997 974.963 866.457 981.045C858.666 989.627 849.043 989.794 840.294 982.586C839.794 982.17 839.211 981.92 838.669 981.587C834.378 987.919 830.212 994.126 826.004 1000.29H807.007C813.631 991.377 820.297 982.42 826.921 973.504C829.962 969.463 830.462 965.422 828.296 960.548C826.296 956.049 825.129 951.091 824.088 946.217C823.338 942.717 821.838 940.884 818.255 939.884C763.138 924.512 708.021 908.972 652.904 893.599C646.114 891.683 639.198 890.35 632.158 888.683C635.782 903.806 639.24 918.179 642.739 932.51C643.031 933.76 643.698 935.01 644.447 936.093C653.321 948.758 661.695 961.881 671.36 973.879C679.026 983.378 688.399 991.543 696.981 1000.29H675.985C665.903 988.586 655.779 976.879 645.989 965.506C644.697 971.963 643.781 978.712 641.865 985.169C640.031 991.46 635.657 995.834 628.866 996.918C625.45 997.459 622.451 996.251 621.409 992.585C620.451 989.211 621.867 986.461 625.117 985.378C629.116 984.044 630.699 981.003 630.866 977.421C631.324 968.63 631.491 959.84 631.366 951.049C631.283 943.259 628.491 936.26 624.659 929.427C618.701 918.846 612.369 908.222 608.453 896.849C604.162 884.476 596.704 879.643 584.164 878.018C563.209 875.352 542.462 871.061 521.674 867.27C516.216 866.27 513.883 863.27 514.675 859.313C515.383 855.605 518.549 853.814 523.757 854.563C535.63 856.23 547.503 857.896 559.335 859.812C570.792 861.646 582.206 863.729 594.33 865.812C589.289 852.772 584.581 840.399 579.665 828.067C579.207 826.901 577.582 826.026 576.291 825.442C560.21 817.819 544.045 810.361 528.006 802.654C525.256 801.321 523.882 801.488 521.799 803.862C508.759 818.818 493.636 831.233 475.972 840.399C469.515 843.773 462.849 846.69 456.1 849.897C463.432 860.104 470.931 870.061 477.972 880.351C491.47 900.057 503.51 920.554 510.425 943.634C513.716 954.591 515.716 965.714 513.008 977.129C510.217 988.96 501.677 995.959 489.595 995.335C483.888 995.043 478.013 993.668 472.639 991.668C458.141 986.211 445.602 977.379 433.52 967.88C424.563 960.839 415.856 953.424 406.94 946.092C413.356 964.297 419.689 982.295 426.021 1000.29H411.023C410.898 999.459 410.94 998.584 410.648 997.876C400.483 972.588 390.36 947.258 380.069 922.012C379.153 919.762 377.486 917.763 375.778 915.971C357.656 896.891 339.534 877.81 321.286 858.896C319.662 857.23 317.287 855.813 315.079 855.313C282.625 848.231 251.213 837.899 220.801 824.526C208.678 819.193 196.763 813.361 184.306 807.57C184.723 809.653 185.056 811.403 185.473 813.153C197.846 867.687 212.969 921.512 229.8 974.838C232.591 983.711 234.424 992.918 242.006 999.375C242.173 999.542 242.09 1000 242.131 1000.29H223.134C222.093 998.626 221.259 996.793 220.009 995.335C199.054 970.755 178.016 946.217 157.144 921.554C154.477 918.387 152.436 916.346 147.77 917.846C145.479 918.596 142.063 917.513 139.688 916.305C135.439 914.138 131.022 911.763 127.565 908.514C109.901 891.849 92.4449 874.894 75.0307 857.938C57.3667 840.732 39.4526 823.776 18.8722 810.028C14.9561 807.404 10.5818 805.487 6.41576 803.238C5.9575 803.612 5.45746 803.946 4.99919 804.321C6.54063 809.82 7.58226 815.527 9.66528 820.818C17.2058 840.024 25.2046 859.063 32.7452 878.227C48.4512 918.138 65.3237 957.715 73.1143 1000.25H59.1164C58.6164 997.792 58.2831 995.293 57.5332 992.96C50.1177 969.505 43.5353 945.758 34.9949 922.762C24.2048 893.641 11.8316 865.104 0.124977 836.316C0.124977 820.985 0.124977 805.654 0.124977 790.323C3.04122 790.156 6.24903 789.156 8.79032 790.031C14.4145 791.989 20.247 794.114 24.9546 797.572C38.0777 807.237 51.3258 816.902 63.2824 827.942C84.696 847.731 105.11 868.561 126.023 888.85C129.523 892.266 133.355 895.307 137.022 898.557C97.7773 846.648 60.1995 793.905 31.2454 735.122C20.622 739.955 10.3735 744.663 0.124977 749.329C0.124977 744.329 0.124977 739.33 0.124977 734.331C8.45709 730.331 16.7475 726.332 24.5797 722.583C18.0807 705.127 11.7066 688.213 5.45753 671.257C3.54114 666.008 1.87472 660.633 0.124977 655.301C0.124977 628.305 0.124977 601.309 0.124977 574.312C2.9579 574.937 5.79082 575.521 9.37363 576.312C8.95702 573.896 8.54041 572.313 8.45709 570.73C7.95716 560.981 6.29075 551.066 7.2906 541.442C9.24865 522.237 24.1631 513.446 42.2438 520.32C48.3679 522.653 54.0755 526.32 59.658 529.902C62.3659 531.652 64.074 532.194 67.0736 530.402C79.2384 523.153 92.6114 519.112 106.568 517.154C111.567 516.446 116.65 516.029 122.149 515.446C121.066 513.988 120.399 513.071 119.649 512.155C91.5283 477.077 63.3241 442.04 35.2865 406.879C33.4951 404.629 31.9119 403.587 29.6206 405.379C27.6626 406.92 25.3713 408.67 24.4547 410.836C15.581 432.125 9.16533 454.122 5.0826 476.827C3.20787 487.283 1.70812 497.782 0.0417013 508.281C0.0417013 484.284 0.0417013 460.287 0.0417013 436.291C2.41635 429.667 4.83262 423.043 7.41558 415.919C4.29103 416.919 2.16639 417.585 0.0417013 418.294C0.0417013 413.294 0.0417013 408.295 0.0417013 403.296C3.49953 401.713 6.95732 400.088 10.4151 398.505C19.4555 394.339 21.4136 387.715 15.9144 379.508C10.7068 371.717 5.33259 364.051 0.0417013 356.303C0.0417013 347.304 0.0417013 338.305 0.0417013 329.307C3.87447 331.598 7.45728 334.806 11.6233 335.972C22.0385 338.847 32.7036 340.722 43.2437 343.096C46.3682 343.804 48.3679 342.721 50.4509 340.222C73.0726 313.184 101.235 294.478 135.188 284.688C136.397 284.313 137.605 283.855 139.021 283.313C138.646 282.105 138.355 281.147 138.022 280.23C131.148 260.608 123.982 241.069 120.649 220.406C120.441 219.239 118.358 217.614 117.066 217.531C77.5304 215.281 38.1194 215.073 0 228.321V213.323C6.58237 211.615 13.1231 209.657 19.7888 208.283C51.0342 201.867 82.6129 201.533 114.317 203.2C116.108 203.283 117.858 203.2 119.649 203.2C120.399 199.367 121.066 195.993 121.691 192.702C120.816 192.16 120.274 191.743 119.691 191.451C95.4026 178.912 71.2813 166.247 49.6178 149.333C48.3679 148.333 45.785 148.25 44.1185 148.708C28.3292 153.166 13.3314 159.456 0.0417013 169.288C0.0417013 163.622 0.0417013 157.957 0.0417013 152.291C11.665 146.75 23.3299 141.209 34.8699 135.751C32.9118 132.502 30.4955 129.086 28.7458 125.378C23.5382 114.296 26.1211 103.048 36.2863 96.2988C42.1188 92.4244 48.8678 89.3832 55.6585 87.4668C73.9475 82.3009 92.6115 83.2589 111.192 85.7586C143.812 90.1746 174.599 100.798 204.678 113.671C206.178 114.296 207.72 114.879 209.219 115.463C207.928 113.755 206.303 112.921 204.678 112.088C178.182 98.4234 151.561 85.0504 125.273 71.0108C104.86 60.0957 85.1125 47.9725 67.615 32.5165C57.6165 23.6844 49.1178 13.7691 45.9516 0.312768C50.9509 0.312768 55.9502 0.312768 60.9494 0.312768C63.1158 4.35385 64.6988 8.81146 67.5318 12.3526C77.322 24.6008 90.1535 33.3913 103.235 41.7234C136.938 63.2619 172.808 80.8011 208.636 98.4236C208.969 98.5902 209.386 98.5901 210.511 98.8401C204.512 93.8824 199.054 89.508 193.805 84.967C178.307 71.5523 163.268 57.6378 152.436 39.932C144.646 27.2256 140.771 14.1441 149.978 0.354469C171.975 0.354469 193.972 0.354469 215.968 0.354469C226.384 6.85352 237.549 12.3943 247.047 20.0599C279.917 46.5977 299.165 81.3009 305.747 122.961C306.247 126.128 307.33 127.128 310.413 127.128C334.576 127.003 358.698 127.044 382.861 126.919C387.068 126.919 391.318 126.336 396.359 125.961C394.776 124.253 393.942 123.212 392.984 122.378C378.903 109.88 364.697 97.5487 350.782 84.8839C333.534 69.2195 316.12 53.7217 299.581 37.3074C289.541 27.3089 283.334 15.1439 290.874 0.396043C297.873 0.396043 304.872 0.396043 311.871 0.396043C310.246 1.56254 308.621 2.68736 307.038 3.89552C300.373 9.14475 299.456 13.061 304.039 20.1433C306.788 24.476 309.871 28.8086 313.621 32.2248C346.908 62.4287 380.403 92.4659 413.856 122.462C414.731 123.253 416.272 123.961 417.356 123.836C432.728 121.628 447.976 118.879 461.349 110.255C471.389 103.798 475.889 94.2575 472.973 82.8008C470.681 73.7605 466.557 65.0533 462.599 56.5546C461.141 53.4717 458.1 50.7221 455.142 48.889C444.268 42.14 433.228 35.641 422.063 29.3502C409.482 22.2679 401.65 10.2697 391.859 0.354469H429.854C431.145 0.854396 432.395 1.68759 433.687 1.77091C476.68 3.93727 519.007 11.0612 561.251 19.06C565.667 19.8932 570.125 20.6431 574.666 21.4763C574.374 14.4357 570.958 11.7278 564.917 10.353C552.128 7.43675 539.504 3.77055 526.84 0.396043C546.17 0.396043 565.501 0.396043 584.831 0.396043C588.956 2.22911 593.038 4.02055 597.288 5.89527C597.996 4.22885 598.413 3.52062 598.621 2.77073C598.829 2.02084 598.787 1.18768 598.829 0.354469C604.162 0.354469 609.494 0.354469 614.827 0.354469C613.619 3.31237 612.369 6.27017 611.202 9.10309C639.157 18.8517 666.153 28.3087 694.148 38.099C691.94 33.433 690.316 29.6418 688.358 25.9757C682.9 15.6439 674.568 7.77006 665.778 0.354469H686.774C694.482 9.18652 702.814 18.2685 705.105 29.7251C707.772 43.0149 716.02 47.8475 727.31 52.1386C763.555 65.8866 797.633 84.8005 834.628 96.8404C844.668 100.09 854.5 104.131 864.415 107.797C864.707 107.464 864.999 107.13 865.29 106.797C864.207 105.381 863.29 103.756 861.999 102.631C815.506 61.5537 764.638 27.2256 707.522 2.56248C706.188 1.97923 705.022 1.10427 703.772 0.396043C714.77 0.396043 725.769 0.396043 736.767 0.396043C737.892 1.06261 738.975 1.81255 740.183 2.3958C774.053 19.3933 805.799 39.7653 835.794 62.8869C844.71 69.7609 853.334 76.9682 862.624 84.4254C862.624 82.1341 862.624 80.5511 862.624 78.968C862.957 63.3453 862.874 47.7225 863.79 32.1414C864.165 25.9756 867.54 19.9766 867.998 13.7692C868.373 8.60327 870.164 5.35372 874.372 2.93741C875.33 2.39582 875.955 1.27092 876.747 0.396043C900.077 0.396043 923.407 0.396043 946.737 0.396043C964.109 10.7279 981.523 21.018 998.896 31.3498C999.229 30.9332 999.604 30.5167 999.937 30.1001C998.188 28.0587 996.688 25.684 994.646 23.976C985.106 16.0188 975.357 8.22824 965.734 0.396043C977.732 0.396043 989.73 0.396043 1001.73 0.396043C1005.1 6.72845 1006.94 15.019 1012.1 19.06C1046.81 46.1811 1083.76 69.9692 1123.09 89.9663C1157.25 107.339 1192.53 121.462 1230.82 126.711C1240.15 128.002 1249.61 128.377 1259.9 129.252C1257.02 121.17 1254.52 114.296 1252.11 107.422C1242.57 79.9261 1232.07 52.7218 1226.45 23.976C1226.2 22.6428 1224.36 21.1014 1222.9 20.6015C1216.49 18.3518 1209.91 16.4354 1203.41 14.3941C1188.49 9.72808 1173.62 5.06203 1158.71 0.396043C1174.7 0.396043 1190.7 0.396043 1206.7 0.396043C1213.45 2.64572 1220.2 4.93711 1226.95 7.10347C1227.78 7.35343 1229.03 7.27004 1229.74 6.77011C1235.94 2.68737 1240.74 5.47872 1245.28 9.7281C1247.07 11.4362 1248.86 13.1442 1250.65 14.8523C1250.9 14.6023 1251.15 14.3524 1251.44 14.1024C1249.19 9.51975 1246.94 4.93713 1244.69 0.354469C1251.03 0.354469 1257.36 0.354469 1263.69 0.354469C1268.19 9.06153 1273.11 17.477 1279.56 25.4758C1284.27 16.4355 1288.48 8.39496 1292.69 0.354469L1292.98 0.229492ZM609.369 592.768C608.994 604.808 611.41 615.64 614.618 626.305C623.284 654.967 637.907 680.672 654.613 705.293C656.487 708.043 659.279 710.543 662.153 712.209C691.691 729.29 721.353 746.162 751.015 763.077C752.39 763.868 753.806 764.576 755.223 765.368C766.846 744.663 778.178 724.499 789.385 704.252C790.259 702.669 790.385 700.378 790.093 698.544C788.427 688.004 786.385 677.547 784.76 667.049C784.177 663.133 782.386 661.092 778.803 659.467C734.434 639.22 689.274 620.889 643.364 604.433C632.283 600.475 621.117 596.809 609.411 592.81L609.369 592.768ZM46.6182 398.296C47.6597 399.963 48.1179 400.838 48.7428 401.546C79.03 438.915 109.276 476.327 139.688 513.571C141.063 515.238 143.812 516.404 146.062 516.654C167.934 519.195 188.639 525.611 208.511 534.985C214.635 537.901 220.676 541.026 226.883 544.109C227.05 543.317 227.3 542.859 227.217 542.401C226.384 537.985 225.634 533.568 224.675 529.194C213.01 477.243 194.513 427.542 175.849 377.841C174.599 374.55 172.725 374.217 169.767 374.466C139.688 376.966 109.859 381.091 80.6132 388.589C69.4065 391.464 58.3664 394.922 46.7015 398.296H46.6182ZM473.931 542.525C473.972 542.234 474.181 541.859 474.097 541.609C471.223 535.443 468.14 529.319 465.474 523.07C463.932 519.404 461.516 517.488 457.766 516.071C401.441 495.032 355.156 460.162 317.704 413.419C310.163 404.004 304.122 393.506 303.039 381.132C302.706 377.383 301.331 376.466 297.873 376.258C279.417 375.217 261.003 373.55 242.506 372.925C224.925 372.342 207.303 372.8 188.889 372.8C197.388 396.005 205.47 418.085 213.677 440.624C222.759 435.791 231.883 437.457 240.465 440.665C252.296 445.081 264.045 449.872 275.168 455.788C312.746 475.702 346.074 501.74 378.361 529.194C380.528 531.027 383.861 532.194 386.735 532.485C400.65 533.818 414.648 534.277 428.521 535.86C443.685 537.61 458.725 540.234 473.847 542.484L473.931 542.525ZM757.764 836.774C757.264 835.399 757.264 835.024 757.056 834.816C755.931 833.816 754.806 832.817 753.681 831.9C715.104 800.071 680.234 764.743 650.738 724.249C649.03 721.916 646.614 719.833 644.072 718.458C620.076 705.793 595.996 693.337 571.916 680.839C570.666 680.172 569.292 679.714 568.667 679.464C566.042 695.586 563.459 711.459 560.876 727.332C560.71 728.29 560.626 729.373 560.96 730.248C563.501 737.247 565.501 744.579 568.875 751.162C580.415 773.659 592.455 795.905 604.412 818.152C605.328 819.86 607.036 821.735 608.828 822.318C645.364 834.733 682.734 842.398 721.52 840.565C733.559 839.982 745.558 838.066 757.806 836.691L757.764 836.774ZM1050.47 238.986C1050.8 240.944 1050.89 241.903 1051.1 242.819C1063.3 290.187 1070.8 338.305 1074.43 387.048C1074.68 390.631 1075.88 393.214 1078.84 395.422C1084.47 399.588 1089.67 404.254 1095.3 408.42C1097.63 410.128 1100.42 411.461 1103.21 412.294C1124.59 418.585 1146 424.709 1167.41 430.875C1169.25 431.417 1171.04 431.958 1173.66 432.708C1173.66 429.375 1173.58 426.876 1173.66 424.418C1174.62 392.297 1175.54 360.177 1176.74 328.057C1176.91 323.516 1175.66 320.808 1171.83 318.35C1140.62 297.936 1109.59 277.314 1078.43 256.817C1069.43 250.901 1060.26 245.277 1050.39 239.028L1050.47 238.986ZM221.259 451.497C223.926 456.663 225.592 460.621 227.883 464.12C238.465 480.284 252.171 493.741 266.336 506.656C298.831 536.318 331.785 565.397 364.488 594.809C400.191 626.93 435.103 659.8 466.14 696.545C479.263 712.084 491.886 727.998 501.385 746.121C505.759 754.453 509.176 763.077 508.426 772.825C508.342 773.992 509.175 775.783 510.134 776.45C513.383 778.699 516.883 780.533 520.507 782.657C529.798 770.117 536.13 756.619 541.546 742.621C543.004 738.83 542.712 735.997 540.379 732.539C518.716 700.252 494.469 670.007 469.431 640.303C459.849 628.971 449.351 619.681 435.353 614.473C432.228 613.307 429.312 611.64 426.354 610.141C402.733 598.226 378.611 587.102 357.239 571.23C352.865 567.98 348.699 564.147 345.491 559.815C338.95 550.983 341.575 541.9 351.49 537.234C354.573 535.776 357.906 534.943 362.655 533.277C361.03 532.444 360.156 532.194 359.531 531.652C335.576 511.655 310.829 492.824 284 476.785C267.544 466.953 250.838 457.579 232.008 452.872C229.05 452.122 225.925 452.08 221.134 451.497H221.259ZM538.546 332.139C533.172 323.141 528.298 314.85 523.215 306.727C522.507 305.602 520.549 305.018 519.049 304.602C511.883 302.56 504.176 301.644 497.552 298.436C478.097 288.979 459.1 278.647 439.936 268.69C438.603 267.982 437.019 266.482 435.978 266.816C429.562 268.732 426.938 264.608 424.188 260.191C423.355 258.858 421.897 257.775 420.522 256.9C383.611 233.32 346.699 209.741 309.788 186.202C308.33 185.286 306.788 184.536 306.122 184.161C299.664 203.991 293.374 223.364 286.958 243.111C287.958 243.569 289.749 244.402 291.541 245.152C321.62 257.567 350.49 272.273 378.695 288.479C400.025 300.769 419.647 316.017 442.56 325.515C445.56 326.765 448.893 327.64 452.101 327.807C463.432 328.348 474.764 328.265 486.054 328.848C503.176 329.723 520.257 331.015 538.546 332.181V332.139ZM1022.39 823.693C1006.84 820.138 990.494 812.667 973.358 801.279C972.691 801.988 972.066 802.738 971.358 803.446C964.484 810.695 956.152 809.278 952.527 799.988C951.194 796.613 950.278 792.947 949.945 789.365C948.403 773.45 947.195 757.536 945.695 741.621C945.528 740.038 944.903 737.622 943.779 737.081C938.738 734.789 933.447 733.039 927.948 730.956C927.656 732.748 927.365 733.831 927.281 734.997C923.823 777.325 918.407 819.402 909.867 861.021C908.784 866.312 910.159 869.02 914.158 872.102C936.863 889.6 959.276 907.389 978.149 929.177C978.773 929.886 979.69 930.761 980.523 930.844C990.188 931.969 999.854 932.927 1010.02 934.01C1010.19 896.057 1016.73 860.021 1022.27 823.651L1022.39 823.693ZM1028.47 92.0077C1028.31 93.6741 1028.18 94.3407 1028.22 94.9657C1028.77 112.921 1026.89 130.544 1021.48 147.708C1021.02 149.166 1021.14 151.041 1021.64 152.499C1023.14 156.915 1024.81 161.248 1026.77 165.497C1027.27 166.58 1029.18 167.83 1030.27 167.663C1048.76 164.956 1066.47 168.538 1083.67 174.787C1120.5 188.077 1152.29 209.824 1182.2 234.57C1185.49 237.278 1188.74 240.028 1191.95 242.694C1203.45 230.696 1213.53 229.904 1226.07 239.944C1229.15 242.444 1232.11 245.235 1234.69 248.235C1247.57 263.191 1255.94 280.772 1264.32 298.353C1265.77 301.394 1268.48 304.352 1271.36 306.143C1289.39 317.475 1307.68 328.432 1325.89 339.513C1327.18 340.305 1328.51 340.971 1330.97 342.305C1329.64 340.097 1329.1 339.097 1328.47 338.139C1312.68 313.35 1294.6 290.312 1275.11 268.357C1261.73 253.318 1248.86 237.778 1232.36 225.821C1178.58 186.744 1123.38 149.874 1066.72 115.129C1054.26 107.505 1041.72 99.9648 1028.47 91.966V92.0077ZM660.862 351.053C660.445 349.762 660.195 349.012 659.904 348.262C654.363 334.181 648.864 320.099 643.198 306.06C642.156 303.477 640.823 300.894 639.198 298.644C632.408 289.396 625.575 280.105 618.493 271.107C597.954 244.985 575.583 220.614 550.836 198.45C548.461 196.326 546.295 195.201 542.837 195.951C536.838 197.242 530.672 197.909 524.548 198.492C514.341 199.45 504.135 200.159 493.219 201.034C498.552 207.366 503.635 213.199 508.509 219.239C520.841 234.57 533.047 250.026 540.546 268.44C545.295 280.189 547.795 291.895 536.922 301.811C542.796 312.101 548.378 322.099 554.294 331.931C555.21 333.431 557.585 334.597 559.46 334.889C581.332 338.305 603.245 341.43 625.117 344.846C636.907 346.679 648.655 348.887 660.862 351.012V351.053ZM685.233 156.332C682.442 158.706 679.401 161.081 676.651 163.664C675.901 164.372 675.151 166.33 675.568 166.914C681.609 175.537 684.941 185.911 694.065 192.576C733.726 221.614 772.012 252.401 808.798 285.021C838.961 311.767 868.165 339.555 895.536 369.217C898.077 371.967 901.201 374.175 903.909 376.508C903.868 375.55 903.909 374.133 903.701 372.717C899.452 341.513 895.244 310.351 890.745 279.189C890.411 276.939 888.62 274.273 886.662 273.023C868.54 261.191 850.251 249.651 831.962 238.07C830.004 236.862 827.837 235.82 825.629 235.154C785.677 223.489 749.766 203.783 716.145 179.662C705.73 172.204 695.69 164.247 685.191 156.248L685.233 156.332ZM431.895 843.023C430.77 841.149 430.562 840.69 430.27 840.315C428.896 838.649 427.521 836.941 426.104 835.316C384.152 786.907 337.659 743.33 285.083 706.668C261.753 690.421 236.924 676.339 212.677 661.466C211.302 660.633 208.761 660.383 207.345 661.092C203.97 662.8 200.971 665.216 197.429 667.591C199.221 669.257 200.846 670.632 202.345 672.132C222.218 691.587 242.631 710.543 261.795 730.665C295.165 765.701 325.286 803.446 352.115 843.773C353.198 845.398 355.698 846.898 357.614 846.981C370.904 847.481 384.277 848.231 397.525 847.606C408.732 847.064 419.814 844.732 431.854 843.065L431.895 843.023ZM271.669 238.195C279.251 226.03 288.208 198.367 291.291 179.953C291.874 176.371 291.082 174.537 287.958 172.829C273.085 164.622 258.171 156.498 243.673 147.75C231.216 140.209 218.218 135.793 203.512 137.21C201.387 137.418 199.179 137.043 197.013 137.001C157.519 136.085 118.066 135.876 78.8217 141.376C74.739 141.959 70.6563 142.75 65.2821 143.667C68.3233 145.792 70.0314 147.125 71.8645 148.208C89.3203 158.206 106.859 168.122 124.273 178.203C128.106 180.411 131.564 181.536 135.605 178.662C137.105 177.578 139.355 177.412 141.313 177.079C151.728 175.371 161.518 178.079 171.058 181.703C198.554 192.16 222.384 208.866 246.297 225.655C254.005 231.071 263.253 234.237 271.627 238.32L271.669 238.195ZM659.487 184.411C656.862 190.827 654.113 196.451 652.196 202.408C644.114 227.571 645.197 253.026 650.697 278.439C652.321 285.979 654.071 293.978 657.821 300.561C668.111 318.433 679.609 335.639 690.399 353.22C692.107 356.011 694.023 357.552 697.273 358.136C710.854 360.594 724.436 363.302 738.017 365.843C747.599 367.634 757.181 369.301 767.721 371.175C766.305 367.926 765.305 365.676 764.305 363.427C740.475 309.643 712.854 257.817 683.442 206.866C677.651 196.867 668.736 191.493 659.487 184.411ZM492.72 766.743C493.344 766.243 494.011 765.701 494.636 765.201C492.178 759.827 490.428 753.953 487.095 749.204C475.805 733.164 464.807 716.792 452.184 701.836C419.647 663.341 382.361 629.554 344.95 595.893C312.538 566.689 280.167 537.443 247.797 508.197C241.381 502.406 235.174 496.449 229.466 491.158C229.591 491.783 230.008 493.532 230.425 495.282C234.132 511.322 238.507 527.236 241.298 543.442C242.673 551.358 245.839 556.19 252.421 560.648C289.208 585.644 321.37 616.14 352.99 647.177C381.777 675.381 410.148 704.044 441.935 728.957C458.558 741.996 475.805 754.203 492.761 766.743H492.72ZM999.937 163.83C1001.85 157.706 1007.1 153.332 1003.98 146.25C992.397 120.045 979.398 94.6323 964.192 70.3025C953.569 53.2633 941.237 38.6405 922.032 30.9749C918.366 29.5168 915.033 27.1005 911.45 25.4341C904.243 22.0596 896.869 18.9767 889.662 15.5606C884.996 13.3526 882.538 14.9356 881.371 19.5599C880.288 23.726 878.871 27.8504 878.163 32.0998C874.622 53.3467 876.455 74.5937 878.455 95.8406C878.621 97.5904 880.038 99.4651 881.329 100.798C887.454 106.922 893.578 113.046 900.077 118.754C903.493 121.754 907.492 124.378 911.617 126.211C924.073 131.71 936.78 136.668 949.361 142C966.025 149.083 982.606 156.373 999.979 163.872L999.937 163.83ZM1303.77 493.074C1298.44 459.579 1291.56 427.542 1282.94 395.922C1282.48 394.214 1280.94 392.464 1279.4 391.464C1253.94 374.092 1228.45 356.844 1202.95 339.597C1199.03 336.93 1195.08 334.347 1190.58 331.348C1190.41 333.181 1190.28 334.098 1190.24 335.056C1189.24 367.343 1188.37 399.671 1187.12 431.917C1186.91 436.749 1188.66 438.54 1192.78 440.082C1229.53 453.788 1264.77 470.619 1298.6 490.366C1300.02 491.199 1301.48 491.908 1303.73 493.116L1303.77 493.074ZM779.636 644.302C779.678 643.344 779.844 642.678 779.719 642.094C773.97 617.64 768.263 593.143 762.347 568.73C761.847 566.73 760.056 564.647 758.306 563.439C737.142 548.983 714.354 538.359 688.774 534.693C668.611 531.819 649.114 533.527 631.783 545.483C620.284 553.399 613.577 564.522 610.911 578.229C630.283 585.103 649.28 591.643 668.152 598.642C686.858 605.641 705.48 612.89 723.936 620.473C742.558 628.096 760.931 636.262 779.678 644.302H779.636ZM1306.23 717.916C1259.32 748.162 1228.32 788.531 1215.36 842.065C1206.53 878.518 1207.03 914.596 1219.99 951.508C1262.82 878.268 1291.77 801.529 1306.27 717.916H1306.23ZM883.246 230.363C879.871 208.116 876.872 187.702 873.539 167.33C873.289 165.664 871.164 163.747 869.456 162.997C854.625 156.707 840.002 149.708 824.713 144.708C793.926 134.668 762.347 130.669 730.226 137.376C720.478 139.417 711.021 143 701.439 145.875L701.689 147.541C703.064 148.333 704.439 149.166 705.855 149.958C745.224 172.246 784.677 194.409 823.921 216.948C831.087 221.072 838.252 224.655 846.46 225.738C858.416 227.321 870.414 228.738 883.246 230.363ZM482.429 775.867C481.263 775.033 480.096 774.2 478.888 773.325C468.015 765.618 456.975 758.161 446.31 750.162C407.857 721.208 373.945 687.254 339.659 653.634C311.329 625.847 282.334 598.851 249.963 575.687C248.589 574.688 247.089 573.854 246.464 573.438C244.589 587.019 243.048 600.35 240.798 613.557C240.215 617.056 240.673 618.973 243.173 621.264C280.167 655.467 318.703 687.754 359.864 716.833C386.985 735.956 415.106 753.453 445.81 766.409C457.475 771.325 469.306 775.658 482.429 775.825V775.867ZM363.78 861.604C364.363 862.979 364.572 863.562 364.863 864.104C372.904 878.685 380.903 893.266 389.068 907.806C390.276 909.93 391.776 912.055 393.609 913.68C408.94 927.511 424.105 941.551 439.936 954.841C452.309 965.256 465.599 974.629 481.18 979.795C494.928 984.336 501.468 979.628 500.052 965.297C499.135 955.674 496.802 945.842 493.344 936.801C481.804 906.764 462.641 881.268 443.019 856.147C442.227 855.105 439.602 854.938 437.936 855.188C424.271 857.23 410.732 860.062 397.025 861.396C386.318 862.437 375.445 861.604 363.822 861.604H363.78ZM890.62 385.507C874.205 360.219 725.269 226.863 708.022 221.781C708.646 222.947 709.146 223.947 709.729 224.947C736.517 272.19 761.139 320.516 782.511 370.509C784.01 374.008 786.468 374.592 789.468 374.967C811.756 377.883 834.003 381.049 856.375 383.549C867.498 384.799 878.788 384.882 890.661 385.507H890.62ZM819.13 925.261C819.13 924.012 819.214 923.22 819.13 922.47C817.047 907.472 815.047 892.475 812.756 877.477C812.506 875.852 810.881 874.061 809.382 873.019C798.175 864.937 786.927 856.938 775.47 849.189C773.72 847.981 770.887 847.564 768.721 847.898C761.347 849.064 754.098 851.064 746.682 852.147C707.313 857.938 668.694 853.73 630.491 843.607C625.117 842.19 619.743 840.649 613.66 838.941C617.576 849.189 621.367 858.563 624.617 868.103C625.825 871.603 627.7 872.977 631.074 873.852C679.776 886.767 728.477 899.724 777.095 912.847C791.009 916.596 804.757 920.97 819.089 925.22L819.13 925.261ZM1080.63 82.3009C1080.51 82.5509 1080.34 82.8009 1080.22 83.0925C1081.72 84.134 1083.17 85.217 1084.67 86.2585C1125.96 114.754 1165.83 145.042 1203.62 178.079C1229.9 201.075 1253.86 226.78 1282.94 246.569C1292.6 253.151 1301.48 260.9 1311.68 268.857C1311.1 266.649 1310.93 265.691 1310.6 264.816C1295.89 225.197 1281.19 185.577 1266.56 145.958C1265.48 143.084 1263.98 142.292 1261.07 142.375C1243.15 142.917 1225.53 140.542 1208.07 136.585C1169.58 127.877 1134 111.838 1099.59 92.966C1093.22 89.4665 1086.97 85.842 1080.63 82.2592V82.3009ZM755.64 544.192C753.223 536.568 750.932 529.361 748.557 522.153C748.307 521.445 747.474 520.862 746.807 520.445C739.184 515.446 731.893 509.655 723.769 505.614C682.359 484.951 639.865 466.661 596.621 450.247C595.163 449.706 593.621 449.289 593.33 449.206C590.664 461.079 588.331 472.619 585.331 483.951C584.456 487.367 584.29 490.033 585.414 493.408C589.997 507.281 594.538 521.195 598.246 535.318C600.287 543.025 600.662 551.191 601.87 559.481C602.453 558.773 602.829 558.44 603.037 558.023C613.577 537.86 630.658 526.486 652.488 521.903C677.109 516.737 700.898 520.779 723.936 529.777C734.434 533.86 744.474 539.109 755.598 544.233L755.64 544.192ZM223.467 622.93C222.676 621.472 222.551 621.139 222.342 620.889C193.93 591.227 165.517 561.523 136.98 531.944C135.689 530.569 133.189 529.611 131.314 529.694C122.19 530.069 113.025 530.361 103.985 531.694C93.6529 533.235 83.7378 536.526 74.2392 542.317C91.4033 560.065 104.151 580.228 115.4 601.434C116.025 602.6 117.524 603.475 118.816 604.058C147.437 616.556 176.058 629.054 204.762 641.386C206.053 641.928 208.678 641.719 209.428 640.803C214.385 634.887 219.01 628.638 223.426 622.93H223.467ZM291.916 126.086C291.916 124.795 292.041 123.962 291.916 123.17C284.292 80.2179 263.087 45.8894 226.3 21.9762C210.928 11.9777 194.18 5.02038 175.308 5.35366C159.768 5.64529 154.352 13.8108 161.976 27.4339C167.351 37.0158 174.224 46.0977 181.807 54.1382C208.053 82.0091 239.423 103.298 272.21 122.712C278.626 126.503 285.083 126.003 291.957 126.128L291.916 126.086ZM619.493 155.54C573.999 125.669 529.506 96.4237 483.554 66.2614C493.803 95.9238 484.971 116.254 457.725 128.128C466.015 130.794 473.889 132.835 481.43 135.793C503.343 144.458 522.84 157.332 540.671 172.371C548.295 178.787 554.96 180.245 564.376 177.329C582.831 171.538 601.037 165.372 619.451 155.54H619.493ZM912.158 575.187C914.366 569.772 918.074 565.064 917.866 560.565C915.949 520.82 913.367 481.118 910.825 441.415C910.7 439.707 909.159 437.332 907.617 436.583C901.41 433.416 894.994 430.583 888.537 427.959C886.954 427.334 884.496 427.417 883.038 428.209C861.166 440.624 850.459 459.496 851.834 484.701C853.083 507.572 861.416 528.444 870.956 548.858C871.498 550.024 872.331 551.274 873.372 551.899C885.871 559.481 898.41 566.939 912.158 575.146V575.187ZM1289.77 581.687C1301.85 561.648 1313.68 542.276 1307.52 517.529C1306.43 513.155 1305.06 510.28 1301.1 507.864C1266.06 486.825 1229.53 468.995 1191.41 454.288C1189.95 453.747 1188.45 453.33 1186.53 452.747C1186.03 462.454 1185.41 471.369 1185.33 480.326C1185.33 482.576 1186.58 485.492 1188.24 487.034C1212.24 509.364 1236.49 531.444 1260.52 553.69C1270.27 562.731 1279.73 572.021 1289.77 581.645V581.687ZM1327.6 524.695C1327.1 524.945 1326.56 525.236 1326.06 525.486C1325.47 531.069 1324.18 536.651 1324.43 542.192C1325.47 566.772 1326.93 591.352 1328.43 615.931C1328.6 618.348 1329.64 621.222 1331.26 622.93C1343.85 636.22 1357.26 648.76 1369.26 662.55C1375.55 669.757 1381.42 671.757 1390.17 668.59C1393.17 667.507 1394.05 666.424 1394 663.508C1393.46 636.053 1393.09 608.599 1392.42 581.145C1392.38 578.854 1391 575.979 1389.3 574.396C1380.01 566.064 1370.63 557.773 1360.93 549.983C1350.05 541.276 1338.76 533.11 1327.68 524.695H1327.6ZM511.967 793.822C508.426 791.698 505.634 789.865 502.677 788.406C501.51 787.823 499.677 787.365 498.635 787.865C490.178 791.864 481.388 791.281 472.639 789.531C449.476 784.99 428.521 774.783 408.065 763.493C352.573 732.914 303.664 693.378 256.213 651.843C248.714 645.302 241.423 638.553 234.132 632.012C229.633 638.095 225.384 643.844 220.968 649.802C222.134 650.551 223.342 651.385 224.634 652.093C252.713 667.466 279.584 684.755 305.247 703.919C356.323 742.038 402.441 785.448 443.268 834.4C445.518 837.108 447.393 838.107 450.767 836.441C458.516 832.608 466.598 829.442 474.139 825.276C488.512 817.277 500.802 806.695 511.925 793.864L511.967 793.822ZM299.914 837.899C300.206 837.358 300.498 836.816 300.789 836.274C299.498 834.816 298.206 833.275 296.873 831.858C252.255 784.699 207.595 737.58 162.976 690.421C157.894 685.046 157.852 685.088 152.186 688.713C161.101 721.125 169.933 753.37 178.974 785.532C179.515 787.406 181.557 789.448 183.39 790.323C204.887 800.488 226.175 811.111 248.13 820.193C264.961 827.151 282.625 832.067 299.914 837.899ZM176.724 341.846C178.849 347.262 180.724 352.553 183.015 357.677C183.473 358.719 185.556 359.51 186.931 359.51C191.43 359.552 195.888 359.136 200.387 359.011C234.216 358.219 267.961 359.219 301.623 362.718C303.581 362.927 306.622 362.343 307.58 360.968C314.246 351.886 323.328 346.304 333.493 342.138C336.659 340.847 339.867 339.68 343.491 338.264C342.492 337.472 342.075 337.014 341.533 336.722C312.746 320.433 282.625 307.351 250.505 299.103C247.547 298.353 245.631 298.853 243.423 300.936C228.758 314.767 212.219 325.807 193.972 334.264C188.431 336.847 182.765 339.18 176.683 341.846H176.724ZM95.1944 743.996C95.7777 745.371 96.4442 746.996 97.1941 748.621C111.275 779.866 125.898 810.903 139.23 842.482C146.52 859.729 151.644 877.893 157.852 895.599C159.143 899.224 160.393 903.14 162.726 906.098C171.392 917.054 180.474 927.719 189.472 938.468C196.68 947.05 204.012 955.549 211.302 964.047C207.72 949.633 202.97 935.802 199.221 921.679C188.722 881.768 178.682 841.732 168.225 801.821C167.559 799.28 165.434 796.655 163.226 795.114C153.936 788.656 144.021 783.074 135.022 776.241C121.441 765.909 108.401 754.828 95.1527 744.038L95.1944 743.996ZM1390.67 556.315C1389.21 508.489 1384.8 461.954 1364.05 418.96C1345.59 430.792 1329.51 418.585 1312.31 411.92C1312.64 413.128 1312.81 413.877 1313.06 414.627C1323.64 444.04 1329.56 474.202 1328.43 505.614C1328.35 507.406 1330.1 509.822 1331.68 511.03C1340.72 517.821 1350.14 524.111 1359.13 531.027C1369.67 539.109 1379.84 547.65 1390.67 556.398V556.315ZM1082.59 421.21C1089.55 437.916 1095.92 452.913 1101.96 467.995C1117.25 505.989 1130.83 544.609 1141.92 584.061C1142.37 585.769 1144.08 588.31 1145.37 588.394C1150.96 588.894 1156.58 588.602 1161.95 588.602C1162.41 587.311 1162.7 586.852 1162.75 586.394C1165.37 555.357 1168 524.32 1170.45 493.283C1170.58 491.658 1169.5 489.367 1168.2 488.242C1144.04 467.578 1119.79 446.956 1095.34 426.626C1092.3 424.084 1087.76 423.335 1082.59 421.21ZM1023.77 933.177C1039.06 932.135 1052.72 929.594 1065.72 924.136C1068.09 923.137 1070.68 921.095 1071.8 918.846C1081.8 898.557 1091.42 878.102 1101.3 857.771C1102.71 854.897 1102.21 853.105 1099.84 850.939C1087.88 840.066 1076.18 828.942 1064.18 818.11C1062.97 817.027 1060.43 816.611 1058.76 817.027C1052.47 818.569 1046.39 820.818 1040.1 822.318C1037.22 822.984 1036.39 824.359 1036.02 826.984C1032.56 852.189 1028.72 877.393 1025.56 902.64C1024.31 912.472 1024.35 922.47 1023.77 933.219V933.177ZM317.578 378.216C317.12 378.674 316.62 379.133 316.162 379.591C317.953 384.34 318.912 389.631 321.745 393.714C328.619 403.671 335.618 413.711 343.825 422.543C373.112 454.163 407.19 479.326 446.768 496.782C448.643 497.615 450.559 498.282 453.184 499.323C452.434 497.615 452.101 496.824 451.726 496.115C435.27 464.87 416.647 434.958 397.484 405.295C389.693 393.255 380.778 386.59 366.363 385.382C350.032 384.007 333.868 380.674 317.62 378.216H317.578ZM1176.87 589.477C1204.49 592.602 1230.07 601.059 1254.28 613.807C1255.11 614.265 1256.82 614.307 1257.48 613.765C1265.48 607.141 1273.36 600.35 1282.02 592.935C1249.03 562.147 1217.16 532.36 1184.33 501.74C1181.74 531.902 1179.33 560.356 1176.87 589.477ZM133.481 680.089C130.981 673.34 128.44 667.049 126.315 660.633C123.774 652.926 119.483 646.594 113.9 640.594C104.651 630.679 96.4443 619.764 87.6539 609.391C86.6957 608.224 84.9876 607.474 83.4878 607.058C74.6974 604.516 65.907 602.017 57.0749 599.684C51.8257 598.309 46.4932 597.184 39.8275 595.601C40.4941 605.35 39.8275 614.39 41.9938 622.722C48.9928 649.218 61.5744 673.465 74.4891 697.461C75.9473 700.169 77.7802 700.336 80.6548 699.253C94.0279 694.212 107.526 689.504 120.982 684.671C125.023 683.213 129.023 681.755 133.522 680.131L133.481 680.089ZM870.706 147.458C870.164 143.542 869.956 140.042 869.081 136.751C868.665 135.085 867.373 133.044 865.915 132.294C832.378 115.004 799.3 96.7155 762.68 86.1753C745.308 81.1761 728.143 75.3435 710.229 69.6776C706.105 93.6741 693.482 112.547 677.068 130.211C678.984 131.794 680.817 132.794 682.025 134.335C685.192 138.293 688.108 138.209 692.565 135.835C709.396 126.836 727.56 122.378 746.558 120.92C779.344 118.379 810.881 124.295 841.544 135.543C851.167 139.084 860.541 143.25 870.748 147.416L870.706 147.458ZM621.242 106.881C620.576 105.506 620.326 104.964 620.034 104.423C607.786 82.8842 595.58 61.3455 583.165 39.8903C582.248 38.3072 579.998 36.8907 578.207 36.5574C542.129 30.4333 506.009 24.4342 469.89 18.6017C463.141 17.5185 456.267 17.1852 448.268 16.3937C452.892 21.393 456.35 25.6424 460.349 29.3085C463.807 32.4747 467.515 35.7659 471.723 37.7656C520.091 60.3873 568.542 82.7592 616.993 105.214C618.118 105.756 619.326 106.131 621.284 106.922L621.242 106.881ZM153.061 280.022C154.436 280.022 155.102 280.105 155.727 280.022C181.265 275.814 206.845 276.147 232.133 281.272C240.09 282.896 244.923 281.105 249.172 274.648C253.005 268.774 257.421 263.274 261.378 257.858C221.384 236.57 180.724 220.406 134.98 219.572C138.521 240.444 145.812 260.15 153.061 280.022ZM819.838 515.904C819.838 513.946 819.922 513.613 819.838 513.321C806.965 476.618 794.092 439.874 780.969 403.212C780.386 401.546 777.345 399.755 775.428 399.713C759.972 399.13 744.474 398.838 729.018 398.672C724.602 398.63 720.228 399.296 715.229 399.713C717.478 404.587 719.228 408.878 721.394 412.961C725.269 420.252 728.268 428.459 733.643 434.458C748.224 450.664 763.388 466.37 779.178 481.368C791.842 493.366 805.757 503.989 819.88 515.863L819.838 515.904ZM981.94 483.534C981.607 483.784 981.315 484.034 980.981 484.326C981.773 486.45 982.523 488.575 983.314 490.7C987.605 502.031 990.522 513.613 988.647 525.82C986.106 542.442 975.441 553.316 962.276 562.314C957.568 565.522 950.736 567.897 948.82 572.354C946.737 577.229 949.32 584.02 949.569 590.019C949.694 593.352 951.236 594.976 954.194 596.226C969.067 602.433 983.898 608.807 998.771 615.056C1000.23 615.681 1001.81 616.015 1003.48 616.515C1003.81 615.39 1004.02 614.807 1004.14 614.14C1009.94 584.269 1015.81 554.357 1021.39 524.445C1021.73 522.612 1020.56 519.862 1019.14 518.446C1011.14 510.239 1002.94 502.156 994.605 494.241C990.605 490.45 986.148 487.075 981.94 483.534ZM510.175 288.562C510.467 288.271 510.759 287.938 511.05 287.646C509.884 285.855 508.801 283.98 507.592 282.23C488.637 255.109 469.681 227.946 450.559 200.909C449.351 199.2 446.56 197.951 444.393 197.701C414.731 193.951 385.944 186.494 357.739 176.829C356.198 176.287 354.657 175.829 353.115 175.287C360.447 181.161 368.071 186.161 375.487 191.535C396.984 207.116 417.939 223.238 432.103 246.36C432.937 247.693 434.27 248.943 435.686 249.735C455.892 260.9 476.139 272.065 496.469 282.98C500.802 285.313 505.634 286.688 510.217 288.521L510.175 288.562ZM872.247 704.544C872.956 713.501 873.664 721.541 874.205 729.582C876.622 766.035 877.289 802.446 874.456 838.899C874.331 840.357 874.747 842.565 875.747 843.315C882.329 848.314 889.12 853.022 895.786 857.813C896.286 857.23 896.619 857.021 896.702 856.771C905.201 814.111 910.617 770.992 913.908 727.623C914.033 726.165 912.158 723.916 910.658 723.166C900.41 718 890.037 713.084 879.663 708.126C877.455 707.085 875.247 706.002 872.247 704.544ZM682.234 389.131C678.651 383.007 675.193 376.55 671.193 370.467C669.944 368.551 667.402 366.718 665.194 366.301C645.239 362.552 625.284 359.011 605.286 355.678C591.705 353.428 578.082 351.595 563.876 349.47C564.334 350.97 564.459 351.762 564.751 352.47C570.792 367.426 576.749 382.382 582.915 397.255C583.623 398.921 585.123 400.546 586.664 401.504C592.747 405.254 598.912 408.92 605.286 412.17C607.12 413.086 609.994 413.086 611.952 412.336C619.576 409.545 626.908 405.795 634.657 403.337C650.28 398.338 666.111 393.922 682.234 389.131ZM1002.98 336.764C1005.39 327.223 1004.6 318.308 1002.52 309.559C994.98 278.022 976.816 252.526 955.944 228.613C955.277 227.863 953.652 226.946 953.111 227.238C947.486 230.321 940.404 230.904 937.113 238.07C931.281 250.776 928.114 264.108 926.031 277.814C925.531 281.105 926.573 282.855 929.239 284.73C950.653 299.686 971.941 314.85 993.271 329.932C996.354 332.098 999.437 334.264 1002.98 336.722V336.764ZM1077.47 447.581C1077.43 448.164 1077.3 448.706 1077.3 449.289C1077.8 487.783 1076.55 526.195 1073.34 564.522C1073.22 566.23 1073.55 568.23 1074.34 569.771C1078.88 578.853 1083.68 587.769 1088.22 596.851C1089.38 599.225 1090.67 599.351 1092.92 598.601C1097.8 596.976 1102.76 595.476 1107.75 594.268C1114.67 592.601 1121.63 591.268 1128.84 589.727C1115.42 540.776 1097.92 493.699 1077.43 447.539L1077.47 447.581ZM623.909 422.46C662.695 447.539 701.148 472.369 740.267 497.657C739.767 495.824 739.558 494.741 739.142 493.699C732.143 475.744 725.144 457.788 717.978 439.874C716.937 437.291 715.229 434.958 713.562 432.666C706.938 423.709 700.314 414.752 693.399 406.004C692.232 404.545 689.566 403.129 687.899 403.421C665.861 407.17 644.572 413.586 623.867 422.418L623.909 422.46ZM1365.93 72.2606C1359.76 91.3828 1348.84 106.589 1333.8 118.462C1347.18 143.667 1360.26 168.33 1373.92 194.034C1377.09 186.619 1380.38 180.245 1382.59 173.496C1391.88 145.042 1393.17 115.629 1392.42 86.0502C1392.42 84.7588 1391.17 82.8423 1390.01 82.3424C1382.26 78.8845 1374.38 75.7601 1365.88 72.2606H1365.93ZM512.675 636.137C512.633 635.095 512.717 634.595 512.55 634.179C502.801 609.974 493.053 585.728 483.096 561.606C482.471 560.065 480.096 558.523 478.305 558.232C458.1 554.857 437.894 551.607 417.647 548.566C411.69 547.691 405.649 547.566 398.483 546.983C399.983 548.65 400.483 549.233 401.066 549.816C416.106 564.689 431.812 578.937 445.976 594.601C457.391 607.224 470.015 617.181 485.887 623.43C494.928 627.013 503.51 631.762 512.675 636.178V636.137ZM1177.62 305.31C1178.87 295.103 1179.74 285.48 1181.37 276.023C1182.04 272.148 1181.08 270.398 1177.74 268.69C1134.21 246.36 1090.72 223.864 1047.22 201.45C1044.47 200.034 1041.6 198.826 1037.97 197.118C1039.89 203.45 1041.22 209.074 1043.31 214.448C1044.31 216.99 1046.22 219.697 1048.47 221.156C1089.55 248.11 1130.75 274.898 1171.91 301.686C1173.66 302.852 1175.45 303.935 1177.58 305.268L1177.62 305.31ZM648.447 176.537C643.864 173.288 639.406 170.371 635.24 167.08C632.782 165.122 630.908 165.33 628.117 166.622C614.827 172.746 601.495 178.787 587.956 184.286C580.498 187.327 572.583 189.244 565.834 191.368C588.539 216.24 611.411 241.319 634.199 266.316C630.491 235.445 632.199 204.95 648.405 176.537H648.447ZM926.906 383.674C954.694 379.091 980.232 374.05 998.146 350.345C973.358 332.723 949.236 315.559 925.115 298.394C924.49 298.728 923.823 299.103 923.198 299.436C924.406 327.14 925.615 354.886 926.864 383.674H926.906ZM1437 375.383C1417.5 321.683 1395 269.44 1370.01 218.364C1364.63 220.656 1359.68 222.78 1354.51 224.988C1355.18 227.072 1355.84 229.113 1356.51 231.196C1365.3 258.567 1374.72 285.771 1382.55 313.434C1386.34 326.807 1392.17 337.389 1403.34 345.929C1415.17 354.928 1425.83 365.51 1437.04 375.425L1437 375.383ZM858.708 727.915C857.333 718.208 855.875 708.543 854.625 698.836C854.042 694.378 850.417 693.378 847.293 692.504C846.001 692.129 843.502 694.295 842.252 695.878C832.212 708.501 822.213 721.166 812.465 734.039C811.173 735.747 810.548 738.622 810.798 740.788C813.089 760.452 815.589 780.074 818.172 799.696C818.464 801.946 819.797 804.112 820.672 806.279C822.671 805.112 825.004 804.237 826.671 802.654C848.043 782.407 857.791 757.244 858.708 727.957V727.915ZM406.149 393.547C407.024 395.047 407.565 396.088 408.232 397.005C428.854 426.876 447.393 457.996 464.307 490.158C470.862 502.656 481.166 509.961 495.219 512.072C495.219 512.072 495.553 512.155 495.719 512.113C497.636 511.738 500.843 511.822 501.177 510.863C502.635 506.822 508.009 503.948 504.843 498.448C484.721 463.454 459.766 432.292 431.27 403.754C424.105 396.588 415.648 395.339 406.191 393.547H406.149ZM1109.5 658.342C1109.92 660.592 1110.21 662.383 1110.55 664.174C1116 692.92 1117.63 721.791 1109.63 750.203C1107.34 758.286 1108.46 763.452 1114.42 768.742C1118.75 772.617 1122.29 777.366 1126.17 781.699C1126.71 781.616 1127.21 781.491 1127.75 781.407C1133.83 753.828 1139.62 726.165 1146.17 698.711C1149 686.754 1147.67 675.256 1145.42 663.675C1145.17 662.3 1143.54 660.258 1142.42 660.175C1131.67 659.383 1120.88 658.925 1109.46 658.342H1109.5ZM850.209 536.443C849.376 534.235 848.751 532.902 848.376 531.527C845.002 518.487 840.627 505.614 838.627 492.408C835.211 469.62 840.419 448.664 856.583 431.333C860.166 427.501 864.332 424.168 868.623 420.252C844.96 411.67 821.088 405.712 795.925 402.171C796.842 404.712 797.508 406.587 798.217 408.462C812.714 445.165 825.796 482.368 836.169 520.487C838.253 528.194 842.46 532.902 850.209 536.526V536.443ZM1400.46 812.361C1400.05 812.486 1399.63 812.611 1399.21 812.736C1397 830.4 1394.92 848.106 1392.59 865.728C1388.01 900.557 1383.17 935.343 1378.72 970.172C1377.92 976.337 1378.59 982.711 1378.59 989.002C1392.46 971.546 1403.75 952.716 1408.71 931.344C1415.79 900.89 1413.96 870.103 1407.38 839.649C1405.38 830.442 1402.75 821.402 1400.42 812.32L1400.46 812.361ZM514.591 487.617C525.506 475.827 536.047 464.495 547.17 452.497C540.588 444.165 533.714 435.25 526.59 426.501C525.548 425.251 523.465 424.668 521.757 424.168C500.052 417.835 478.347 411.545 456.642 405.295C455.183 404.879 453.684 404.67 451.017 404.171C475.972 430.292 497.094 457.746 514.633 487.659L514.591 487.617ZM1095.55 747.62C1095.8 747.329 1096.13 747.162 1096.21 746.871C1096.55 745.787 1096.88 744.663 1097.17 743.538C1103.26 716.917 1101.46 690.379 1096.38 663.841C1095.26 657.967 1093.26 655.009 1086.92 654.384C1079.43 653.634 1072.09 651.718 1064.51 650.26C1061.68 669.549 1058.89 688.296 1056.26 707.043C1056.1 708.293 1056.64 710.126 1057.55 711.001C1070.14 723.291 1082.88 735.456 1095.55 747.662V747.62ZM616.826 44.7646L616.035 46.1811C627.658 74.427 645.906 98.0069 667.361 120.004C682.109 104.381 693.357 87.6333 696.523 65.5949C669.652 58.5959 643.239 51.6802 616.785 44.7646H616.826ZM335.284 844.023C333.659 841.565 332.618 839.94 331.493 838.316C309.496 806.487 285.583 776.075 258.879 748.12C235.757 723.957 211.386 700.961 187.473 677.589C186.264 676.381 183.848 675.214 182.473 675.589C179.182 676.506 176.183 678.381 172.725 680.005C173.516 681.005 173.933 681.672 174.475 682.214C185.973 694.004 197.721 705.627 209.011 717.625C246.756 757.828 284.375 798.072 321.828 838.524C325.536 842.523 329.452 843.94 335.326 844.023H335.284ZM1275.73 325.224C1276.19 327.057 1276.31 327.807 1276.52 328.557C1282.48 349.304 1292.02 368.509 1301.93 387.548C1302.52 388.673 1303.31 389.964 1304.35 390.589C1316.89 398.13 1329.35 406.004 1343.89 409.253C1353.51 411.42 1357.22 408.462 1355.47 398.713C1353.89 389.964 1350.68 381.466 1347.68 373.05C1346.76 370.467 1344.43 367.967 1342.1 366.426C1327.97 357.302 1313.68 348.429 1299.39 339.597C1291.81 334.889 1284.19 330.348 1275.69 325.224H1275.73ZM188.181 122.878C188.306 122.295 188.472 121.67 188.597 121.087C172.516 115.921 156.56 110.213 140.313 105.756C118.066 99.6732 95.361 95.5905 72.2394 98.5901C63.6573 99.6733 55.1586 102.673 47.0764 105.881C44.1602 107.047 41.5772 111.172 40.5774 114.463C39.3275 118.546 47.0764 130.044 51.1592 131.627C52.1174 132.002 53.4088 131.752 54.492 131.544C82.4462 125.461 110.775 123.337 139.271 122.92C155.561 122.67 171.85 122.878 188.139 122.878H188.181ZM1057.64 365.968C1054.47 325.349 1047.18 285.688 1037.93 246.277C1034.81 232.946 1029.35 223.197 1016.52 217.864C1012.69 216.281 1009.31 213.573 1004.98 210.949C1004.23 225.488 1005.85 238.361 1010.52 250.901C1013.35 258.525 1016.18 266.149 1018.89 273.856C1021.81 282.147 1024.06 290.729 1027.52 298.769C1035.64 317.725 1044.31 336.43 1052.72 355.261C1054.35 358.844 1056.01 362.427 1057.64 366.01V365.968ZM382.652 344.846C398.817 358.094 414.106 370.675 429.437 383.174C430.77 384.257 432.645 384.84 434.395 385.298C456.891 391.381 479.388 397.38 501.885 403.379C503.01 403.671 504.176 403.879 505.343 404.129C505.801 403.546 506.259 402.962 506.718 402.379C504.218 400.463 501.593 398.672 499.177 396.589C482.346 381.966 465.307 367.551 448.809 352.512C439.769 344.221 430.187 340.346 417.731 342.221C406.274 343.929 394.567 344.013 382.569 344.888L382.652 344.846ZM135.522 871.228C115.9 819.319 91.4866 769.492 67.9067 719.083C59.6579 722.583 52.0341 725.79 44.0353 729.165C69.1566 780.366 101.069 826.526 135.522 871.228ZM438.686 182.745C435.52 174.829 432.895 167.663 429.812 160.706C428.187 157.04 426.146 153.374 423.605 150.333C420.73 146.916 417.231 143.958 413.689 141.251C412.023 140.001 409.607 139.042 407.524 139.084C376.237 139.584 344.991 140.292 313.704 140.959C312.371 140.959 311.08 141.125 309.746 141.167C350.824 161.373 393.401 175.871 438.644 182.703L438.686 182.745ZM161.185 777.283C161.643 777.033 162.101 776.741 162.56 776.491C154.602 748.954 146.645 721.416 138.48 693.253C120.399 699.711 103.318 705.793 85.6541 712.084C107.943 738.289 133.189 759.41 161.185 777.325V777.283ZM1195.53 278.564C1195.08 279.772 1194.66 280.355 1194.62 280.98C1193.49 291.395 1192.33 301.81 1191.53 312.267C1191.41 313.725 1193.03 315.892 1194.45 316.85C1217.32 332.639 1240.28 348.304 1263.23 363.968C1267.23 366.718 1271.31 369.301 1275.4 371.967C1275.73 371.675 1276.11 371.425 1276.44 371.134C1274.56 366.926 1273.31 362.343 1270.77 358.635C1258.19 340.471 1245.11 322.641 1232.49 304.477C1223.32 291.27 1208.28 287.021 1195.58 278.606L1195.53 278.564ZM748.391 777.408C725.686 764.243 703.147 751.204 680.651 738.205C680.401 739.414 680.651 739.997 680.984 740.455C708.397 773.534 739.309 802.988 773.054 829.525C774.22 830.442 776.595 830.859 777.928 830.317C786.385 826.901 794.801 823.276 803.091 819.485C806.799 817.777 807.215 814.319 803.924 812.194C791.259 803.987 778.428 796.03 765.68 788.031C762.263 791.073 759.347 793.822 756.306 796.363C753.098 798.988 749.557 799.238 746.224 796.697C742.85 794.114 742.35 790.614 743.975 786.865C745.266 783.865 746.766 780.907 748.391 777.45V777.408ZM1.7081 588.852C6.99899 633.929 19.7055 675.839 38.1611 716.5C46.2849 713.084 53.8671 709.876 62.1992 706.335C59.6579 701.752 57.5332 697.503 55.0336 693.462C46.0349 678.964 38.8277 663.716 33.3702 647.552C27.2461 629.471 20.8303 611.432 14.4562 593.435C14.0396 592.227 12.8731 590.685 11.7483 590.393C8.74875 589.602 5.62419 589.394 1.7081 588.852ZM887.954 633.346C883.788 639.178 880.538 644.636 876.372 649.302C869.081 657.509 865.29 666.299 869.039 677.297C869.789 679.464 869.289 682.047 870.081 684.172C870.873 686.213 872.164 688.754 873.955 689.671C886.245 695.961 898.66 701.877 911.075 707.876C912.325 708.46 913.658 708.793 915.575 709.459C916.324 694.003 917.074 679.256 917.699 664.508C917.741 663.175 917.074 661.467 916.158 660.55C907.034 651.593 897.785 642.802 887.954 633.387V633.346ZM158.31 333.056C154.019 321.766 149.853 311.267 146.02 300.602C144.729 297.02 142.979 296.811 139.688 297.769C111.984 305.685 88.2787 320.099 68.4066 340.888C67.4484 341.888 66.6153 343.054 65.1155 344.804C97.3191 346.262 127.856 342.43 158.268 333.014L158.31 333.056ZM1045.68 415.336C1045.47 416.502 1045.26 417.127 1045.26 417.752C1045.81 450.164 1042.47 482.201 1037.43 514.155C1037.18 515.821 1038.01 518.029 1039.06 519.487C1045.1 527.653 1051.39 535.61 1057.6 543.65C1058.35 544.609 1059.22 545.483 1060.59 547.025C1060.8 544.859 1060.97 543.567 1061.01 542.317C1061.8 525.695 1063.01 509.072 1063.18 492.449C1063.43 468.994 1062.93 445.54 1062.64 422.043C1062.64 420.585 1061.47 418.169 1060.43 417.877C1055.64 416.711 1050.72 416.127 1045.72 415.336H1045.68ZM988.731 470.494C1000.44 481.076 1012.44 491.95 1024.93 503.24C1025.81 496.865 1026.97 491.033 1027.35 485.117C1028.81 463.204 1029.93 441.29 1031.47 419.418C1031.81 414.378 1029.85 412.628 1025.1 412.544C1021.27 412.461 1017.48 411.586 1013.69 411.586C1012.39 411.586 1010.35 412.919 1009.89 414.127C1002.77 432.75 995.854 451.414 988.731 470.494ZM886.704 947.3C896.577 950.466 906.076 954.049 915.825 956.549C931.739 960.631 947.778 964.381 963.942 967.589C969.108 968.63 975.94 969.297 979.148 964.047C982.356 958.756 977.774 953.715 975.357 948.883C973.524 945.217 970.691 943.425 966.484 942.634C957.527 940.884 948.57 938.801 939.862 936.01C925.156 931.344 910.659 926.011 895.744 920.804C892.87 929.261 889.87 938.009 886.704 947.341V947.3ZM1017.1 621.639C1020.85 622.889 1024.35 623.847 1027.68 625.263C1031.39 626.846 1034.47 626.596 1037.85 624.222C1041.93 621.389 1046.39 619.056 1050.85 616.806C1053.47 615.473 1054.8 613.848 1055.05 610.766C1056.05 598.809 1057.43 586.894 1058.55 574.979C1058.72 573.396 1058.85 571.355 1058.05 570.146C1050.55 558.648 1042.81 547.275 1035.14 535.86L1033.85 536.401C1028.31 564.564 1022.77 592.726 1017.1 621.639ZM595.705 604.558C594.788 605.808 594.413 606.183 594.247 606.599C588.872 618.973 580.707 628.596 567.917 633.845C566.875 634.262 565.959 636.595 566.042 638.011C566.292 644.802 567.167 651.593 567.25 658.425C567.292 661.966 568.625 663.674 571.708 665.216C590.122 674.465 608.411 683.963 626.742 693.379C627.992 694.003 629.283 694.545 631.658 695.628C614.535 666.716 600.371 637.97 595.746 604.6L595.705 604.558ZM587.581 571.105C588.039 547.233 583.206 525.111 574.416 502.864C563.376 515.154 550.128 522.445 534.839 525.945C539.13 536.943 543.046 547.191 547.128 557.315C547.67 558.648 549.045 560.148 550.378 560.565C562.459 564.106 574.583 567.438 587.539 571.063L587.581 571.105ZM1004.64 683.297C1001.73 697.586 998.979 710.543 996.479 723.583C996.188 725.041 996.979 727.207 998.021 728.373C1008.44 739.997 1019.02 751.495 1029.6 762.993C1030.31 763.743 1031.27 764.243 1032.6 765.16C1035.27 748.829 1037.89 733.123 1040.35 717.375C1040.56 716.125 1040.01 714.251 1039.14 713.459C1027.97 703.544 1016.68 693.795 1004.6 683.297H1004.64ZM227.008 606.683C227.55 606.35 228.05 606.016 228.592 605.683C231.674 592.101 231.674 578.354 230.216 564.606C230.05 563.189 228.383 561.523 227.008 560.648C206.928 548.524 185.806 538.943 162.851 533.693C161.226 533.318 159.518 533.11 157.894 532.818C157.644 533.277 157.394 533.735 157.144 534.193C180.432 558.357 203.762 582.478 227.05 606.641L227.008 606.683ZM531.381 184.203C531.464 183.619 531.547 183.036 531.631 182.411C526.131 178.37 520.757 174.204 515.175 170.371C498.51 158.915 481.263 148.5 461.266 143.917C456.683 142.875 451.642 142.625 447.018 143.25C441.935 143.958 441.185 147.583 444.81 151.249C453.725 160.248 463.307 168.622 471.473 178.245C477.597 185.452 484.304 187.577 493.219 186.744C505.926 185.536 518.674 184.994 531.422 184.161L531.381 184.203ZM1024.89 809.278C1026.31 800.946 1027.81 793.114 1028.89 785.24C1029.1 783.782 1027.93 781.824 1026.85 780.616C1018.68 771.617 1010.39 762.702 1002.15 753.786C999.021 750.454 995.854 747.162 992.73 743.829C988.564 758.036 984.523 771.742 980.607 785.49C980.315 786.49 980.69 788.24 981.44 788.948C993.313 800.613 1007.14 808.278 1024.93 809.32L1024.89 809.278ZM1054.89 726.082C1054.3 726.499 1053.72 726.873 1053.1 727.29C1050.39 743.496 1047.6 759.702 1044.97 775.908C1044.76 777.116 1044.89 778.866 1045.64 779.616C1051.64 785.698 1057.85 791.656 1064.09 797.738C1075.84 789.365 1083.8 778.283 1089.63 765.576C1090.09 764.576 1089.76 762.493 1088.97 761.66C1077.68 749.745 1066.26 737.914 1054.89 726.082ZM996.938 410.211C974.857 408.837 954.235 409.087 933.322 412.17C942.07 423.959 950.694 434.916 958.527 446.414C963.151 453.205 970.025 456.58 976.815 462.079C983.606 444.581 990.064 427.917 996.938 410.253V410.211ZM1242.4 623.472C1220.57 612.765 1198.74 605.891 1174.95 603.433C1173.12 617.348 1171.33 630.846 1169.45 644.886C1195.28 642.261 1219.2 636.012 1242.4 623.514V623.472ZM36.6197 385.298C37.0779 385.84 37.5362 386.34 37.9944 386.882C80.1966 371.717 123.982 364.26 169.017 360.594C167.017 355.428 165.309 350.97 163.518 346.346C161.601 346.845 159.977 347.22 158.435 347.679C130.564 355.886 102.11 359.427 73.0727 359.219C66.3653 359.177 58.3664 357.136 53.3255 360.052C47.9096 363.177 45.16 371.05 41.3689 376.925C39.6192 379.633 38.2028 382.507 36.6197 385.34V385.298ZM769.054 536.151L768.013 536.776C769.804 543.15 771.554 549.566 773.512 555.857C773.928 557.148 775.22 558.273 776.345 559.19C800.758 578.229 821.172 600.892 838.003 626.846C838.753 628.013 839.669 629.096 840.419 630.054C845.793 626.847 846.835 622.681 845.251 617.098C843.418 610.557 842.752 603.641 840.919 597.101C840.044 593.976 838.169 590.685 835.753 588.56C828.795 582.395 821.38 576.646 814.048 570.938C799.092 559.273 784.01 547.733 769.012 536.151H769.054ZM816.214 661.633C820.505 655.967 824.463 650.427 828.796 645.219C830.754 642.844 830.587 641.136 829.087 638.678C818.63 621.764 806.34 606.308 792.509 592.06C788.926 588.352 784.969 584.978 780.594 580.895C785.718 604.558 790.551 627.097 795.55 649.635C795.842 650.885 796.925 652.426 798.05 653.009C803.966 656.009 810.007 658.717 816.214 661.633ZM413.731 328.39L414.064 326.932C379.528 310.851 344.949 294.812 309.913 278.522C310.08 279.689 310.038 280.064 310.205 280.23C324.994 296.02 339.659 311.851 354.615 327.473C358.989 332.056 364.28 334.722 371.196 332.764C375.32 331.598 379.736 331.431 384.027 331.014C393.901 330.056 403.816 329.265 413.689 328.39H413.731ZM1352.93 66.7613C1332.06 58.8042 1311.47 51.0136 1289.64 42.6815C1302.52 64.6783 1314.56 85.217 1326.76 106.089C1339.68 95.4655 1348.14 82.759 1352.93 66.7613ZM1185.54 256.192C1184.24 254.817 1183.62 254.026 1182.87 253.401C1158.75 232.237 1133.04 213.407 1104.38 198.826C1086.34 189.618 1067.59 182.453 1047.14 180.911C1044.39 180.703 1041.64 180.911 1038.43 180.911C1087.67 206.116 1136.13 230.946 1185.54 256.234V256.192ZM1075.01 809.112C1085.3 818.694 1096.42 829.025 1108.3 840.065C1112.46 827.442 1116.13 815.736 1120.21 804.196C1121.67 800.113 1121.25 797.197 1118.21 793.989C1112.38 787.781 1106.96 781.157 1102.09 775.533C1092.92 786.865 1084.26 797.655 1075.01 809.07V809.112ZM1352.22 301.769C1351.8 299.436 1351.72 298.436 1351.43 297.519C1344.8 273.815 1338.05 250.151 1331.51 226.447C1330.39 222.405 1328.22 219.822 1324.76 217.281C1318.1 212.407 1312.1 206.616 1306.02 200.992C1303.73 198.867 1301.89 196.201 1299.14 192.91C1299.6 194.576 1299.69 195.034 1299.85 195.493C1310.64 224.822 1321.47 254.151 1332.31 283.438C1332.81 284.813 1333.55 286.271 1334.64 287.188C1340.05 291.812 1345.59 296.311 1352.22 301.769ZM158.144 293.728C162.851 305.852 167.225 317.183 171.641 328.557C193.222 320.308 212.219 309.976 229.55 294.645C205.22 290.52 182.14 289.896 158.144 293.687V293.728ZM478.847 341.721C478.722 342.221 478.638 342.721 478.513 343.18C507.134 358.344 535.755 373.508 564.417 388.673C564.792 388.465 565.126 388.214 565.501 388.006C559.501 375.133 553.586 362.177 547.462 349.387C546.962 348.345 545.17 347.429 543.879 347.304C522.215 345.346 500.51 343.554 478.805 341.721H478.847ZM897.244 229.071C912.658 225.363 929.114 226.905 939.779 212.407C924.407 197.701 907.617 185.244 888.62 173.621C891.578 192.701 894.328 210.366 897.244 229.071ZM575.916 427.501C574.874 422.626 573.833 418.793 573.249 414.919C572.625 410.795 570.583 408.253 566.834 406.254C540.546 392.339 514.341 378.174 488.137 364.093C486.72 363.343 485.221 362.718 483.721 362.01C491.928 370.675 500.635 378.424 508.842 386.632C517.091 394.839 524.798 403.587 532.797 412.044C533.464 412.753 534.339 413.419 535.213 413.711C548.378 418.21 561.626 422.668 575.874 427.459L575.916 427.501ZM549.003 621.347C549.003 620.722 549.253 620.056 549.086 619.473C545.379 604.308 541.754 589.144 537.796 574.021C537.421 572.646 535.13 571.271 533.464 570.813C524.965 568.522 516.383 566.48 507.842 564.439C506.509 564.106 505.093 564.189 503.635 564.064C505.384 591.352 527.965 619.681 549.045 621.347H549.003ZM1429.58 578.27C1429.71 577.021 1429.79 576.687 1429.75 576.396C1421.04 517.529 1408.38 459.496 1393.05 402.046C1392.38 399.63 1389.88 397.672 1388.21 395.547C1387.71 395.839 1387.21 396.13 1386.71 396.422C1386.96 398.338 1387.17 400.296 1387.46 402.213C1389.01 412.086 1390.55 421.96 1392.17 431.792C1395.59 452.455 1396.3 473.577 1404 493.408C1406.04 498.657 1407.46 504.156 1409.09 509.572C1415.88 532.194 1422.58 554.815 1429.58 578.229V578.27ZM1095.17 611.932C1097.96 619.972 1101.13 626.555 1102.46 633.512C1104.01 641.678 1108 644.802 1116.13 644.719C1124.67 644.677 1133.17 645.635 1142.62 646.219C1139.17 631.304 1136 617.64 1132.63 603.017C1119.75 606.058 1107.67 608.933 1095.17 611.89V611.932ZM1407.84 592.518V665.299C1417.83 664.674 1427 664.133 1436.75 663.508C1433 648.427 1428.79 634.054 1426 619.389C1423.75 607.558 1415.46 600.725 1407.79 592.518H1407.84ZM1050.76 646.677C1045.85 645.26 1041.43 643.886 1036.97 642.761C1036.02 642.511 1034.56 642.677 1033.77 643.261C1025.85 649.093 1017.89 654.842 1010.31 661.008C1006.81 663.841 1007.35 667.841 1010.69 670.674C1020.48 678.922 1030.22 687.255 1040.01 695.503C1040.93 696.295 1042.01 696.878 1043.56 697.878C1046.01 680.422 1048.35 663.674 1050.76 646.635V646.677ZM855.5 884.892C856.916 872.894 858.333 861.854 859.374 850.814C859.499 849.689 857.791 848.064 856.541 847.189C846.001 839.899 835.336 832.775 824.713 825.609C823.838 825.026 822.796 824.776 821.547 824.276C821.38 825.401 821.172 826.068 821.255 826.693C822.63 839.274 823.963 851.855 825.463 864.395C825.629 865.687 826.587 867.311 827.671 867.978C836.544 873.477 845.543 878.81 855.542 884.809L855.5 884.892ZM1351.89 694.128C1364.84 713.501 1377.55 732.456 1390.17 751.245C1390.17 751.328 1390.55 750.912 1390.55 750.495C1391.3 737.039 1392.09 723.624 1392.67 710.168C1392.75 708.71 1392 706.835 1391.01 705.752C1386.05 700.169 1380.96 694.67 1375.72 689.337C1374.72 688.296 1372.72 687.213 1371.59 687.546C1364.8 689.546 1358.13 692.004 1351.89 694.128ZM745.099 468.703C749.307 480.576 753.056 491.866 757.348 502.99C758.306 505.489 760.514 508.03 762.847 509.364C783.01 520.654 803.341 531.694 823.63 542.775C825.046 543.525 826.463 544.233 828.046 545.067C827.546 538.484 827.296 538.318 822.796 534.777C807.132 522.362 791.343 510.155 776.053 497.324C765.513 488.45 755.764 478.66 745.099 468.744V468.703ZM642.698 141.292C639.365 133.877 634.782 128.919 627.575 125.628C598.371 112.255 569.458 98.2985 540.421 84.5505C539.255 84.0089 538.005 83.5922 536.797 83.1339C536.713 83.3839 536.63 83.6338 536.547 83.8838C568.5 105.214 600.495 126.544 632.657 148C635.865 145.875 639.157 143.667 642.698 141.292ZM43.4102 581.645C61.1577 586.436 78.3635 591.06 96.4442 595.893C86.5706 578.978 76.2389 563.647 62.5326 550.524C52.9506 559.231 46.6598 569.355 43.4102 581.645ZM554.794 464.037C545.212 474.993 536.255 484.701 527.839 494.907C521.84 502.198 522.09 502.531 527.131 510.364C527.798 511.405 529.798 512.446 530.922 512.238C545.379 509.53 557.377 502.656 566.084 490.575C566.834 489.533 567.417 487.533 566.917 486.575C563.334 479.535 559.46 472.619 554.794 464.037ZM1313.47 654.676C1313.72 645.302 1314.02 636.053 1314.22 626.846C1314.22 626.263 1313.89 625.472 1313.47 625.055C1306.1 617.473 1298.69 609.932 1291.48 602.6C1283.81 609.724 1276.94 616.14 1270.36 622.222C1284.6 632.929 1298.77 643.594 1313.47 654.717V654.676ZM935.53 452.372C938.154 475.743 940.779 498.907 943.404 522.195C944.154 521.903 944.57 521.903 944.695 521.695C951.278 509.947 957.818 498.199 964.276 486.409C964.776 485.492 965.067 483.992 964.651 483.159C958.235 470.119 951.569 457.246 935.488 452.372H935.53ZM951.319 610.557C951.611 614.182 952.153 617.14 952.028 620.056C951.819 624.347 953.61 626.971 957.068 629.471C967.983 637.345 978.607 645.635 989.314 653.718C990.73 654.759 992.188 655.759 995.104 657.8C997.229 648.093 999.062 639.553 1000.9 631.096C984.231 624.18 968.192 617.556 951.319 610.557ZM533.589 790.031C546.003 796.03 558.71 802.154 571.416 808.32C571.708 807.987 572 807.654 572.291 807.32C566.084 789.24 559.835 771.159 553.502 752.745C546.67 765.535 540.296 777.491 533.589 790.031ZM976.149 61.5122C988.355 84.1756 1000.1 105.964 1011.98 127.919C1014.73 113.796 1014.98 99.59 1013.6 85.3421C1013.48 84.2172 1012.56 82.8008 1011.6 82.2175C1000.06 75.3435 988.439 68.6362 976.191 61.5122H976.149ZM529.131 288.771C529.589 288.688 530.047 288.604 530.506 288.521C530.172 285.355 530.464 281.938 529.381 279.022C527.256 273.106 524.882 267.19 521.715 261.733C509.3 240.278 493.053 221.697 476.389 203.533C474.472 201.408 471.181 200.534 468.515 199.117C468.182 199.617 467.848 200.117 467.515 200.617C488.054 229.988 508.592 259.4 529.131 288.771ZM425.271 593.06C424.105 591.727 423.063 590.352 421.813 589.144C408.857 576.687 395.942 564.189 382.861 551.857C376.237 545.608 364.53 545.358 355.865 551.441C375.862 570.771 401.025 581.062 425.271 593.06ZM884.037 141.626C884.746 146.417 884.996 150.083 885.871 153.582C886.245 155.082 887.62 156.79 888.995 157.581C911.658 170.746 932.697 186.119 951.569 204.366C952.611 205.366 953.944 206.033 955.152 206.866C955.485 206.491 955.819 206.116 956.152 205.741C947.695 194.868 939.321 183.953 930.781 173.204C927.573 169.205 924.573 164.539 920.365 161.914C908.95 154.832 896.952 148.749 883.996 141.584L884.037 141.626ZM1322.52 126.711C1317.56 127.711 1319.39 130.127 1320.14 132.169C1328.93 155.707 1337.76 179.203 1346.55 202.742C1349.93 211.824 1351.72 212.49 1360.18 207.366C1361.26 206.699 1362.22 205.824 1363.68 204.7C1349.89 178.62 1336.22 152.749 1322.52 126.753V126.711ZM954.485 926.428C954.86 925.72 955.235 925.053 955.61 924.345C939.154 910.472 922.74 896.641 905.701 882.268C903.535 891.141 901.66 898.682 899.577 907.264C918.074 913.721 936.321 920.054 954.527 926.386L954.485 926.428ZM52.4089 540.776C46.9098 537.901 42.5355 535.11 37.7862 533.318C27.9543 529.569 22.9549 532.485 21.0385 542.775C18.9139 554.19 21.3302 565.272 24.2881 576.187C24.663 577.604 27.121 578.437 29.2457 580.02C33.4951 564.481 40.744 551.982 52.4089 540.776ZM563.876 619.889C575.124 615.598 584.165 601.267 585.581 585.228C575.124 582.186 564.584 579.145 553.627 575.937C557.127 590.977 560.46 605.308 563.876 619.889ZM317.037 307.476L317.912 307.06C303.164 293.103 288.416 279.105 273.46 264.941C267.836 272.648 262.878 279.397 258.254 285.771C278.126 293.103 297.582 300.269 317.037 307.435V307.476ZM927.948 5.60362C936.738 14.8106 944.612 23.1844 952.569 31.3915C953.944 32.808 955.694 33.8496 957.402 34.8494C973.691 44.2647 990.022 53.5967 1006.35 62.9703C1007.39 63.5536 1008.56 63.9701 1009.98 64.595C1009.44 57.0961 1007.39 51.7219 1000.44 48.0558C987.939 41.4317 976.066 33.6829 963.859 26.4756C952.277 19.6433 940.612 12.9775 927.906 5.60362H927.948ZM1139.83 144.875C1103.42 115.504 1065.14 88.8832 1025.14 63.6785C1025.02 70.5942 1026.43 75.0519 1032.56 78.5931C1053.01 90.3414 1073.09 102.798 1093.17 115.254C1108.84 124.961 1124.29 135.001 1139.83 144.875ZM1328.18 639.72C1327.56 649.427 1326.93 657.842 1326.51 666.258C1326.47 667.382 1327.31 668.757 1328.1 669.674C1331.68 673.631 1335.35 677.464 1339.14 681.255C1339.97 682.088 1341.55 683.213 1342.39 682.922C1349.01 680.63 1355.55 678.006 1362.63 675.298C1351.09 663.383 1340.05 651.968 1328.22 639.72H1328.18ZM1008.06 362.343C987.189 386.007 959.193 392.797 930.322 397.797C933.947 397.838 937.488 397.213 941.029 397.13C959.318 396.713 977.649 396.505 995.938 396.047C997.646 396.005 1000.52 394.922 1000.81 393.755C1003.48 383.34 1005.69 372.842 1008.02 362.343H1008.06ZM861.416 780.741C853.334 791.531 844.418 803.487 835.211 815.819C842.918 821.026 851.501 826.776 861.416 833.483V780.741ZM827.587 884.726C829.629 898.224 831.378 910.555 833.378 922.845C834.711 931.01 834.836 930.969 844.502 932.844C847.043 922.262 849.668 911.638 852.042 901.015C852.25 900.098 851.334 898.432 850.501 897.89C843.377 893.641 836.128 889.6 827.587 884.726ZM983.231 666.549C973.733 659.3 964.317 652.135 953.861 644.177C954.486 654.551 955.402 663.425 955.443 672.298C955.443 680.255 961.026 684.38 965.067 689.671C971.275 681.755 977.107 674.34 983.231 666.549ZM1242.78 27.9338C1242.19 28.1837 1241.61 28.4337 1240.99 28.6836C1250.15 56.5962 1259.32 84.5089 1268.48 112.421C1268.9 112.296 1269.36 112.171 1269.77 112.046C1269.77 99.9648 1269.81 87.8833 1269.69 75.8018C1269.69 74.2187 1269.02 72.5106 1268.23 71.1358C1260.9 58.2627 1253.53 45.4728 1246.11 32.683C1245.15 31.0166 1243.86 29.5168 1242.73 27.9753L1242.78 27.9338ZM873.039 858.688C871.456 869.645 869.956 879.935 868.54 890.225C868.456 890.808 869.123 891.849 869.706 892.141C875.205 895.016 880.746 897.765 886.745 900.765C888.87 891.933 890.87 884.059 892.62 876.144C892.87 874.935 892.411 872.936 891.578 872.269C885.704 867.728 879.621 863.437 873.039 858.688ZM972.233 502.115C964.026 515.988 956.36 529.402 948.278 542.525C945.737 546.65 945.903 550.483 946.82 554.815C970.317 545.775 980.398 525.111 972.275 502.115H972.233ZM1127 432.75C1126.88 433.166 1126.71 433.583 1126.59 434.041C1141.33 446.664 1156.12 459.246 1171.54 472.452C1171.83 467.286 1172.04 463.329 1172.29 459.371C1173 447.289 1173.04 447.206 1161.54 443.498C1150.08 439.79 1138.5 436.333 1127 432.75ZM535.463 700.169C535.463 700.169 535.797 700.086 535.963 700.002C530.964 685.63 526.006 671.257 520.84 656.967C520.341 655.551 518.341 654.384 516.799 653.634C508.467 649.468 500.094 645.51 491.72 641.469C490.72 641.011 489.637 640.72 488.262 640.22C504.301 660.55 519.924 680.339 535.505 700.128L535.463 700.169ZM803.633 795.28C801.716 780.157 800.008 766.326 798.133 751.453C789.968 760.744 782.677 769.034 775.178 777.574C784.385 783.324 793.342 788.906 803.633 795.28ZM1132.46 812.32C1128.13 824.609 1124.17 835.858 1120.29 847.148C1119.96 848.189 1120.13 850.022 1120.84 850.689C1124.17 853.772 1127.71 856.563 1132.13 860.229C1135.75 849.397 1139.08 839.69 1142.21 829.942C1142.58 828.734 1142.37 826.901 1141.71 825.818C1138.96 821.485 1135.92 817.36 1132.42 812.32H1132.46ZM322.703 364.843C339.784 367.384 355.781 369.801 373.195 372.425C366.988 364.635 361.655 357.886 356.198 351.22C355.698 350.595 354.365 350.137 353.573 350.345C342.783 353.22 332.118 356.344 322.661 364.843H322.703ZM883.038 914.43C876.83 911.388 871.331 908.764 865.707 906.014C862.957 916.763 860.291 926.97 857.541 937.593C862.832 939.343 867.915 941.009 873.456 942.801C876.788 932.969 879.83 923.887 883.038 914.43ZM1319.97 195.826C1320.47 195.618 1320.97 195.409 1321.43 195.201C1314.02 175.704 1306.6 156.248 1299.1 136.626C1296.89 137.168 1295.44 137.459 1294.02 137.834C1292.64 138.209 1291.27 138.668 1289.39 139.209C1295.44 160.664 1304.89 179.745 1319.93 195.784L1319.97 195.826ZM1203.07 252.526C1217.82 271.107 1235.9 287.354 1245.36 289.729C1239.57 280.397 1234.69 271.482 1228.82 263.358C1224.99 258.067 1220.11 253.317 1214.99 249.235C1209.86 245.152 1206.49 246.527 1203.07 252.526ZM944.57 721.624C944.029 712.709 942.862 703.919 943.196 695.17C943.529 685.963 936.863 682.214 931.322 675.923C930.822 685.463 930.489 693.754 929.906 702.002C928.823 717.083 928.781 717.042 943.237 721.708C943.362 721.749 943.57 721.708 944.57 721.583V721.624ZM531.964 555.815C527.923 546.317 524.507 538.068 520.924 529.902C519.132 525.861 515.341 528.069 512.508 527.778C511.259 527.653 508.967 528.736 508.676 529.694C506.718 535.943 505.176 542.359 503.426 549.024C513.092 551.316 521.757 553.357 532.005 555.773L531.964 555.815ZM1147.17 808.945C1151.5 785.24 1153.08 762.868 1152.33 740.288C1147.29 758.078 1142.58 775.866 1137.96 793.739C1137.67 794.864 1138 796.447 1138.67 797.405C1141.08 800.946 1143.75 804.362 1147.17 808.987V808.945ZM899.452 242.736C900.368 248.735 901.868 254.317 901.91 259.9C901.993 267.357 906.867 269.982 912.117 272.69C914.991 261.441 917.824 250.485 920.699 239.153C913.783 240.319 906.992 241.486 899.452 242.736ZM1143.08 868.728C1150.42 873.685 1157.21 879.226 1166.91 881.476C1165.25 867.436 1159.5 855.98 1153.04 844.023C1149.54 852.772 1146.42 860.437 1143.08 868.728ZM906.034 403.046C906.242 402.504 906.451 401.963 906.617 401.421C904.368 400.671 902.118 399.38 899.827 399.296C890.703 398.88 881.538 399.005 872.414 398.546C862.207 398.088 852.042 397.213 841.835 396.505C855.667 401.213 869.456 405.962 883.246 410.628C884.121 410.92 885.246 411.003 886.12 410.67C892.786 408.17 899.41 405.587 906.034 403.004V403.046ZM807.924 717.583C816.464 706.46 824.505 696.003 832.795 685.171C829.67 683.63 827.212 682.672 824.963 681.255C821.963 679.38 820.339 680.297 818.714 683.13C815.964 687.879 813.256 692.754 809.882 697.003C804.924 703.21 805.174 709.626 807.924 717.542V717.583ZM1124.96 872.352C1121.38 869.436 1117.96 866.645 1114.34 863.687C1107.75 878.268 1101.38 892.433 1095.05 906.556C1107.67 897.432 1117.09 885.809 1124.96 872.352ZM131.022 631.512C130.606 631.846 130.189 632.179 129.773 632.512C131.439 635.845 132.481 639.72 134.939 642.344C142.979 650.968 151.478 659.175 159.935 667.424C160.768 668.215 162.601 668.674 163.684 668.341C166.476 667.466 169.1 666.049 172.891 664.383C158.477 653.051 144.729 642.261 130.981 631.471L131.022 631.512ZM553.377 655.926C552.836 649.468 552.503 644.177 551.836 638.928C551.711 637.928 550.669 636.512 549.711 636.22C541.671 633.512 533.547 631.013 525.381 628.471C527.131 633.221 529.048 638.595 531.131 643.927C531.464 644.761 532.297 645.594 533.089 646.01C539.421 649.177 545.795 652.26 553.336 655.926H553.377ZM929.531 148.541L928.739 150.041C947.903 161.123 967.109 172.204 986.564 183.453C988.48 180.953 990.23 178.62 992.438 175.746C971.108 166.497 950.319 157.498 929.531 148.541ZM1364.59 365.051C1365.09 364.76 1365.55 364.468 1366.05 364.135C1365.84 362.718 1365.76 361.26 1365.43 359.844C1363.59 350.928 1361.01 342.055 1360.01 333.056C1358.84 322.558 1350.26 319.225 1343.85 313.6C1348.51 328.39 1353.51 342.929 1358.88 357.344C1359.97 360.219 1362.63 362.51 1364.59 365.093V365.051ZM1090.67 641.219C1087.59 632.554 1084.92 625.138 1082.3 617.806C1068.09 621.931 1066.01 624.43 1066.72 636.22C1074.13 637.762 1081.72 639.345 1090.67 641.219ZM962.234 742.83C961.818 752.953 964.234 763.035 970.066 773.95C973.524 760.327 976.649 748.079 979.565 736.622C973.983 738.622 968.567 740.58 962.234 742.83ZM756.514 384.798C756.514 384.34 756.473 383.882 756.431 383.465C738.434 380.091 720.478 376.716 701.647 373.175C703.522 376.799 705.147 379.508 706.272 382.424C707.521 385.632 709.521 386.382 712.812 386.007C718.395 385.34 724.061 384.965 729.685 384.882C738.6 384.715 747.557 384.84 756.473 384.84L756.514 384.798ZM1021.06 368.509C1018.98 378.216 1016.93 387.715 1014.81 397.547C1020.27 398.047 1025.1 398.505 1030.6 399.005C1029.77 391.464 1028.72 384.715 1028.35 377.966C1028.1 373.008 1025.35 370.592 1021.1 368.509H1021.06ZM1024.89 947.675C1026.35 951.716 1027.27 955.799 1029.31 959.215C1030.18 960.715 1033.81 962.006 1035.39 961.381C1044.35 957.757 1050.14 950.508 1056.01 942.717C1045.47 944.384 1035.68 945.967 1024.93 947.675H1024.89ZM307.872 165.164L306.663 166.455C307.913 167.705 309.038 169.246 310.496 170.205C334.451 185.536 358.448 200.825 382.486 216.073C383.819 216.948 385.235 217.698 386.61 218.531C362.28 197.784 335.326 181.078 307.913 165.164H307.872ZM852.875 950.758C850.709 955.84 848.126 960.256 847.085 965.005C846.585 967.172 848.584 970.463 850.417 972.296C851.251 973.129 855.167 972.463 856.291 971.213C860.416 966.589 863.957 961.423 868.206 955.84C862.457 953.924 857.958 952.424 852.875 950.758ZM1160.96 602.6H1146.92C1149.75 614.932 1152.5 626.805 1155.29 638.72C1155.58 638.72 1155.87 638.72 1156.16 638.678C1157.75 626.847 1159.29 615.015 1160.96 602.6ZM598.329 435.749C614.785 442.29 631.116 448.789 647.489 455.288C636.782 447.498 625.617 440.665 614.41 433.875C606.953 429.334 605.745 429.5 598.371 435.749H598.329ZM851.917 575.687C851.417 575.979 850.917 576.312 850.417 576.604C851.75 579.645 852.375 583.436 854.583 585.644C859.833 590.893 865.832 595.434 871.789 600.475C874.372 598.351 876.872 596.351 880.205 593.643C870.248 587.311 861.082 581.52 851.917 575.687ZM550.669 699.919C551.128 699.878 551.586 699.836 552.044 699.794C552.586 691.545 553.169 683.338 553.586 675.089C553.669 673.881 553.419 671.923 552.669 671.465C548.42 669.007 543.962 666.924 539.588 664.716C539.379 665.091 539.129 665.466 538.921 665.841C542.837 677.214 546.712 688.546 550.628 699.919H550.669ZM1314.47 605.433C1313.93 593.518 1313.43 582.603 1312.85 570.271C1307.98 578.353 1304.02 584.977 1300.48 590.852C1305.02 595.559 1309.31 600.059 1314.47 605.433ZM788.801 841.69C796.008 846.773 802.716 851.522 810.506 857.021C809.507 848.148 808.674 840.815 807.799 833.108C801.341 836.024 795.467 838.691 788.801 841.69ZM990.772 681.214C990.397 681.005 990.022 680.755 989.605 680.547C984.606 687.379 979.565 694.17 974.441 701.169C977.815 705.127 980.773 708.543 984.439 712.792C986.689 701.502 988.73 691.379 990.772 681.214ZM14.4562 351.72C19.2889 359.052 23.3716 365.218 27.8292 371.967C31.2871 366.509 34.4116 361.635 37.7445 356.386C29.9956 354.844 22.9133 353.428 14.4562 351.72ZM153.269 190.868C153.061 191.327 152.853 191.785 152.644 192.201C170.975 200.658 189.306 209.157 207.636 217.614C207.845 217.156 208.053 216.74 208.261 216.281C190.889 205.7 173.433 195.326 153.269 190.827V190.868ZM162.934 636.762L162.226 637.887C169.6 644.011 176.891 650.177 184.39 656.176C185.223 656.842 187.181 656.842 188.306 656.384C190.472 655.467 192.43 653.968 195.43 652.176C183.931 646.719 173.433 641.719 162.934 636.762ZM871.789 619.098C860.916 627.721 859.708 631.637 864.749 641.719C868.956 635.845 873.039 630.096 877.372 624.055C875.372 622.264 873.706 620.764 871.789 619.056V619.098ZM932.739 629.638C932.322 639.886 929.947 650.176 940.696 657.592C940.237 650.843 939.613 644.469 939.488 638.053C939.404 633.471 936.988 631.263 932.739 629.596V629.638ZM611.827 24.1009L610.494 25.4341C611.536 26.9755 612.327 29.5585 613.702 29.8918C628.783 33.8079 643.906 37.349 659.029 41.0151L659.279 40.182C643.448 34.8078 627.658 29.4752 611.827 24.1009ZM1026.52 207.699C1025.06 203.283 1024.31 200.2 1023.1 197.367C1021.73 194.16 1019.98 191.118 1018.35 187.994C1015.52 190.743 1012.64 193.493 1009.81 196.284C1009.69 196.409 1009.81 196.868 1009.89 197.576C1014.93 200.617 1020.14 203.825 1026.52 207.699ZM990.23 221.197C990.813 215.406 991.438 210.199 991.813 204.95C991.897 204.075 991.105 202.783 990.314 202.242C989.772 201.867 988.314 202.075 987.73 202.575C984.273 205.491 980.94 208.574 977.482 211.657C981.815 214.907 985.773 217.864 990.189 221.156L990.23 221.197ZM1043.35 385.382C1043.72 390.298 1043.89 394.547 1044.43 398.755C1044.56 399.713 1045.81 401.004 1046.76 401.213C1050.6 402.046 1054.55 402.504 1058.55 403.129C1057.1 394.047 1050.18 390.214 1043.35 385.34V385.382ZM574.458 470.369C574.874 470.369 575.249 470.328 575.666 470.286L578.165 448.997C577.707 448.789 577.291 448.581 576.832 448.373C573.208 450.997 569.583 453.58 565.959 456.205C569.042 461.329 571.75 465.87 574.458 470.369ZM829.045 667.799C832.503 669.507 835.586 671.09 838.711 672.507C841.544 673.756 845.126 671.09 844.127 668.132C842.71 663.966 840.502 660.05 838.336 655.342C834.836 660.008 832.087 663.716 829.045 667.799ZM1415 578.854C1411.63 567.147 1408.38 555.982 1405.17 544.775C1404.71 550.732 1405.46 556.523 1405.21 562.231C1404.88 569.771 1408.42 574.646 1415 578.812V578.854ZM887.287 256.609C886.662 252.234 886.37 248.943 885.662 245.777C885.454 244.861 884.037 243.569 883.121 243.527C878.08 243.319 873.039 243.402 866.873 243.402C873.872 247.943 879.996 251.901 887.287 256.609ZM490.345 543.109C491.97 536.651 493.261 531.569 494.636 526.153C490.22 525.361 486.221 524.653 481.221 523.736C484.388 530.485 487.095 536.235 490.303 543.109H490.345ZM957.11 182.453C956.86 182.661 956.61 182.911 956.36 183.119C960.568 188.744 964.817 194.409 969.233 200.325C971.858 197.951 973.983 196.034 976.441 193.784C969.608 189.785 963.359 186.119 957.11 182.411V182.453ZM1305.1 282.063C1312.72 292.02 1319.43 300.769 1326.22 309.601C1325.26 296.311 1316.31 289.146 1305.1 282.063ZM1285.98 125.42C1288.69 124.753 1290.69 124.253 1293.23 123.628C1290.27 117.087 1287.56 111.047 1284.85 105.006C1284.4 105.131 1283.98 105.214 1283.52 105.339C1284.31 111.88 1285.1 118.421 1285.94 125.42H1285.98ZM793.676 724.874C788.885 733.581 784.51 741.455 780.136 749.37C784.677 745.496 788.177 740.872 792.176 736.747C795.384 733.373 795.842 729.957 793.676 724.874ZM845.251 551.357C847.959 560.148 856.875 561.023 862.874 565.564C859.874 557.315 851.334 555.815 845.251 551.357ZM292.707 159.373C293.124 158.748 293.54 158.123 293.957 157.498C282.75 150.791 271.127 144.792 258.837 140.001C270.127 146.458 281.417 152.916 292.707 159.373ZM1049.93 805.571C1047.14 802.363 1044.56 799.363 1041.43 795.78C1040.68 800.404 1040.1 804.154 1039.39 808.695C1043.76 807.404 1047.18 806.404 1049.93 805.571ZM1385.17 378.008L1386.59 377.341C1383.67 367.009 1380.76 356.677 1377.84 346.346C1378.8 355.636 1380.46 364.718 1382.38 373.758C1382.71 375.3 1384.21 376.591 1385.13 378.008H1385.17ZM917.949 628.013C921.448 617.39 913.116 616.098 907.576 612.765C910.908 617.639 914.2 622.556 917.949 628.013ZM558.293 444.581C560.876 442.623 563.001 440.999 565.834 438.874C560.418 437.041 556.085 435.541 550.419 433.625C553.544 437.957 555.71 440.999 558.293 444.581ZM808.507 673.381C805.341 671.965 802.633 670.798 799.216 669.257C800.175 674.34 800.966 678.339 801.924 683.505C804.549 679.464 806.382 676.631 808.507 673.381ZM909.076 307.018C910.867 288.563 912.158 287.979 906.076 286.938C907.076 293.687 908.076 300.353 909.076 307.018ZM656.029 164.705C656.362 164.372 656.696 163.997 657.029 163.664C654.863 160.206 652.738 156.748 650.405 152.957C648.405 154.332 646.739 155.457 644.697 156.873C648.863 159.748 652.446 162.247 656.071 164.705H656.029ZM1069.47 607.558C1072.18 606.391 1074.18 605.516 1076.55 604.475C1074.76 600.85 1073.22 597.767 1071.68 594.685C1071.34 594.81 1070.97 594.893 1070.64 595.018C1070.26 598.934 1069.89 602.808 1069.43 607.558H1069.47ZM134.064 204.533C138.98 205.075 143.229 205.574 147.52 206.033L147.853 205.2C143.687 203.158 139.48 201.117 134.772 198.867C134.48 201.117 134.314 202.533 134.105 204.533H134.064ZM937.071 614.515C937.988 605.683 937.155 603.225 932.864 602.517C933.322 606.849 930.531 612.099 937.071 614.515ZM667.027 153.457C668.902 151.749 670.485 150.333 672.61 148.375C668.944 146.542 665.819 145 662.695 143.417C662.362 143.792 662.028 144.167 661.653 144.542C663.32 147.291 664.944 149.999 666.986 153.415L667.027 153.457ZM596.371 25.7673C597.204 19.06 596.871 18.6851 589.289 18.0602C590.664 21.643 590.705 26.2256 596.371 25.7673ZM885.329 575.646C889.37 584.936 892.036 586.352 896.661 582.145C893.161 580.145 889.745 578.187 885.329 575.646ZM388.318 367.259C390.776 372.425 392.901 378.299 401.108 377.216C396.484 373.633 392.401 370.425 388.318 367.259ZM917.824 601.684C918.407 601.434 918.949 601.142 919.532 600.892L916.824 593.268C915.366 594.685 913.908 596.143 912.158 597.851C914.616 599.517 916.241 600.6 917.824 601.684ZM833.253 568.313C833.628 567.897 834.003 567.522 834.42 567.105C831.587 561.689 825.504 560.648 820.463 558.19C824.713 561.564 829.004 564.939 833.253 568.313ZM342.325 860.479C345.241 863.02 348.157 865.562 350.615 867.686C348.366 865.395 348.282 860.271 342.325 860.479Z" fill="#302571"/>
<path d="M1425.96 1000.08C1428.92 982.92 1432.29 965.798 1434.67 948.592C1436.71 933.802 1437.63 918.846 1439.08 903.973C1439.25 902.349 1439.67 900.724 1440 899.141V1000.13H1426L1425.96 1000.08Z" fill="#302571"/>
<path d="M0.167969 984.086C6.83366 989.419 13.4993 994.752 20.165 1000.08H0.167969C0.167969 994.752 0.167969 989.419 0.167969 984.086Z" fill="#302571"/>
</svg>
