<svg width="1440" height="1001" viewBox="0 0 1440 1001" fill="none" xmlns="http://www.w3.org/2000/svg">
<path d="M831.795 1000.02H797.8C799.55 996.813 796.592 996.521 794.925 995.647C764.18 978.774 733.434 961.985 702.689 945.196C701.481 944.529 700.189 943.987 698.148 942.988C699.023 945.82 699.648 947.862 700.231 949.862C705.105 966.568 709.938 983.315 714.812 1000.02H700.814C694.273 978.899 687.816 957.777 681.025 936.738C680.234 934.239 677.942 931.573 675.651 930.239C655.446 918.658 635.115 907.41 614.785 896.036C612.077 894.495 609.327 892.995 606.328 891.37C605.62 893.12 605.078 894.495 604.536 895.869C594.58 922.657 584.623 949.445 574.666 976.233C571.708 984.148 568.792 992.064 565.876 999.979H550.878C551.253 998.563 551.503 997.063 552.044 995.73C562.459 968.359 572.916 941.03 583.29 913.659C586.956 903.91 590.414 894.078 593.955 884.205C581.082 876.747 568.75 869.498 556.293 862.541C554.71 861.666 552.086 861.958 550.211 862.541C460.433 889.454 369.529 911.909 278.126 932.448C270.752 934.114 263.378 935.614 256.046 937.155C267.544 958.485 278.751 979.274 289.957 1000.06H273.96C273.793 999.438 273.71 998.771 273.377 998.188C263.128 979.732 252.838 961.318 242.673 942.863C241.381 940.571 239.965 940.196 237.424 940.655C212.219 944.987 186.973 949.237 161.726 953.32C158.227 953.903 157.019 955.153 157.06 958.694C157.185 972.483 157.019 986.273 156.977 1000.06H143.979C143.437 985.523 142.896 970.983 142.354 956.236C141.104 956.319 139.604 956.361 138.146 956.486C101.027 959.818 63.949 963.193 26.8294 966.443C17.9141 967.234 8.95702 967.567 0 968.067C0 963.401 0 958.735 0 954.069C7.83219 953.653 15.6644 953.486 23.4549 952.778C62.4076 949.32 101.36 945.654 140.354 942.238C143.521 941.946 144.354 940.696 144.77 937.697C149.853 901.452 154.977 865.166 160.393 828.963C161.06 824.505 160.143 821.505 157.394 818.214C122.69 776.928 83.696 740.392 39.2442 709.772C26.3711 700.898 13.0814 692.691 0 684.15C0 679.151 0 674.152 0 669.153C1.04151 669.527 2.20805 669.777 3.16624 670.361C55.8669 701.106 103.485 738.184 144.812 783.178C151.311 790.218 157.685 797.384 164.684 805.049C166.684 794.551 168.392 784.761 170.35 775.012C178.849 732.768 187.472 690.566 195.971 648.322C196.263 646.822 196.471 644.281 195.763 643.823C188.889 639.657 183.182 633.283 174.474 632.45C128.065 628.034 81.6963 623.576 35.2864 619.202C23.5381 618.077 11.79 617.16 0.0417013 616.16C0.0417013 611.827 0.0417013 607.495 0.0417013 603.162C1.54148 603.12 3.04129 602.87 4.49941 602.995C32.5786 605.12 60.616 607.162 88.6536 609.536C109.692 611.328 130.689 613.536 152.436 615.66C151.394 614.744 150.853 614.202 150.228 613.744C122.69 594.705 95.1943 575.666 67.5733 556.794C65.8236 555.586 62.7825 555.086 60.6995 555.627C40.4524 560.96 20.2471 566.626 0.0417013 572.167C0.0417013 567.167 0.0417013 562.168 0.0417013 557.169C16.331 552.794 32.6202 548.378 49.6593 543.796C39.2858 535.964 29.5373 528.548 19.7471 521.132C13.1647 516.133 6.58237 511.176 0 506.176C0 499.844 0 493.511 0 487.179C21.5385 503.927 43.0769 520.716 64.7404 537.297C66.3652 538.546 69.3648 538.796 71.5311 538.38C110.442 531.006 149.27 523.382 188.181 515.966C197.429 514.217 206.761 513.05 217.218 511.467C214.302 509.301 212.344 507.843 210.428 506.385C175.683 480.055 140.563 454.184 106.318 427.188C75.9473 403.275 47.3264 377.278 22.6217 347.324C17.0391 340.534 11.9148 333.41 6.62389 326.452C4.2909 327.411 2.12469 328.327 0 329.202C0 308.872 0 288.541 0 268.211C5.9158 264.337 11.7898 260.504 18.1222 256.379C11.9565 255.629 5.99912 254.921 0 254.213C0 249.214 0 244.214 0 239.215C0.458266 239.423 0.874943 239.715 1.37487 239.798C46.4933 246.714 91.0282 256.463 135.272 267.586C137.313 268.086 139.605 268.169 141.646 267.753C196.18 257.004 250.963 258.046 305.788 264.711C323.453 266.878 340.992 270.211 358.573 272.835C360.322 273.085 362.239 272.21 364.113 271.877C364.03 271.294 363.988 270.669 363.905 270.086C357.031 269.169 350.116 268.253 343.242 267.378C282.125 259.712 221.051 251.505 160.643 239.132C129.814 232.799 99.1938 225.55 70.0731 213.261C58.5331 208.386 47.4098 202.762 38.3278 193.805C26.7461 182.39 25.0381 168.6 33.6618 154.811C35.3282 152.144 37.2029 149.561 39.3276 147.228C51.9924 133.022 68.0317 123.524 84.9043 115.4C128.565 94.3196 175.349 84.2376 222.926 77.197C273.293 69.7397 323.994 67.1568 374.862 67.1152C376.237 67.1152 377.612 66.9068 380.236 66.6985C377.32 64.8655 375.528 63.7407 373.695 62.6159C348.824 47.4931 323.869 32.4535 299.081 17.1224C290.499 11.8315 282.375 5.83239 274.043 0.166551C282.375 0.166551 290.707 0.166551 299.039 0.166551C301.331 1.79131 303.497 3.54107 305.872 4.9992C338.284 24.7463 370.612 44.5351 403.191 63.9906C406.815 66.157 411.44 67.4069 415.731 67.6985C448.601 69.9065 481.513 71.7396 514.383 73.781C521.674 74.2393 528.923 75.0306 536.172 75.6555C536.338 75.1973 536.505 74.7392 536.63 74.2809C519.341 62.491 502.385 50.1593 484.637 39.036C463.099 25.5379 440.894 13.0398 418.98 0.124977C428.646 0.124977 438.311 0.124977 447.976 0.124977C483.846 20.872 518.382 43.6185 551.461 68.6149C553.836 70.4063 555.127 69.6149 557.002 68.1151C568.792 58.6165 580.373 48.8679 592.538 39.8692C610.827 26.3295 629.491 13.3313 647.988 0.0832754C657.987 0.0832754 667.986 0.0832754 677.984 0.0832754C703.189 24.4964 728.435 48.8677 753.681 73.2809C753.848 73.4475 754.265 73.2809 755.223 73.2809C755.806 48.8677 756.389 24.4964 756.973 0.0832754C761.305 0.0832754 765.638 0.0832754 769.971 0.0832754C770.137 1.20811 770.429 2.37464 770.387 3.49948C769.804 29.954 769.304 56.4085 768.512 82.863C768.387 86.5291 769.221 89.0286 771.887 91.5699C780.302 99.6521 788.301 108.109 796.675 116.191C798.466 117.941 801.049 119.233 803.507 119.816C846.168 130.148 888.87 140.396 931.572 150.603C935.03 151.436 938.529 152.27 942.362 153.186C942.362 151.561 942.445 150.603 942.362 149.645C939.779 123.315 937.113 96.9859 934.572 70.6148C932.28 47.0765 930.114 23.5798 927.906 0.0415741C932.572 0.0415741 937.238 0.0415741 941.904 0.0415741C941.904 1.37471 941.904 2.70794 941.987 4.04108C943.987 24.913 946.028 45.785 948.07 66.657C950.903 95.4861 953.86 124.315 956.61 153.144C956.902 156.061 957.902 157.394 960.859 158.144C1023.77 174.641 1086.67 191.222 1149.58 207.803C1155.79 209.428 1162.04 210.969 1169.12 212.719C1167.87 210.219 1167.12 208.595 1166.25 207.053C1131.17 144.854 1096.09 82.6962 1061.01 20.4969C1057.18 13.7063 1053.55 6.83234 1049.85 0C1055.18 0 1060.51 0 1065.84 0C1066.76 1.91639 1067.59 3.91612 1068.64 5.74918C1107.71 75.2391 1146.75 144.729 1185.95 214.177C1187.03 216.093 1189.33 217.968 1191.41 218.51C1247.98 233.049 1304.77 246.714 1362.38 256.671C1369.76 257.921 1377.17 258.879 1385.76 260.171C1384.3 258.254 1383.76 257.462 1383.13 256.713C1344.8 211.261 1307.02 165.393 1267.98 120.524C1242.11 90.7784 1214.57 62.4076 1187.62 33.6201C1176.95 22.2051 1165.79 11.2066 1154.83 0.0415741C1161.5 0.0415741 1168.16 0.0415741 1174.83 0.0415741C1175.99 1.45803 1177.04 2.91616 1178.29 4.20763C1191.2 17.4557 1204.32 30.4955 1217.03 43.9102C1270.94 100.944 1322.31 160.268 1372.09 220.968C1379.67 230.216 1387.17 239.507 1395.17 249.38C1401.3 240.173 1407.21 231.549 1412.79 222.759C1421.92 208.261 1430.79 193.638 1439.79 179.057V206.053C1428.67 223.134 1417.58 240.257 1406.46 257.338C1403.63 261.67 1403.92 262.545 1409.13 263.087C1419.33 264.17 1429.58 265.086 1439.83 266.045V280.042C1432.87 279.418 1425.92 278.793 1417.71 278.085C1425.67 288.458 1432.75 297.748 1439.83 307.039V330.035C1438.54 328.619 1437.08 327.286 1435.96 325.744C1424.21 310.205 1412.54 294.624 1400.8 279.084C1397.25 274.418 1394.71 274.21 1391.8 278.209C1358.55 323.786 1321.18 365.78 1281.19 405.483C1278.69 407.982 1278.1 410.315 1280.1 412.815C1281.56 414.606 1283.65 416.231 1285.77 417.064C1320.77 430.479 1355.26 444.977 1388.34 462.599C1405.79 471.89 1422.71 482.18 1439.87 492.012V509.009C1392.84 477.639 1342.01 453.85 1288.56 433.145C1289.31 435.27 1289.6 436.186 1289.98 437.103C1312.02 492.262 1331.93 548.129 1349.34 604.912C1350.59 608.953 1352.43 611.036 1356.72 612.244C1384.51 620.243 1412.17 628.659 1439.87 636.949V649.947C1412.25 642.24 1384.59 634.532 1356.34 626.617C1356.84 628.783 1357.13 630.2 1357.55 631.575C1383.84 721.062 1405.34 811.673 1419.38 903.952C1424.21 935.697 1428.87 967.526 1426.87 999.854H1412.88C1413.08 993.522 1414 987.148 1413.42 980.899C1411.04 955.528 1409.17 930.073 1405.34 904.91C1391.05 810.59 1368.76 718.104 1341.6 626.7C1340.6 623.326 1339.1 621.493 1335.43 620.66C1289.06 609.911 1242.73 598.913 1196.41 588.123C1188.12 586.206 1179.66 584.79 1170.25 582.915C1171.54 585.04 1172.25 586.165 1172.91 587.248C1188.87 613.786 1205.07 640.198 1220.7 666.944C1272.86 756.431 1321.22 848.001 1369.97 939.363C1380.84 959.735 1392.59 979.649 1403.92 999.771H1387.92C1385.21 995.355 1382.3 991.106 1379.88 986.565C1350.14 931.281 1320.56 875.914 1290.73 820.714C1247.32 740.434 1202.82 660.779 1154.25 583.457C1152.29 580.374 1150.08 578.749 1146.5 578.124C1130.08 575.208 1113.8 571.917 1097.34 569.209C1094.63 568.751 1091.05 569.75 1088.8 571.375C1067.8 586.706 1047.06 602.329 1026.18 617.785C1019.64 622.618 1012.98 627.284 1006.35 632.075C1006.85 633.324 1007.19 634.283 1007.6 635.158C1020.56 663.445 1033.52 691.733 1046.56 720.02C1047.51 722.103 1048.76 724.145 1050.1 726.019C1064.18 746.433 1078.72 766.555 1092.34 787.302C1125.59 838.003 1154.33 891.078 1174.49 948.445C1180.37 965.193 1184.24 982.607 1189.03 999.729H1172.04C1155.29 984.107 1136.83 970.65 1118.29 957.111C1118.88 971.65 1119.46 985.69 1120.04 999.729H1108.05C1106.34 984.023 1104.55 968.317 1103.01 952.611C1102.51 947.57 1100.42 944.279 1096.17 941.363C1033.14 898.578 967.775 859.708 899.243 826.38C897.785 825.671 896.286 825.047 894.411 824.172C876.247 874.914 855.208 923.907 830.253 971.067C840.419 980.815 850.25 990.272 860.124 999.729H840.127C834.628 994.563 829.17 989.356 823.296 983.815C821.63 986.773 820.297 989.189 818.88 991.647C823.546 994.48 827.837 997.105 832.128 999.729L831.795 1000.02ZM484.262 132.439C482.179 130.939 481.554 130.398 480.846 129.939C456.391 114.4 431.978 98.7774 407.44 83.4046C405.232 82.0298 402.15 81.4464 399.442 81.4047C342.575 80.2382 285.875 82.2796 229.466 90.2785C189.181 95.986 149.395 103.943 111.359 118.941C90.0701 127.315 69.4482 137.063 52.6173 153.186C37.5779 167.601 38.3276 179.391 56.075 190.056C66.8234 196.513 78.4885 201.804 90.3618 206.012C132.897 221.051 177.182 229.175 221.593 235.966C270.127 243.381 318.87 249.505 367.488 256.463C372.57 257.213 375.153 255.796 378.111 251.838C402.316 219.343 427.896 188.014 456.433 159.185C465.307 150.228 474.639 141.646 484.221 132.439H484.262ZM209.094 653.78C209.094 653.78 208.886 654.238 208.803 654.738C198.096 708.605 187.389 762.472 176.849 816.381C176.516 818.173 177.349 820.672 178.515 822.172C203.387 853.126 224.925 886.413 245.339 920.408C247.214 923.532 249.005 924.24 252.505 923.532C332.243 906.993 411.065 886.829 489.595 865.457C505.301 861.208 520.882 856.5 536.13 852.126C427.146 786.01 318.203 719.937 209.094 653.738V653.78ZM958.651 172.058C958.651 173.725 958.61 174.516 958.651 175.349C961.359 216.552 964.026 257.754 966.859 298.957C967.025 301.248 968.233 303.747 969.691 305.539C976.732 314.412 983.814 323.245 991.313 331.743C993.438 334.118 996.687 336.284 999.77 336.909C1060.26 349.407 1120.25 363.905 1179.37 381.778C1204.82 389.485 1230.07 398.025 1255.4 406.191C1257.61 406.899 1260.44 408.815 1261.02 404.608C1261.19 403.316 1260.07 401.816 1259.48 400.442C1235.15 343.867 1208.53 288.375 1180.24 233.674C1178.58 230.425 1176.2 229.217 1173.04 228.383C1121.21 214.76 1069.43 201.096 1017.64 187.431C998.187 182.307 978.732 177.266 958.651 172.058ZM662.403 717.812C663.07 718.104 663.82 718.437 664.57 718.729C700.398 731.227 736.184 743.767 772.054 756.056C774.178 756.765 777.261 756.14 779.386 755.057C827.462 730.519 873.914 703.106 919.24 673.818C921.282 672.485 922.99 669.611 923.49 667.153C926.989 650.03 929.989 632.824 933.405 615.66C934.197 611.786 933.28 609.078 930.447 606.37C918.49 594.788 906.742 582.957 894.786 571.375C888.87 565.626 882.663 560.168 876.955 554.919C876.955 561.918 877.247 568.751 876.913 575.5C875.83 595.872 863.749 607.245 843.418 607.245C830.587 607.245 818.422 603.829 806.424 599.663C772.679 587.831 741.266 571.042 709.896 554.169C708.188 553.253 706.438 552.419 704.938 551.67C690.732 607.161 676.651 662.279 662.403 717.812ZM336.367 338.284C348.116 343.658 359.281 348.699 370.404 353.865C452.184 391.776 531.006 435.27 608.703 480.805C624.409 490.012 639.865 497.719 658.529 496.261C659.529 496.178 660.528 496.428 661.528 496.511C674.776 497.469 688.024 498.386 701.481 499.344C701.897 498.052 702.272 497.178 702.439 496.219C706.563 476.181 710.604 456.1 714.854 436.061C715.645 432.395 713.687 431.104 711.187 429.521C654.654 394.026 595.371 363.989 533.38 339.242C481.513 318.537 428.354 301.998 373.779 290.083C370.029 289.25 367.655 289.541 365.613 293.166C362.905 297.915 359.489 302.289 356.49 306.872C349.824 317.204 343.283 327.536 336.409 338.284H336.367ZM438.852 505.676C439.602 507.676 439.644 508.051 439.852 508.259C444.435 513.342 449.059 518.341 453.6 523.424C500.552 576.083 543.337 631.908 581.04 691.608C582.29 693.566 584.873 695.232 587.164 695.94C603.745 700.856 620.409 705.481 637.032 710.23C640.656 711.271 644.281 712.396 648.072 713.521C648.53 712.271 648.905 711.521 649.072 710.73C662.986 656.446 676.859 602.121 690.816 547.837C691.607 544.712 690.524 543.421 687.983 542.004C669.444 531.547 650.988 520.883 632.449 510.426C630.366 509.259 627.783 508.426 625.408 508.384C575.124 507.384 524.881 506.51 474.597 505.718C462.974 505.551 451.351 505.718 438.811 505.718L438.852 505.676ZM290.041 388.735C289.583 388.36 288.374 387.277 287.041 386.319C268.211 372.821 249.672 358.948 230.508 345.991C197.471 323.661 162.685 304.372 125.815 289C121.941 287.375 118.358 286.791 114.275 288.083C89.9035 295.915 65.407 303.456 41.0356 311.371C33.8283 313.746 26.9127 317.079 19.5388 320.12C21.1636 322.453 22.3717 324.203 23.6215 325.952C40.244 348.907 60.2411 368.696 81.1964 387.527C122.649 424.813 167.309 457.975 212.386 490.637C220.551 496.553 228.8 502.385 236.215 507.676C254.171 467.932 271.96 428.563 289.999 388.693L290.041 388.735ZM214.135 637.491C214.01 637.782 213.927 638.074 213.802 638.365C215.219 639.365 216.635 640.407 218.093 641.365C327.869 711.48 439.477 778.512 552.127 843.794C554.21 845.002 557.585 845.419 559.918 844.71C573.458 840.586 586.664 835.337 600.329 831.754C610.661 829.046 616.243 823.672 618.576 813.215C619.743 808.049 619.034 805.549 615.035 802.508C562.209 762.222 509.467 721.728 456.641 681.442C453.975 679.401 450.559 677.86 447.268 677.276C381.361 665.528 315.454 653.905 249.547 642.448C237.84 640.407 225.967 639.115 214.177 637.449L214.135 637.491ZM974.357 654.363C962.276 662.362 950.694 670.152 938.946 677.693C936.03 679.568 934.738 681.901 933.863 685.109C923.656 722.853 913.283 760.556 902.909 798.259C901.743 802.508 900.202 806.674 898.785 811.132C968.15 844.294 1033.68 883.121 1097.84 926.157C1097.51 924.24 1097.38 923.407 1097.21 922.616C1084.88 861.166 1064.76 802.175 1041.22 744.225C1037.43 734.893 1032.85 726.144 1026.52 718.312C1015.85 705.106 1005.39 691.691 994.688 678.484C988.105 670.361 981.231 662.487 974.357 654.321V654.363ZM562.668 689.316C561.46 687.275 560.751 685.983 559.918 684.775C519.882 622.993 474.139 565.667 424.063 511.759C421.105 508.592 418.064 507.218 413.606 507.551C370.112 510.926 326.619 514.092 283.125 517.425C273.96 518.133 264.836 519.466 254.629 520.674C256.421 522.091 257.129 522.715 257.92 523.299C323.828 569.959 389.693 616.619 455.642 663.195C457.6 664.57 460.058 665.528 462.391 666.111C476.805 669.444 491.303 672.527 505.718 675.86C524.34 680.193 542.921 684.692 562.626 689.358L562.668 689.316ZM390.568 258.004C390.776 258.546 390.984 259.087 391.193 259.629L686.983 292.082C687.149 291.666 687.316 291.208 687.441 290.791C676.651 280.917 666.028 270.877 655.071 261.254C605.953 218.135 553.794 178.974 499.719 142.312C496.302 139.98 494.469 140.688 491.803 143.271C462.432 171.642 434.895 201.721 409.565 233.799C403.191 241.84 396.9 249.964 390.568 258.046V258.004ZM881.288 818.631C880.329 817.881 880.08 817.589 879.788 817.464C846.043 802.883 812.298 788.26 778.469 773.846C776.72 773.096 773.887 773.679 772.012 774.554C754.973 782.511 738.142 790.927 721.02 798.634C701.897 807.216 682.525 815.215 663.653 823.297C715.479 868.998 767.513 914.825 819.713 960.818C843.668 914.95 864.04 867.499 881.288 818.589V818.631ZM953.527 327.994C952.611 318.204 954.985 309.205 947.528 300.456C898.619 243.423 847.793 188.223 795.134 134.689C794.092 133.647 792.967 132.272 791.676 131.981C783.51 130.023 775.262 128.315 766.846 126.482C766.555 128.356 766.346 129.481 766.263 130.648C763.138 170.308 760.139 209.969 756.806 249.63C756.431 254.255 757.556 257.379 760.514 260.712C772.595 274.252 784.344 288.083 796.425 301.623C798.008 303.414 800.633 304.914 802.966 305.247C841.668 310.996 880.371 316.454 919.074 322.161C930.405 323.828 941.654 325.994 953.569 328.077L953.527 327.994ZM1334.85 606.203C1334.43 604.62 1334.26 603.829 1334.01 603.037C1323.1 570.75 1312.56 538.297 1301.1 506.218C1291.94 480.555 1281.65 455.267 1271.73 429.854C1269.48 424.063 1263.86 422.73 1259.61 426.521C1226.57 455.767 1193.53 485.013 1160.41 514.133C1153.08 520.549 1145.42 526.59 1137.79 532.839C1144.17 542.712 1150.5 552.128 1156.37 561.793C1158.66 565.543 1161.46 567.251 1165.66 568.126C1205.53 576.583 1245.4 585.123 1285.19 593.955C1301.56 597.58 1317.72 601.954 1334.85 606.203ZM967.858 344.991C967.858 347.491 967.858 349.324 967.858 351.115C967.65 367.446 968.025 383.777 967.15 400.067C964.859 442.644 962.068 485.179 959.318 527.715C959.151 530.381 959.485 531.548 962.401 532.048C1003.27 538.963 1044.14 545.962 1085.01 552.878C1086.84 553.17 1089.3 553.128 1090.63 552.128C1100.17 544.879 1109.46 537.38 1118.96 529.839C1117.54 527.631 1116.46 525.798 1115.21 524.007C1100.09 502.093 1085.42 479.764 1069.64 458.35C1043.39 422.689 1016.39 387.527 989.647 352.24C988.397 350.616 986.647 348.866 984.773 348.366C979.482 346.949 974.066 346.2 967.817 344.991H967.858ZM1010.19 353.448C1050.47 409.024 1090.72 464.557 1131.13 520.258C1170.62 487.929 1210.03 454.559 1248.07 418.439C1169.5 391.235 1090.13 370.279 1010.19 353.448ZM308.996 385.569C309.955 386.485 310.496 387.069 311.163 387.568C350.24 419.105 387.027 453.142 421.813 489.345C424.48 492.095 427.146 493.053 430.937 493.053C481.43 492.803 531.88 492.72 582.373 492.595C588.414 492.595 594.496 492.595 601.704 492.595C512.467 440.769 423.063 391.61 329.035 350.407C322.203 362.364 315.704 373.779 308.996 385.527V385.569ZM718.603 417.689C723.019 390.86 727.31 365.114 731.393 339.326C731.643 337.868 730.685 335.743 729.602 334.576C722.186 326.452 714.729 318.412 707.021 310.538C705.522 308.997 703.147 307.83 701.023 307.58C684.983 305.664 668.902 303.997 652.863 302.289C604.661 297.082 556.502 292.041 508.301 286.667C466.932 282.084 425.563 277.168 384.235 272.335C380.778 271.919 378.861 272.96 377.945 276.668C499.343 303.789 612.077 351.616 718.561 417.689H718.603ZM506.426 129.356C507.134 130.356 507.259 130.731 507.509 130.898C512.842 134.605 518.216 138.272 523.548 141.979C587.331 186.098 648.447 233.549 704.064 287.875C706.438 290.208 708.73 293.666 711.562 294.249C719.895 295.999 728.518 296.54 737.267 297.582C738.142 290.583 738.225 284.333 739.808 278.459C743.225 265.753 740.475 255.504 729.685 247.631C728.227 246.589 727.227 244.923 725.935 243.631C694.44 213.177 663.486 182.182 631.283 152.519C609.244 132.231 585.498 113.817 562.459 94.6528C558.418 91.2783 551.753 90.5701 548.628 93.1947C534.547 105.151 520.591 117.275 506.468 129.44L506.426 129.356ZM1197.66 234.924C1222.82 288 1247.86 340.867 1273.06 394.026C1310.43 356.615 1345.93 317.037 1377.92 273.377C1316.47 264.087 1256.94 249.422 1197.66 234.924ZM813.339 320.703C862.624 383.527 906.076 449.476 946.07 519.341C946.403 517.05 946.528 516.383 946.611 515.758C952.027 460.016 954.277 404.108 953.902 348.116C953.902 343.617 952.694 341.867 948.07 341.117C917.616 336.409 887.287 331.285 856.833 326.536C842.377 324.286 827.837 322.62 813.381 320.703H813.339ZM934.322 527.506C933.28 525.423 932.655 524.09 931.947 522.841C892.786 454.309 849.167 388.86 799.675 327.327C794.259 320.578 788.676 316.746 779.927 316.329C769.846 315.829 759.805 314.204 749.349 312.996C748.765 317.245 748.682 321.12 747.599 324.703C745.891 330.41 748.141 334.243 751.765 338.492C797.592 391.651 836.628 449.185 863.832 514.217C864.54 515.883 866.956 517.591 868.789 517.925C879.788 519.758 890.87 521.216 901.91 522.799C912.408 524.299 922.948 525.84 934.322 527.506ZM215.802 622.534C285.75 634.158 354.406 645.573 424.396 657.238C363.947 614.744 304.33 572.833 243.589 530.131C234.132 561.585 224.925 592.205 215.843 622.534H215.802ZM753.181 123.649C697.814 112.359 643.281 102.86 588.122 96.5275C642.906 141.563 694.273 189.889 742.85 241.215C743.308 241.006 743.766 240.798 744.224 240.59C747.182 201.804 750.182 163.018 753.181 123.649ZM753.806 108.151C753.806 106.11 753.431 103.568 753.89 101.194C754.889 95.6526 752.64 92.0699 748.682 88.2788C731.31 71.7396 714.395 54.7421 697.19 38.0361C686.441 27.621 675.484 17.3724 664.444 6.87397C629.325 27.6626 597.829 52.7839 567 77.822C629.075 87.9038 690.982 97.9439 753.848 108.192L753.806 108.151ZM253.421 505.76C304.497 501.552 354.99 497.386 406.107 493.178C373.362 459.433 339.034 427.938 302.247 398.4C283.792 433.604 267.544 469.098 253.421 505.76ZM840.627 593.247C855.833 593.622 861.541 588.706 862.957 575.25C864.165 564.085 861.624 553.378 858.708 542.754C856.541 534.797 851.167 530.048 843.002 528.798C834.628 527.506 826.171 526.423 817.755 525.507C784.01 521.882 750.223 518.383 716.437 514.675C713.396 514.342 712.271 515.258 711.771 518.133C710.854 523.215 709.771 528.256 708.396 533.214C707.646 535.964 708.105 537.463 710.729 538.755C738.933 552.628 766.888 567.042 795.342 580.374C810.09 587.289 825.671 592.455 840.627 593.205V593.247ZM201.512 621.618C211.344 588.873 221.093 556.502 230.966 523.716C181.39 530.298 132.231 538.838 82.6544 550.212C84.4458 551.586 85.3207 552.336 86.2789 552.961C116.399 573.458 146.729 593.705 176.558 614.66C184.556 620.285 193.138 620.534 201.554 621.659L201.512 621.618ZM819.13 137.772C863.707 186.473 907.784 234.591 951.819 282.709C951.819 282.25 951.944 281.584 951.902 280.959C949.403 244.756 946.82 208.511 944.404 172.308C944.195 169.017 942.654 167.892 939.654 167.142C913.158 160.643 886.703 153.936 860.207 147.437C846.668 144.104 833.045 141.063 819.13 137.813V137.772ZM919.115 691.774C876.288 716.646 835.003 740.642 794.05 764.389C824.421 777.595 855.167 790.968 887.12 804.883C897.744 767.388 908.242 730.185 919.115 691.774ZM845.21 508.926C820.213 450.851 785.427 399.275 744.224 350.907C743.683 352.949 743.308 354.198 743.1 355.407C739.308 377.362 735.642 399.359 731.685 421.314C731.101 424.647 731.768 426.355 734.601 428.146C770.179 451.059 804.299 476.014 837.252 502.594C839.877 504.718 842.585 506.801 845.251 508.884L845.21 508.926ZM805.924 985.731C807.215 983.523 807.965 981.815 809.09 980.44C812.756 976.024 811.423 973.025 807.382 969.442C759.347 927.24 711.438 884.871 663.486 842.586C662.486 841.711 661.362 841.044 659.32 839.586C660.237 842.044 660.653 843.252 661.112 844.46C670.569 868.998 680.109 893.453 689.399 918.033C690.649 921.366 692.315 923.615 695.482 925.365C721.478 939.53 747.391 953.903 773.387 968.151C784.01 973.983 794.717 979.691 805.882 985.731H805.924ZM174.016 276.668C223.592 294.79 273.668 313.038 324.161 331.452C333.41 317.037 343.2 301.789 353.365 285.917C293.04 275.127 233.341 269.586 174.016 276.668ZM658.695 730.935C657.987 732.018 657.487 732.518 657.279 733.101C651.28 753.015 645.322 772.929 639.406 792.885C639.073 794.051 639.073 795.592 639.573 796.676C641.281 800.633 642.989 804.633 645.156 808.382C647.197 811.923 649.863 813.757 654.571 811.674C686.941 797.259 719.436 783.094 751.89 768.846C753.64 768.055 755.306 767.055 758.514 765.388C724.269 753.557 691.44 742.267 658.654 730.935H658.695ZM1071.72 783.761C1072.13 785.136 1072.51 786.552 1073.01 787.927C1090.3 835.212 1104.34 883.413 1113.59 932.989C1114.09 935.697 1116.17 938.697 1118.42 940.405C1134.21 952.653 1150.25 964.568 1166.2 976.608C1166.87 977.108 1167.7 977.441 1169.5 978.441C1147.67 907.284 1112.92 843.919 1071.72 783.761ZM158.435 940.155C183.765 935.905 208.219 931.739 233.424 927.49C214.552 896.245 195.471 866.54 172.85 837.586C166.809 872.081 161.143 905.368 158.394 940.155H158.435ZM999.979 619.868C1024.6 601.746 1048.8 583.957 1072.97 566.126C1072.84 565.668 1072.72 565.168 1072.63 564.709C1035.77 558.419 998.854 552.128 961.109 545.67C974.274 570.792 986.897 594.872 1000.02 619.868H999.979ZM825.213 512.092C825.504 511.509 825.796 510.926 826.129 510.342C793.884 486.929 761.597 463.516 728.435 439.436C724.019 460.849 719.978 480.513 715.895 500.344C752.598 504.301 788.926 508.176 825.254 512.092H825.213ZM618.951 787.177C618.41 785.844 618.243 785.219 617.951 784.677C603.912 759.723 589.914 734.768 575.707 709.896C574.708 708.147 572.374 706.605 570.375 706.064C554.627 701.898 538.796 697.94 522.965 694.065C511.425 691.233 499.802 688.65 487.012 685.692C531.505 719.895 574.916 753.265 618.993 787.135L618.951 787.177ZM316.12 344.866C266.128 323.619 215.802 304.872 163.851 290.416C211.386 314.704 255.379 344.408 297.831 376.945C304.039 366.072 309.871 355.823 316.12 344.866ZM671.443 911.909C671.86 911.659 672.318 911.367 672.735 911.117C662.195 884.705 651.654 858.292 641.406 832.67C628.325 833.504 621.909 840.044 619.993 851.459C619.576 854.042 618.326 856.5 617.493 859.042C615.368 865.291 613.202 871.498 610.994 877.955C631.449 889.454 651.446 900.661 671.443 911.909ZM94.2362 277.918C93.7779 277.71 93.2363 277.376 92.6531 277.168C76.6137 272.502 60.3244 268.794 43.6185 268.877C35.1197 268.877 26.4127 270.461 18.1639 272.669C11.165 274.585 6.16565 280.084 6.91554 287.875C7.54045 294.624 9.87339 301.206 11.2899 307.33C39.8273 297.207 67.0318 287.542 94.2362 277.918ZM433.978 81.8629C434.895 83.446 434.978 83.821 435.228 83.9877C454.058 96.1525 472.889 108.359 491.886 120.358C492.928 121.024 495.636 120.399 496.761 119.441C505.509 112.025 514.05 104.36 522.632 96.7358C525.173 94.4861 527.714 92.2365 530.256 89.9868C530.131 89.5702 529.964 89.1119 529.839 88.6953C498.219 86.4457 466.598 84.1545 434.02 81.8215L433.978 81.8629ZM873.872 532.797C895.369 553.169 915.949 572.667 936.53 592.164C936.78 591.831 937.071 591.581 937.113 591.289C939.196 576.291 941.362 561.293 943.195 546.295C943.32 545.212 941.612 543.129 940.446 542.838C936.071 541.796 931.614 541.296 927.156 540.63C909.742 538.047 892.286 535.505 873.831 532.756L873.872 532.797ZM594.08 712.355C606.245 734.143 617.826 754.89 629.908 776.553C634.865 759.723 639.615 743.725 644.572 727.019C627.658 722.103 611.327 717.354 594.121 712.355H594.08ZM976.774 635.658C979.398 633.866 981.731 631.991 984.314 630.616C987.856 628.783 987.73 626.784 985.981 623.534C976.399 605.453 967.067 587.289 957.652 569.167C957.068 568.084 956.277 567.126 955.152 565.418C953.194 578.749 951.277 591.205 949.528 603.662C949.361 604.828 949.694 606.453 950.444 607.245C959.068 616.66 967.775 625.992 976.774 635.616V635.658ZM946.237 623.159C943.862 636.032 941.695 647.822 939.279 660.945C948.611 654.738 956.693 649.322 965.109 643.698C958.86 636.866 952.902 630.408 946.237 623.159ZM608.119 843.669C595.788 847.793 584.623 851.543 572.416 855.667C581.706 861.041 589.997 865.832 598.662 870.831C601.829 861.708 604.786 853.251 608.119 843.669ZM777.136 302.164C777.303 301.789 777.469 301.373 777.636 300.998C770.096 292.374 762.555 283.709 754.14 274.085C753.057 283.25 752.14 290.916 751.14 299.081C760.139 300.165 768.637 301.164 777.094 302.164H777.136ZM698.564 513.217C686.275 512.3 674.568 511.425 662.903 510.551C662.82 510.926 662.736 511.301 662.653 511.717C673.193 517.716 683.775 523.715 694.857 530.006C696.148 524.049 697.273 518.966 698.564 513.217ZM1126.79 541.463C1120.29 546.67 1114.25 551.503 1107.38 557.002C1119 559.127 1129.42 561.085 1140.92 563.21C1135.92 555.502 1131.58 548.837 1126.79 541.504V541.463ZM1009.1 673.818C1009.39 673.569 1009.73 673.36 1010.02 673.11C1004.89 662.404 999.77 651.697 994.438 640.532C991.355 642.656 988.73 644.489 985.939 646.447C993.896 655.821 1001.48 664.82 1009.1 673.818ZM735.226 311.496C732.434 311.121 730.185 310.83 727.893 310.538C727.81 310.83 727.727 311.163 727.643 311.455C729.851 313.454 732.06 315.412 734.559 317.662C734.768 315.579 734.976 313.704 735.226 311.455V311.496Z" fill="#372D74"/>
</svg>
