<svg width="1440" height="1001" viewBox="0 0 1440 1001" fill="none" xmlns="http://www.w3.org/2000/svg">
<path d="M846.876 0.479456C852.542 0.479456 858.208 0.479456 863.874 0.479456C864.79 1.97924 865.457 3.72898 866.665 4.9788C873.539 12.2277 879.996 19.9766 887.578 26.434C914.741 49.514 941.946 72.5523 969.691 94.924C1054.35 163.081 1137.79 232.529 1213.95 310.351C1253.48 350.762 1290.94 393.006 1325.06 438.124C1327.22 440.999 1329.35 443.915 1331.64 446.998C1333.47 445.79 1334.85 444.956 1336.18 443.998C1367.68 421.835 1400.34 401.546 1434.37 383.549C1436.08 382.632 1438 382.132 1439.83 381.424V396.422C1405.17 414.877 1371.92 435.541 1339.93 458.454C1341.22 460.329 1342.01 461.579 1342.89 462.787C1364.59 493.574 1384.46 525.528 1401.8 558.981C1404.75 564.689 1408.29 569.605 1413.08 573.938C1422.21 582.145 1430.92 590.852 1439.79 599.351V620.347C1434.42 615.557 1429.08 610.766 1424.96 607.099C1429.42 618.306 1434.58 631.346 1439.79 644.344V695.337C1439.04 692.837 1438.54 690.171 1437.41 687.879C1436.58 686.171 1435.12 684.213 1433.46 683.588C1419.17 678.131 1404.75 672.965 1390.38 667.716C1389.09 667.257 1387.76 666.841 1385.76 666.216C1386.84 668.174 1387.42 669.34 1388.13 670.507C1397.5 685.838 1406.88 701.169 1416.29 716.458C1418.17 719.541 1418.42 722.541 1415.58 724.999C1412.71 727.499 1409.63 726.915 1407.04 724.499C1405.25 722.833 1403.59 720.833 1402.3 718.75C1390.21 699.419 1378.3 679.964 1366.09 660.675C1364.51 658.175 1362.01 655.717 1359.34 654.551C1336.47 644.552 1313.47 634.845 1290.48 625.097C1285.31 622.889 1280.1 620.847 1274.27 618.473C1274.27 621.139 1274.19 623.097 1274.27 625.013C1276.35 676.881 1266.65 726.374 1244.11 773.242C1242.98 775.617 1241.86 778.158 1241.57 780.741C1241.36 782.532 1242.03 785.073 1243.23 786.282C1252.28 795.114 1261.65 803.654 1270.81 812.403C1329.01 867.853 1376.8 931.427 1417.79 1000.29H1401.8C1400.25 997.918 1398.71 995.543 1397.21 993.127C1356.59 926.928 1308.85 866.478 1251.9 813.486C1247.19 809.112 1242.48 804.696 1237.82 800.321C1232.28 815.736 1226.95 830.734 1221.49 845.981C1222.61 846.731 1224.11 847.773 1225.65 848.731C1283.85 884.142 1335.14 927.844 1380.21 978.837C1386.34 985.753 1391.96 993.127 1397.8 1000.29H1379.8C1379.34 999.459 1379.05 998.459 1378.38 997.793C1358.68 977.254 1339.55 956.132 1319.02 936.427C1288.52 907.181 1254.11 882.809 1218.24 860.562C1217.03 859.813 1215.74 859.229 1214.82 858.729C1209.32 863.687 1210.41 868.145 1213.49 873.852C1236.15 915.888 1258.4 958.132 1280.77 1000.29H1264.77C1264.15 998.792 1263.61 997.209 1262.86 995.751C1248.36 968.214 1233.86 940.676 1219.24 913.18C1213.41 902.223 1207.37 891.35 1201.45 880.435C1200.74 880.768 1200.32 880.81 1200.16 881.06C1199.49 881.809 1198.87 882.601 1198.28 883.393C1173.7 916.304 1141.75 938.385 1102.09 949.3C1100.21 949.8 1098.13 951.758 1097.3 953.549C1090.01 969.047 1082.97 984.669 1075.84 1000.25H1060.84C1067.68 984.878 1074.47 969.505 1081.43 953.882C1072.34 954.591 1063.93 955.507 1055.51 955.84C1051.76 956.007 1050.72 957.382 1050.6 960.84C1050.14 973.963 1049.47 987.086 1048.89 1000.21H1034.89C1035.39 986.669 1035.89 973.088 1036.43 958.965C1026.47 963.256 1016.89 967.297 1007.44 971.588C1006.44 972.046 1006.06 974.046 1005.6 975.379C1002.69 983.628 999.771 991.918 996.896 1000.21H980.898C984.981 993.46 988.355 986.461 990.23 978.337C977.815 982.253 966.317 986.044 954.694 989.46C941.821 993.252 928.823 996.626 915.908 1000.21H840.919C842.002 999.834 843.002 999.334 844.126 999.126C853.625 997.459 863.124 995.709 872.706 994.335C875.664 993.918 876.955 992.543 877.788 989.835C884.621 967.922 891.453 945.967 898.452 924.095C899.369 921.179 898.952 919.721 896.036 918.346C843.085 893.349 796.55 859.188 754.265 818.985C711.146 777.991 674.11 732.081 643.573 681.089C638.782 673.09 632.741 672.215 625.034 672.09C624.659 673.798 624.325 675.256 623.992 676.714C619.159 699.336 614.993 722.124 609.328 744.538C598.829 785.99 587.414 827.192 576.541 868.561C575.999 870.561 576.416 873.727 577.666 875.144C610.994 912.722 648.322 945.8 690.607 973.046C705.397 982.586 720.811 991.169 735.976 1000.17H706.98C705.647 999.209 704.397 998.167 702.98 997.334C659.862 971.588 620.951 940.593 585.956 904.556C580.832 899.307 575.124 894.599 570.25 890.142C558.043 926.136 545.503 963.131 533.005 1000.13H498.01C499.844 997.584 501.718 995.043 503.51 992.46C516.924 973.296 522.049 951.341 524.84 928.719C528.798 896.391 526.84 864.187 522.299 832.067C521.674 827.526 519.507 822.86 516.966 818.944C484.846 769.492 460.724 716.625 448.351 658.759C446.268 649.01 446.268 648.968 436.603 647.802C428.396 646.844 420.188 646.052 411.815 645.177C411.648 646.469 411.482 647.094 411.523 647.719C412.856 666.008 413.856 684.297 415.564 702.544C419.564 744.996 423.146 787.49 428.312 829.775C433.562 872.727 440.352 915.513 446.685 958.298C448.768 972.296 451.517 986.169 453.975 1000.08H432.978C432.353 999.126 431.77 998.084 431.104 997.168C408.44 967.547 384.36 939.093 358.656 912.055C352.198 905.264 345.408 898.765 338.409 891.725C338.159 892.849 337.951 893.266 337.951 893.724C338.034 906.348 338.076 918.971 338.367 931.594C338.367 933.427 339.284 935.468 340.367 937.01C351.99 952.924 365.197 967.464 380.111 980.337C388.11 987.252 396.65 993.502 404.982 1000.08H380.986C380.403 999.334 379.861 998.542 379.195 997.876C369.988 989.252 360.614 980.795 351.615 971.921C345.908 966.297 340.825 960.048 335.493 954.132C332.201 962.423 329.702 970.797 325.702 978.295C321.578 985.961 315.954 992.835 310.996 1000.04H287.999C290.499 998.209 293.082 996.459 295.498 994.501C312.954 980.462 319.911 961.006 323.161 939.801C323.411 938.135 322.161 936.093 321.203 934.427C311.704 917.638 302.122 900.932 292.624 884.184C291.166 881.601 290.083 878.852 288.708 875.935C288.124 876.643 287.75 876.977 287.541 877.435C269.169 917.888 249.547 957.673 227.633 996.334C227.133 997.251 227.8 998.834 227.967 1000.08H195.971C179.224 989.585 163.809 977.421 151.02 962.339C123.732 930.136 106.943 893.099 101.318 851.272C96.4858 815.361 103.318 781.866 124.982 752.287C131.147 743.871 138.563 736.414 145.562 728.29C144.27 727.332 142.729 726.082 141.063 725.041C115.525 709.043 90.4033 692.337 64.3238 677.256C43.4519 665.216 21.4552 655.134 0 644.177C0 639.178 0 634.179 0 629.18C2.16635 629.971 4.37431 630.638 6.45734 631.596C58.0748 655.634 107.109 684.088 153.644 716.875C156.06 718.583 157.935 719.958 161.101 717.792C175.474 707.918 191.305 700.961 207.928 695.837C209.261 695.42 210.552 694.795 211.969 694.253C211.469 693.42 211.302 692.92 210.969 692.545C187.722 666.424 164.476 640.261 141.104 614.265C139.813 612.807 137.521 611.849 135.563 611.432C127.731 609.849 119.816 608.766 111.984 607.183C73.3642 599.226 34.3282 592.602 0.0415741 571.23V552.232C8.24871 561.189 18.5389 567.272 29.7873 570.896C50.7842 577.645 72.1144 583.436 93.4446 589.144C102.902 591.685 112.692 593.06 122.315 594.976C112.692 582.895 102.527 571.938 92.4864 560.898C76.697 543.567 60.9911 526.111 45.16 508.822C44.1185 507.697 41.5772 506.572 40.4107 507.072C25.6628 513.321 11.2483 520.237 0.0832754 532.194C0.0832754 525.861 0.0832754 519.529 0.0832754 513.196C10.7484 506.906 21.4135 500.573 32.2035 494.199C29.1623 490.658 25.9128 486.825 22.6632 483.076C15.1643 474.452 7.62388 465.828 0.124977 457.205C0.124977 449.872 0.124977 442.54 0.124977 435.208C1.08317 436.083 2.08295 436.874 2.91616 437.874C16.4975 453.872 29.9956 469.911 43.5769 485.95C45.035 487.659 46.0765 489.408 49.2427 488.408C69.2398 482.159 89.3202 476.202 109.442 470.328C112.15 469.536 112.734 468.495 112.484 465.828C112.025 461.537 111.859 457.163 112.067 452.872C113.4 427.334 130.064 409.753 155.477 406.837C168.725 405.296 181.307 407.962 193.555 412.794C212.219 420.21 228.217 431.792 243.214 444.873C244.881 446.331 247.589 447.456 249.672 447.289C266.128 446.165 282.542 444.54 298.956 443.415C302.789 443.165 303.914 441.874 304.205 438.124C308.788 380.299 303.789 323.391 288.375 267.399C287.291 263.441 285.667 262.275 281.584 262.233C213.635 261.691 145.645 261.066 77.6969 260.233C60.3661 260.025 43.0769 259.275 25.7878 258.275C17.164 257.775 8.62365 256.234 0.0415741 255.192C0.0415741 250.526 0.0415741 245.86 0.0415741 241.194C16.1226 242.736 32.1619 245.402 48.2429 245.652C125.023 246.86 201.804 247.402 278.626 248.152C279.709 248.152 280.751 247.943 282.792 247.693C277.668 234.612 273.168 221.906 267.836 209.616C244.423 155.749 212.635 107.797 166.809 70.2193C140.729 48.8474 111.859 32.7664 78.4051 25.8091C75.2806 25.1425 73.5725 25.9341 71.6144 28.2254C59.2412 42.64 49.7426 58.846 42.452 76.3018C32.9951 99.0484 28.7457 122.545 34.1616 147.083C35.1614 151.624 36.7862 156.04 37.8277 160.581C38.5776 163.831 37.4945 166.664 34.245 167.997C31.0371 169.288 28.3291 168.08 26.4544 165.247C25.4545 163.747 24.7046 162.039 23.9964 160.331C17.9973 145.625 16.9557 130.294 18.3722 114.671C20.9135 86.8002 31.7869 61.9705 46.6181 38.6406C49.7843 33.683 53.2422 28.892 56.6167 23.9344C55.9085 23.6011 55.6169 23.3928 55.3252 23.3511C53.9921 23.2678 52.6589 23.2678 51.3257 23.2678C33.37 22.9762 16.3309 27.0589 0 34.2245V19.2267C20.1637 10.9363 41.1189 8.02002 62.8241 9.72811C65.6153 9.93641 68.9482 9.85309 71.1979 8.51995C74.8224 6.3536 77.7802 3.06241 80.988 0.229492C89.3202 0.479456 97.6523 0.479456 105.984 0.479456C99.9436 4.64552 93.9028 8.81158 86.8622 13.6442C107.026 18.8101 124.607 26.1424 141.188 35.8493C186.931 62.6787 221.509 100.632 249.547 145.042C269.252 176.287 284.458 209.699 295.915 244.819C296.665 247.152 297.248 248.985 300.414 249.027C321.911 249.235 343.366 249.61 364.863 250.068C367.655 250.11 368.363 249.068 368.863 246.402C371.237 233.695 371.279 221.406 364.488 209.824C364.405 209.699 364.363 209.532 364.28 209.366C348.824 167.33 351.532 126.794 373.904 87.7168C384.569 69.0945 397.817 52.4719 412.898 37.3074C419.272 30.8917 426.063 24.8509 432.978 18.3519C428.979 16.0189 425.438 13.8942 421.855 11.8945C414.939 8.06168 407.982 4.27057 401.025 0.479456C411.023 0.479456 421.022 0.479456 431.02 0.479456C435.02 3.06241 438.977 5.77035 443.102 8.14501C443.977 8.64493 445.768 8.64493 446.601 8.06169C450.184 5.68703 453.559 3.02075 457.016 0.479456C466.015 0.479456 475.014 0.479456 484.013 0.479456C475.305 6.02032 466.557 11.5612 457.35 17.3937C463.932 22.2679 469.64 26.4757 475.181 30.5584C481.805 20.3516 488.387 10.4363 494.928 0.479456C500.927 0.479456 506.926 0.479456 512.925 0.479456C505.551 11.1029 497.677 21.4347 490.928 32.4331C485.137 41.8901 485.221 38.3073 493.053 46.3478C495.802 49.1807 497.844 49.4723 501.427 47.2227C531.089 29.017 562.126 13.5609 595.288 2.68747C596.579 2.27086 597.662 1.22935 598.871 0.437795C643.531 0.437795 688.191 0.437795 732.851 0.437795C735.143 3.10407 738.267 5.43707 739.475 8.51995C740.183 10.3114 738.35 14.0608 736.517 15.5189C735.268 16.5604 731.143 16.1438 729.935 14.8524C725.227 9.97807 719.103 10.9363 713.396 9.72811C716.395 12.436 719.645 14.6024 722.894 16.8104C788.468 61.0123 850.501 109.755 910.159 161.623C912.658 163.789 915.366 165.914 918.366 167.164C997.396 200.284 1064.55 250.318 1123.59 311.726C1160.33 349.97 1191.95 392.131 1218.03 438.374C1219.2 440.457 1221.03 442.498 1223.03 443.665C1243.36 455.413 1263.77 466.995 1284.19 478.535C1285.31 479.16 1287.35 479.66 1288.1 479.118C1298.77 471.244 1309.31 463.12 1320.1 454.955C1315.89 449.372 1311.97 443.998 1307.93 438.707C1249.9 363.26 1182.99 296.27 1112.42 232.779C1055.55 181.62 995.688 134.043 936.238 85.9253C912.95 67.0531 890.412 47.2643 868.29 27.0589C859.958 19.435 853.875 9.39482 846.751 0.437795L846.876 0.479456ZM903.16 906.972C903.785 905.389 904.076 904.764 904.243 904.14C913.908 864.729 923.573 825.318 933.072 785.865C933.53 783.949 932.697 781.241 931.531 779.533C920.699 763.327 909.617 747.329 898.785 731.165C896.202 727.332 893.036 725.332 888.537 724.166C820.088 706.043 750.724 692.337 680.984 680.589C673.277 679.297 665.528 678.131 656.362 676.673C719.353 775.45 798.008 854.98 903.201 907.014L903.16 906.972ZM158.893 736.956C157.185 738.205 156.477 738.622 155.852 739.164C130.689 761.119 115.608 788.615 114.317 822.068C112.233 876.352 132.439 922.512 169.225 961.673C181.723 974.963 196.513 985.419 213.385 993.585C214.385 991.835 215.302 990.294 216.177 988.711C238.423 948.716 258.837 907.764 277.543 865.978C280.167 860.146 281.167 855.063 278.293 849.023C276.085 844.398 275.251 839.191 273.377 834.4C272.377 831.9 270.919 829.275 268.919 827.484C258.504 818.152 248.089 808.82 237.215 799.988C211.261 778.866 185.098 758.036 158.81 736.956H158.893ZM1152.83 558.44C1152.96 557.523 1153.08 557.023 1153.04 556.565C1152.87 555.399 1152.62 554.274 1152.33 553.149C1143.87 517.071 1131.58 482.243 1116.34 448.498C1115 445.54 1113.05 442.623 1110.67 440.457C1099.88 430.583 1089.17 420.46 1077.76 411.336C1048.22 387.715 1015.93 369.134 979.19 359.011C963.901 354.803 948.32 352.345 931.947 352.678C932.364 354.511 932.697 355.928 933.03 357.344C939.863 387.173 946.695 417.044 953.611 446.873C954.652 451.33 955.485 456.205 957.86 459.913C968.15 476.035 978.94 491.908 989.772 507.656C991.272 509.864 994.104 511.738 996.687 512.488C1042.51 525.903 1088.42 539.109 1134.29 552.441C1140.46 554.232 1146.54 556.398 1152.87 558.44H1152.83ZM613.66 655.842C614.535 651.218 614.952 647.094 616.118 643.136C617.785 637.47 616.535 632.596 614.035 627.388C588.997 575.562 572.166 521.32 567.125 463.745C566.792 459.954 565.209 459.121 561.876 458.954C534.922 457.663 508.009 456.288 481.055 454.83C478.222 454.663 476.93 455.621 476.055 458.288C467.39 484.951 460.641 512.03 457.266 539.859C456.725 544.15 456.933 548.941 458.308 552.982C467.89 580.645 477.972 608.141 487.679 635.72C488.804 638.886 490.303 640.011 493.594 640.386C516.758 643.094 539.879 646.01 562.959 648.968C579.623 651.093 596.246 653.426 613.619 655.801L613.66 655.842ZM653.071 492.616C652.654 494.283 652.28 495.324 652.155 496.407C646.78 533.985 642.406 571.73 635.699 609.016C632.616 626.138 633.657 640.761 643.697 655.009C646.655 659.217 649.405 661.467 654.446 662.258C721.395 672.673 787.968 685.046 853.833 701.086C862.249 703.127 870.623 705.169 880.329 707.502C813.923 624.847 735.267 557.273 653.071 492.616ZM334.409 637.303C334.993 647.677 335.826 657.3 336.076 666.924C337.284 711.959 330.16 755.828 317.578 798.947C316.662 802.154 316.954 806.112 317.87 809.403C322.786 827.692 328.035 845.94 333.326 864.104C334.034 866.52 335.409 869.02 337.159 870.769C365.322 898.474 392.401 927.136 417.356 957.798C423.521 965.381 429.646 972.921 436.645 981.587C436.228 978.754 436.061 977.296 435.77 975.879C423.355 914.596 415.939 852.564 409.857 790.406C405.191 742.83 401.608 695.17 397.65 647.552C397.4 644.636 396.442 643.594 393.526 643.344C385.069 642.636 376.653 641.553 368.196 640.678C357.114 639.511 346.033 638.428 334.451 637.262L334.409 637.303ZM551.669 258.609C573.333 260.9 593.996 262.983 614.702 265.316C618.368 265.733 620.534 264.566 622.742 261.858C625.159 258.9 627.908 256.192 630.825 253.693C633.741 251.193 634.741 248.402 634.657 244.569C634.324 223.697 639.531 204.408 651.03 186.827C652.696 184.286 653.696 180.662 653.404 177.704C650.863 149.624 646.156 121.92 639.948 94.4241C633.407 65.5117 622.367 38.7239 604.245 14.6024C570.208 24.8926 538.296 41.0152 506.967 59.9708C560.585 117.629 573.958 183.994 551.711 258.567L551.669 258.609ZM793.259 452.872C800.633 406.795 825.004 374.508 865.332 353.47C857.791 343.305 850.459 333.639 843.418 323.766C840.919 320.308 838.044 318.308 833.795 317.475C786.76 308.31 739.725 299.019 692.69 289.854C685.108 288.396 677.401 287.563 669.819 286.479C666.111 311.268 666.902 315.1 679.609 335.139C680.234 336.139 680.859 337.097 681.525 338.055C701.606 368.634 726.56 394.964 753.682 419.252C766.305 430.542 779.511 441.207 793.301 452.872H793.259ZM537.671 257.317C548.961 218.864 552.753 180.453 540.421 141.667C531.422 113.421 515.633 89.3415 494.928 67.5947C486.387 73.9271 478.013 79.7179 470.223 86.1336C467.223 88.6333 464.474 92.2578 463.182 95.9239C448.851 136.168 439.144 177.579 431.062 219.448C429.062 229.863 427.312 240.32 425.396 251.151C463.057 253.234 500.052 255.276 537.713 257.359L537.671 257.317ZM129.148 479.868C130.189 483.284 130.648 485.784 131.689 487.992C137.771 500.907 142.729 514.613 150.478 526.486C167.975 553.441 186.806 579.478 205.262 605.808C206.303 607.308 208.719 608.349 210.677 608.599C223.051 610.349 235.424 611.849 247.839 613.432C255.713 614.432 263.586 615.348 271.46 616.265C271.877 615.098 272.127 614.473 272.252 613.848C278.001 587.477 283.75 561.148 289.374 534.777C289.749 533.027 289.249 530.777 288.458 529.111C276.751 505.739 262.128 484.367 243.839 465.578C242.298 463.995 239.173 462.912 236.965 463.162C218.301 465.412 199.596 467.661 181.015 470.578C163.934 473.244 146.979 476.618 129.148 479.826V479.868ZM656.071 467.036C653.779 473.161 655.237 476.702 659.862 480.493C691.899 506.531 724.061 532.444 755.389 559.356C802.716 600.017 846.584 644.177 886.12 692.545C891.786 699.503 896.327 708.251 903.451 712.917C910.742 717.708 920.657 718.583 929.447 721.166C933.988 722.499 938.571 723.749 943.654 725.166C944.945 714.417 946.278 704.377 947.236 694.295C947.361 693.045 945.82 691.046 944.529 690.379C897.744 666.091 860.916 630.888 831.92 587.269C811.964 557.273 797.925 524.736 793.676 488.575C793.342 485.659 792.093 484.742 789.343 484.367C756.348 479.868 723.394 475.202 690.399 470.786C679.026 469.245 667.611 468.286 656.112 467.036H656.071ZM395.317 629.555C394.234 570.646 393.109 512.488 392.026 454.122C392.151 454.163 391.859 453.955 391.526 453.955C367.571 454.705 343.575 455.538 319.62 456.246C316.704 456.33 316.287 457.83 315.87 460.288C312.413 482.493 308.747 504.656 305.289 526.861C304.997 528.736 305.039 530.986 305.789 532.652C318.453 560.398 326.994 589.352 331.66 619.473C332.118 622.472 333.451 623.18 336.159 623.43C343.95 624.097 351.74 625.097 359.489 625.93C371.529 627.18 383.61 628.388 395.275 629.555H395.317ZM611.119 669.424C571.833 664.299 533.297 659.3 494.053 654.176C494.803 656.801 495.219 658.342 495.719 659.925C511.675 709.918 525.215 760.494 533.422 812.361C534.38 818.527 536.463 823.776 540.213 828.609C547.212 837.691 554.086 846.94 561.001 856.063C561.876 857.188 562.959 858.146 564.459 859.729C583.206 796.947 598.579 734.039 611.077 669.382L611.119 669.424ZM955.319 742.455C952.986 755.62 950.819 767.243 948.986 778.866C948.736 780.408 949.819 782.324 950.653 783.865C957.11 795.864 964.109 807.654 970.15 819.86C988.439 856.855 1003.98 894.766 1008.06 936.427C1008.19 937.718 1010.27 939.718 1011.6 939.884C1019.02 940.884 1026.52 941.301 1033.97 942.092C1037.47 942.467 1038.47 941.134 1038.85 937.76C1042.89 900.307 1049.8 863.354 1059.68 826.984C1063.39 813.236 1067.59 799.571 1071.93 784.615C1033.35 770.659 994.813 756.703 955.36 742.413L955.319 742.455ZM807.507 487.742C812.589 525.57 828.087 558.565 849.792 588.81C876.039 625.347 908.242 655.384 948.819 676.839C949.153 674.631 949.486 673.173 949.528 671.715C950.569 645.927 951.194 620.098 952.819 594.351C953.402 584.811 949.986 579.562 942.196 574.313C903.285 548.066 864.749 521.237 826.296 494.324C820.755 490.45 815.172 487.867 807.549 487.7L807.507 487.742ZM621.909 9.35316C628.408 21.6847 632.991 34.0162 640.573 44.0148C664.986 76.2601 690.566 107.589 715.645 139.334C717.312 141.417 718.853 142.126 721.561 141.417C746.849 134.918 772.512 133.71 798.383 136.085C802.424 136.46 806.465 136.835 811.673 137.293C808.673 133.252 806.341 130.044 803.966 126.919C773.012 86.1753 738.559 48.9307 697.565 17.8936C685.316 8.64493 672.902 2.52083 657.279 5.43707C655.487 5.77035 653.613 5.47873 651.78 5.68703C642.114 6.81187 632.449 8.02002 621.909 9.26984V9.35316ZM368.238 263.566H301.623C317.995 322.058 322.578 381.632 317.87 442.123C343.658 441.29 368.529 440.499 393.567 439.707C394.276 429 394.776 419.043 391.484 408.753C379.486 371.05 370.404 332.681 368.321 292.979C367.821 283.522 368.238 274.065 368.238 263.566ZM1116.96 682.339C1117.42 681.505 1117.63 681.047 1117.88 680.63C1132.17 657.8 1146.5 635.012 1160.71 612.099C1161.66 610.557 1162.04 608.308 1161.79 606.516C1160.62 597.434 1159.04 588.435 1157.87 579.353C1157.46 575.937 1156.04 574.188 1152.62 573.188C1104.51 558.898 1056.39 544.484 1008.31 530.152C1007.14 529.819 1005.94 529.736 1004.19 529.444C1004.81 530.652 1005.02 531.277 1005.39 531.819C1032.22 573.729 1059.01 615.64 1085.84 657.55C1086.47 658.509 1087.05 659.633 1087.97 660.3C1097.42 667.591 1106.92 674.798 1116.92 682.422L1116.96 682.339ZM947.528 500.74C945.403 487.034 943.529 474.119 941.362 461.204C941.071 459.538 939.571 458.038 938.529 456.58C924.698 436.791 910.95 416.96 897.035 397.213C889.495 386.507 881.704 375.925 873.914 365.176C861.249 370.842 850.292 378.299 840.71 387.673C820.713 407.17 809.507 430.917 807.049 458.746C806.924 460.287 806.924 462.704 807.84 463.329C815.506 468.62 821.713 475.827 831.962 477.577C856.875 481.826 881.663 486.95 906.492 491.908C919.824 494.574 933.114 497.615 947.611 500.74H947.528ZM886.62 234.695C887.162 236.278 887.287 236.737 887.454 237.195C898.994 265.691 910.492 294.187 922.282 322.599C923.115 324.599 925.573 326.64 927.698 327.349C970.65 341.513 1013.68 355.428 1056.64 369.509C1063.8 371.884 1070.84 374.758 1078.38 377.633C1077.97 376.466 1077.93 375.925 1077.63 375.55C1059.76 350.095 1041.89 324.641 1023.93 299.228C1022.73 297.561 1020.77 296.27 1018.93 295.187C979.357 271.315 937.821 251.526 893.911 236.945C891.745 236.237 889.578 235.612 886.579 234.695H886.62ZM642.823 451.539C643.156 449.956 643.489 448.831 643.573 447.706C646.905 407.878 650.197 368.051 653.613 328.223C654.154 321.724 653.279 315.85 650.238 309.976C647.239 304.269 644.489 298.186 643.114 291.937C641.448 284.105 637.615 280.814 629.658 280.897C626.325 280.897 623.95 281.147 622.076 284.063C619.743 287.688 616.951 291.062 614.618 294.687C591.247 331.431 582.04 372.259 580.123 415.169C580.04 417.002 581.665 419.46 583.248 420.71C592.497 428.084 602.62 434.458 611.119 442.582C620.492 451.58 631.658 450.331 642.781 451.58L642.823 451.539ZM1432 669.132C1431.67 666.882 1431.67 666.216 1431.46 665.591C1422.5 635.679 1410.38 607.058 1396.46 579.187C1395.34 576.896 1393.38 574.771 1391.34 573.188C1367.68 554.857 1344.05 536.401 1320.06 518.487C1309.85 510.863 1298.81 504.323 1288.19 497.282C1285.77 499.24 1283.81 500.782 1281.94 502.406C1280.06 503.948 1278.27 505.573 1276.27 507.239C1277.85 509.28 1279.02 510.863 1280.27 512.405C1310.52 550.316 1338.39 589.977 1363.84 631.221C1370.13 641.428 1377.63 648.302 1388.84 652.26C1403.04 657.217 1416.92 663.216 1431.96 669.174L1432 669.132ZM417.772 300.061C418.147 299.561 418.48 299.061 418.855 298.561C418.647 299.853 418.314 301.144 418.189 302.477C415.564 330.306 412.69 358.136 410.44 386.007C409.107 402.629 406.566 419.502 414.648 435.499C416.189 438.582 417.356 440.124 421.022 440.082C435.186 439.999 449.309 440.207 463.474 440.54C466.473 440.624 467.807 439.707 468.89 436.874C476.805 416.211 484.721 395.589 493.095 375.092C494.928 370.634 494.386 368.343 490.762 365.176C473.639 350.137 456.891 334.639 439.936 319.391C432.645 312.851 425.188 306.477 417.772 300.061ZM1228.4 772.825C1228.82 770.867 1229.11 769.742 1229.28 768.618C1229.78 764.993 1230.28 761.369 1230.7 757.702C1236.49 704.044 1228.61 652.135 1211.53 601.225C1209.41 594.81 1206.2 590.768 1199.66 589.769C1197.95 589.519 1195.37 590.06 1194.33 591.227C1189.53 596.768 1185.37 602.85 1180.58 608.391C1177.33 612.14 1176.99 616.14 1177.2 620.847C1177.95 638.303 1178.95 655.801 1178.41 673.256C1177.91 689.546 1175.66 705.752 1173.95 721.999C1173.58 725.582 1174.33 727.832 1177.29 729.998C1182.24 733.623 1186.87 737.705 1191.62 741.705C1203.7 751.87 1215.74 762.077 1228.45 772.825H1228.4ZM1067.09 661.55C1066.34 663.258 1066.09 663.633 1066.01 664.091C1061.43 685.88 1047.97 699.253 1026.68 704.627C1006.6 709.668 987.022 706.21 967.734 699.919C965.609 699.211 963.484 698.544 961.068 697.753C959.86 707.418 958.985 716.334 957.527 725.207C956.943 728.707 958.11 729.707 961.151 730.748C984.189 738.455 1007.23 746.163 1030.1 754.328C1045.6 759.869 1060.8 766.16 1076.3 772.117C1076.63 771.576 1077.05 771.034 1077.3 770.451C1085.26 751.412 1093.3 732.415 1101.05 713.334C1101.71 711.709 1101.34 709.043 1100.38 707.46C1093.63 696.17 1086.92 684.838 1079.51 674.006C1076.38 669.424 1071.55 665.966 1067.05 661.55H1067.09ZM670.152 271.232C722.186 280.939 773.845 290.604 825.338 300.227C825.338 300.394 825.379 300.227 825.338 300.061C804.091 272.731 782.844 245.36 761.472 218.114C760.555 216.948 758.347 216.156 756.806 216.24C727.56 218.156 699.648 225.072 673.818 239.32C672.318 240.153 670.402 242.028 670.36 243.486C670.069 252.943 670.194 262.4 670.194 271.232H670.152ZM657.362 452.455C702.272 458.329 746.932 464.162 791.634 469.953C744.933 432.375 700.481 392.922 666.986 341.346C663.695 379.133 660.528 415.794 657.362 452.414V452.455ZM1207.28 551.857C1216.53 543.192 1226.53 533.693 1236.69 524.403C1239.44 521.904 1240.11 519.57 1238.57 516.196C1229.65 496.324 1220.95 476.368 1211.86 456.58C1210.78 454.247 1208.45 451.955 1206.12 450.831C1176.41 436.624 1146.62 422.626 1116.79 408.587C1115.38 407.92 1113.84 407.504 1111.55 406.629C1116.67 416.96 1121.34 426.501 1126.13 435.958C1126.71 437.124 1127.84 437.999 1128.63 439.041C1143.67 457.871 1159.71 476.035 1173.49 495.741C1186.2 513.946 1196.53 533.86 1207.24 551.899L1207.28 551.857ZM566.334 407.878C568.167 383.924 571.791 361.635 578.582 339.93C585.373 318.225 594.996 297.894 608.286 279.147C607.328 278.731 606.953 278.439 606.495 278.397C587.956 276.481 569.375 274.565 550.836 272.898C549.545 272.773 547.337 274.481 546.795 275.856C535.672 304.352 524.757 332.973 513.675 361.469C512.55 364.343 512.967 365.885 515.341 367.718C521.174 372.134 526.798 376.841 532.547 381.382C543.504 390.006 554.502 398.588 566.334 407.878ZM1053.14 934.343C1054.3 933.969 1054.97 933.844 1055.47 933.552C1070.89 924.303 1086.3 915.096 1101.63 905.723C1103.09 904.848 1104.42 903.223 1105.01 901.64C1115.46 874.144 1125.79 846.606 1136.25 819.11C1137.21 816.527 1136.67 815.236 1134.17 814.111C1118.29 806.862 1102.46 799.446 1086.63 792.114C1086.13 791.864 1085.47 791.864 1084.63 791.739C1069.26 838.274 1059.05 885.601 1053.14 934.427V934.343ZM778.219 215.198C778.719 216.698 778.719 217.24 779.011 217.573C801.383 246.527 823.754 275.523 846.251 304.393C847.376 305.81 849.376 306.852 851.167 307.31C868.706 311.934 886.245 316.392 903.826 320.849C904.701 321.058 905.617 321.016 906.909 321.141C896.202 290.146 883.704 260.442 869.04 231.696C868.206 230.113 865.915 228.655 864.082 228.28C846.335 224.655 828.629 220.822 810.757 217.906C800.216 216.198 789.426 216.073 778.178 215.198H778.219ZM376.237 201.367C376.82 200.075 377.153 199.534 377.32 198.951C390.401 153.166 415.398 115.004 451.059 83.634C452.475 82.3842 453.559 80.5511 454.309 78.7597C458.85 68.2196 463.099 57.5545 467.723 47.056C468.931 44.3064 468.348 42.8899 466.098 41.3068C460.391 37.2658 454.683 33.183 449.226 28.8503C446.393 26.6007 444.518 27.1422 441.977 29.3086C427.646 41.3485 414.481 54.5549 402.983 69.3028C384.569 92.9243 370.862 118.671 368.529 149.249C367.155 166.955 370.446 183.994 376.153 201.367H376.237ZM967.525 592.06C966.983 592.81 966.65 593.06 966.609 593.31C965.317 622.389 964.026 651.51 962.859 680.63C962.817 681.714 963.901 683.547 964.901 683.922C983.648 691.087 1002.73 695.92 1022.93 691.296C1040.51 687.296 1051.6 674.34 1052.93 657.092C1053.22 653.468 1052.05 651.301 1049.14 649.26C1029.22 635.345 1009.39 621.264 989.522 607.266C982.231 602.142 974.857 597.143 967.525 592.06ZM423.813 265.024C421.313 273.065 420.73 279.314 427.062 285.396C445.935 303.435 464.224 322.058 482.929 340.305C488.47 345.679 494.594 350.428 501.302 356.178C512.342 327.598 523.048 299.978 534.214 271.023C496.302 268.982 459.974 266.982 423.771 265.024H423.813ZM56.1584 500.032C57.8665 502.115 58.7414 503.281 59.6996 504.323C85.4041 532.527 111.317 560.523 136.605 589.06C143.354 596.684 150.603 601.392 160.768 601.475C161.768 601.475 162.726 601.85 163.726 601.975C171.308 603.058 178.89 604.183 187.431 605.391C159.852 565.939 129.564 529.444 115.191 482.784C95.4444 488.533 76.1555 494.158 56.1168 499.99L56.1584 500.032ZM992.688 937.718L994.021 935.927C988.189 887.475 968.025 844.273 945.195 802.154C935.821 838.149 926.615 873.727 917.241 909.264C916.491 912.097 917.449 913.18 919.824 914.055C927.906 917.096 935.822 920.679 944.07 923.262C960.193 928.344 976.482 932.927 992.688 937.718ZM580.79 460.288C585.331 513.03 599.496 562.189 621.451 610.432C622.034 607.891 622.492 606.516 622.701 605.141C628.283 565.397 633.907 525.695 639.281 485.909C639.531 483.992 638.157 481.118 636.615 479.785C630.658 474.702 624.367 470.036 618.16 465.287C617.118 464.495 615.951 463.495 614.743 463.37C603.703 462.287 592.663 461.329 580.832 460.288H580.79ZM858.249 211.907C858.166 211.324 858.25 210.949 858.083 210.699C846.918 192.41 835.794 174.038 824.421 155.873C823.463 154.332 821.047 153.124 819.13 152.832C797.883 149.374 776.511 147.583 754.973 149.833C746.141 150.749 737.434 152.374 728.268 153.707C728.977 155.207 729.143 155.707 729.435 156.082C741.017 170.455 752.557 184.869 764.347 199.117C765.555 200.575 768.221 201.409 770.262 201.575C789.468 203.242 808.715 204.283 827.879 206.324C838.044 207.408 848.043 209.991 858.208 211.907H858.249ZM1173.29 395.005C1114.55 312.267 1041.51 245.819 951.486 198.576C952.277 200.409 953.527 201.742 954.777 203.033C975.357 224.822 995.938 246.61 1016.52 268.357C1023.89 276.148 1029.47 285.48 1039.1 291.395C1070.34 310.601 1099.96 332.223 1128.04 355.803C1143.33 368.634 1158.21 381.924 1173.29 395.005ZM238.173 702.252C240.798 705.96 243.006 708.71 244.756 711.668C247.172 715.75 246.381 719.791 243.131 721.833C239.923 723.874 236.007 722.791 233.133 719.125C230.466 715.709 227.717 712.376 225.134 708.918C223.509 706.71 221.759 706.168 219.135 707.21C205.761 712.626 192.305 717.833 178.974 723.332C175.849 724.624 173.1 726.707 170.517 728.248C202.47 753.995 234.049 779.408 265.628 804.821C265.669 804.446 265.836 803.946 265.753 803.529C260.004 774.992 257.879 746.204 258.712 717.125C258.712 716.292 258.92 715.334 258.587 714.667C256.087 710.001 254.254 704.46 250.505 701.211C248.464 699.461 243.006 701.711 238.173 702.294V702.252ZM842.793 157.29C843.418 158.706 843.627 159.331 843.96 159.873C854.667 178.12 865.29 196.368 876.163 214.49C877.205 216.24 879.455 217.739 881.454 218.364C918.574 229.446 954.152 244.236 988.48 262.108C990.022 262.9 991.647 263.608 994.48 264.941C992.98 262.941 992.397 262.025 991.647 261.233C974.399 243.402 957.568 225.155 939.779 207.866C906.992 176.079 906.742 176.329 873.206 165.747C872.081 165.414 870.997 165.039 869.873 164.706C861.082 162.289 852.334 159.915 842.835 157.332L842.793 157.29ZM407.732 457.746C407.274 459.371 407.149 459.663 407.149 459.954C405.774 515.904 407.274 571.771 410.19 627.638C410.315 630.429 411.44 631.304 414.064 631.554C422.855 632.387 431.604 633.387 440.394 634.304C441.477 634.429 442.56 634.137 443.893 634.054C440.061 606.391 439.477 578.979 441.769 551.524C441.935 549.483 441.102 547.275 440.352 545.317C433.853 527.861 427.271 510.447 420.772 492.991C416.522 481.659 412.356 470.286 407.732 457.746ZM1265.69 516.446C1263.86 518.071 1262.65 519.529 1261.11 520.487C1256.86 523.112 1256.4 526.278 1257.9 530.986C1264.9 552.732 1269.69 574.979 1272.06 597.726C1272.44 601.434 1273.81 603.433 1277.48 604.933C1299.93 614.14 1322.26 623.639 1344.64 633.054C1346.01 633.637 1347.43 634.137 1350.14 635.137C1323.39 593.518 1296.06 554.232 1265.61 516.488L1265.69 516.446ZM892.161 990.877C902.493 988.502 911.867 986.877 920.907 984.253C944.028 977.504 966.984 970.255 990.064 963.381C995.479 961.756 993.73 957.382 994.188 953.966C994.646 950.383 991.397 951.008 989.355 950.424C968.525 944.217 947.653 938.135 926.865 931.844C922.032 930.386 917.407 928.178 912.45 926.22C905.701 947.758 899.077 968.797 892.161 990.877ZM506.343 378.424C498.052 399.505 490.053 419.877 481.846 440.79C510.509 442.248 537.838 443.665 565.667 445.081C565.667 439.457 566 434.166 565.5 428.917C565.292 426.626 564.043 423.793 562.293 422.418C551.169 413.419 539.796 404.754 528.548 395.964C521.382 390.381 514.258 384.715 506.343 378.466V378.424ZM749.349 202.7C737.392 188.035 726.102 174.079 714.646 160.248C713.937 159.415 711.646 159.081 710.438 159.54C698.815 163.831 688.149 169.83 678.317 177.454C671.027 183.078 667.111 189.16 668.819 198.951C670.235 207.324 669.777 216.031 670.194 225.405C695.232 212.365 721.311 205.616 749.39 202.742L749.349 202.7ZM442.06 112.338C441.644 112.63 441.185 112.88 440.894 113.255C412.106 144.125 394.526 180.662 386.277 221.864C386.027 223.114 385.985 224.697 386.568 225.738C390.901 233.571 395.026 241.653 400.191 248.902C401.608 250.86 406.441 250.735 409.69 250.776C410.44 250.776 411.69 247.86 412.023 246.11C416.356 224.447 420.064 202.617 424.938 181.036C430.104 158.04 436.311 135.293 442.102 112.297L442.06 112.338ZM227.05 449.289C220.259 444.54 214.302 440.04 208.011 436.041C196.096 428.5 183.39 422.793 169.225 420.918C140.021 417.044 120.399 437.832 126.648 465.662C159.768 460.288 192.847 454.872 227.05 449.331V449.289ZM1171 742.496C1167.83 755.953 1164.87 768.409 1162.08 780.866C1161.83 781.949 1162.54 783.449 1163.16 784.574C1170.62 797.572 1178.04 810.57 1185.7 823.485C1186.87 825.443 1188.95 826.859 1191.41 829.275C1202.07 814.403 1212.11 800.405 1222.4 786.073C1204.99 771.326 1188.37 757.244 1171.04 742.538L1171 742.496ZM307.455 782.449C308.205 779.824 308.621 778.366 308.996 776.95C315.246 752.703 319.495 728.123 321.328 703.127C321.828 696.253 321.911 695.67 315.037 695.67C302.414 695.67 289.749 696.461 277.126 697.086C275.96 697.128 273.96 698.378 273.877 699.211C273.293 704.419 272.252 709.543 274.96 714.792C283.375 731.206 291.499 747.829 299.581 764.452C302.247 769.951 304.497 775.658 307.455 782.449ZM950.778 563.772C951.194 563.522 951.611 563.272 951.986 563.064C950.444 555.065 953.486 546.483 948.153 538.984C947.528 538.068 947.403 536.068 947.986 535.152C951.194 530.111 949.111 524.82 949.069 519.612C949.069 516.363 947.653 515.03 944.487 514.405C932.905 512.03 921.407 509.28 909.867 506.864C890.995 502.948 872.081 499.157 853.208 495.282C853.042 495.657 852.834 496.074 852.667 496.449C885.371 518.904 918.074 541.317 950.778 563.772ZM1178.66 421.251C1141.96 384.382 1102.71 350.803 1059.51 321.891C1059.59 322.891 1059.93 323.599 1060.34 324.266C1073.18 344.138 1085.97 364.01 1098.92 383.757C1100.17 385.673 1102.42 387.256 1104.59 388.173C1119.04 394.589 1133.63 400.713 1148.08 407.087C1158.33 411.628 1168.5 416.461 1178.66 421.168V421.251ZM1089.17 777.616C1107.13 785.948 1124.13 793.822 1141.54 801.946C1142.75 797.78 1143.62 793.739 1145.12 789.906C1146.75 785.782 1145.96 782.449 1143.71 778.741C1133.88 762.743 1124.29 746.537 1114.63 730.456C1113.67 728.832 1112.59 727.29 1110.84 724.666C1103.38 742.913 1096.34 760.077 1089.17 777.616ZM282.709 631.638C280.042 648.802 277.459 665.591 274.918 682.13H322.953C321.995 667.257 321.12 652.676 319.995 638.137C319.912 637.178 318.287 635.679 317.245 635.512C306.039 634.095 294.832 632.929 282.75 631.596L282.709 631.638ZM1226.99 599.934C1231.82 621.014 1237.61 641.553 1241.07 662.466C1244.53 683.422 1245.65 704.794 1247.78 725.457C1247.4 725.832 1247.78 725.665 1247.78 725.416C1258.77 689.504 1262.48 652.801 1259.73 615.39C1259.65 614.098 1258.36 612.265 1257.19 611.765C1247.07 607.641 1236.82 603.767 1226.99 599.934ZM514.3 788.281C514.591 787.323 514.716 787.157 514.716 787.032C506.134 742.33 493.636 698.669 479.555 655.467C479.18 654.301 477.805 652.801 476.68 652.634C471.639 651.801 466.557 651.385 460.891 650.718C470.723 700.044 489.095 745.163 514.3 788.281ZM966.025 545.9C966.025 554.482 966.192 561.773 965.942 569.063C965.817 572.813 967.15 575.104 970.233 577.229C990.522 591.143 1010.69 605.266 1030.89 619.348C1036.39 623.18 1041.89 627.055 1047.39 630.929C1047.76 630.513 1048.14 630.096 1048.51 629.68C1029.14 593.976 1003.19 564.689 965.984 545.942L966.025 545.9ZM161.851 615.89C183.723 640.761 204.72 664.633 225.8 688.421C226.633 689.379 228.383 690.212 229.508 690.046C233.924 689.379 238.257 688.254 242.798 687.254C242.423 686.296 242.256 685.63 241.923 685.088C228.258 664.591 214.635 644.052 200.887 623.597C200.054 622.347 198.388 621.139 196.971 620.931C185.64 619.139 174.308 617.598 161.893 615.848L161.851 615.89ZM1106.46 933.427C1143.37 921.22 1171.04 899.099 1191.99 868.311C1192.7 867.312 1192.91 865.353 1192.41 864.27C1190.83 860.854 1188.78 857.646 1186.83 854.23C1185.91 854.938 1185.37 855.313 1184.91 855.772C1164.25 876.644 1141.67 895.224 1117.54 911.93C1116.5 912.68 1115.38 913.638 1114.88 914.763C1112.17 920.595 1109.63 926.511 1106.55 933.469L1106.46 933.427ZM396.942 375.175C397.15 374.05 397.4 372.967 397.525 371.842C399.983 346.804 401.816 321.724 405.149 296.811C406.524 286.604 404.816 279.064 398.4 270.898C393.484 264.608 388.61 263.691 381.527 264.858C380.819 302.519 386.485 339.097 396.942 375.175ZM1329.01 465.953C1318.6 473.744 1309.31 480.743 1300.14 487.617C1325.43 505.489 1350.47 523.195 1375.51 540.942C1375.88 540.734 1376.22 540.567 1376.59 540.359C1360.88 515.821 1345.18 491.283 1329.01 465.995V465.953ZM703.105 146.083C686.566 125.753 669.61 104.881 652.779 84.2173C657.737 112.255 662.653 140.167 667.402 167.164C678.817 160.414 690.899 153.291 703.105 146.083ZM1160.71 716.375C1164.83 688.213 1165.7 660.8 1164.29 633.262C1163.75 633.054 1163.2 632.846 1162.7 632.596C1151.08 651.801 1139.46 671.007 1127.75 690.379C1139.12 699.336 1149.62 707.626 1160.71 716.375ZM1246.03 536.443L1244.32 536.318C1242.57 537.984 1240.74 539.609 1239.07 541.359C1231.9 548.775 1224.74 556.232 1217.7 563.772C1216.2 565.397 1213.78 567.938 1214.24 569.272C1215.74 573.896 1217.2 580.395 1220.7 582.103C1232.4 587.894 1244.94 591.893 1257.19 596.601C1257.73 596.351 1258.27 596.143 1258.82 595.893C1254.57 576.062 1250.32 556.232 1246.03 536.443ZM219.135 624.014C219.343 624.972 219.343 625.513 219.593 625.888C231.966 644.844 244.339 663.799 256.754 682.713C257.379 683.672 258.712 684.172 259.712 684.838C260.254 683.713 261.045 682.63 261.253 681.464C263.795 665.008 266.294 648.552 268.711 632.096C268.794 631.429 268.377 630.679 268.211 629.971C251.713 627.971 235.59 626.013 219.135 623.972V624.014ZM1145.67 480.118C1145.42 480.285 1145.12 480.451 1144.87 480.618C1145.25 481.826 1145.62 483.034 1146 484.284C1152.25 504.614 1158.58 524.903 1164.7 545.275C1166.58 551.441 1166.16 559.398 1170 563.606C1173.83 567.855 1181.7 568.397 1187.78 570.646C1190.03 571.48 1191.95 572.354 1193.95 569.813C1195.87 567.314 1197.2 565.522 1195.53 561.981C1184.74 539.443 1172.5 517.737 1158.12 497.24C1154.08 491.45 1149.83 485.825 1145.67 480.118ZM461.932 454.372H421.313C429.395 476.118 437.269 497.407 445.352 519.196C450.934 497.282 456.35 476.118 461.932 454.372ZM1150.37 822.151C1142.42 844.065 1134.63 865.479 1126.71 887.35C1127.79 886.892 1128.29 886.767 1128.67 886.475C1144.87 872.186 1161.12 857.938 1177.29 843.607C1180.99 840.357 1178.41 837.483 1175.79 835.941C1167.54 831.067 1158.96 826.734 1150.42 822.11L1150.37 822.151ZM780.469 74.0104C780.136 74.302 779.844 74.5937 779.511 74.8853C779.886 75.4685 780.177 76.0518 780.594 76.5934C796.883 97.2154 813.173 117.837 829.545 138.418C830.587 139.709 832.295 140.876 833.92 141.292C847.418 144.833 860.999 148.166 874.539 151.582C875.164 151.749 875.788 151.749 876.413 151.791C876.58 151.416 876.747 151.083 876.913 150.708C844.751 125.17 812.589 99.59 780.427 74.0521L780.469 74.0104ZM886.954 359.261C903.368 382.341 918.949 404.212 934.572 426.209C934.863 425.751 935.03 425.584 935.03 425.501C929.364 402.254 923.698 379.008 917.866 355.803C917.616 354.845 915.366 353.595 914.283 353.803C905.493 355.386 896.702 357.302 886.954 359.302V359.261ZM285.583 617.89C296.665 619.098 306.955 620.222 317.87 621.389C314.162 598.351 308.663 576.729 299.165 555.94C294.707 576.312 290.249 596.643 285.583 617.89ZM259.879 460.579C271.544 476.785 282.917 492.616 294.79 509.072C297.373 491.741 299.873 474.869 302.497 457.163C287.5 458.371 273.752 459.454 259.879 460.537V460.579ZM274.501 742.871C274.002 742.996 273.502 743.163 272.96 743.288C272.96 744.579 272.918 745.871 272.96 747.121C273.835 770.617 277.543 793.739 282.959 816.611C284.333 822.36 287.625 825.818 292.541 828.859C293.749 825.651 294.54 822.568 295.998 819.777C301.331 809.57 300.498 799.946 295.373 789.615C287.791 774.325 281.375 758.452 274.46 742.871H274.501ZM1151.75 764.91C1153.96 754.078 1156 744.829 1157.58 735.497C1157.87 733.873 1156.66 731.29 1155.33 730.165C1145.17 721.833 1134.79 713.709 1124.46 705.585C1123.63 704.919 1122.54 704.585 1121.75 704.21C1118.25 707.835 1118.54 711.084 1121.21 714.709C1123.75 718.208 1125.79 722.041 1128.04 725.749C1135.71 738.372 1143.37 751.037 1151.79 764.951L1151.75 764.91ZM536.671 944.05C537.588 942.759 537.921 942.426 538.046 942.009C544.962 920.887 551.919 899.765 558.627 878.56C559.085 877.102 558.127 874.727 557.085 873.352C553.003 867.895 548.586 862.687 544.295 857.396C542.712 855.438 541.171 853.522 539.629 851.564C541.213 882.476 541.921 912.805 536.63 944.092L536.671 944.05ZM323.703 913.263C324.244 913.097 324.786 912.972 325.286 912.805C324.536 904.681 323.494 896.599 323.161 888.475C322.828 879.06 319.578 871.644 311.746 865.978C306.913 862.437 302.831 857.855 298.373 853.772C297.831 854.022 297.331 854.23 296.79 854.48C297.082 856.73 296.79 859.229 297.706 861.229C302.581 872.186 307.538 883.059 312.829 893.808C316.12 900.473 320.036 906.806 323.661 913.305L323.703 913.263ZM912.742 339.638L912.908 337.722C896.119 333.264 879.288 328.807 862.499 324.349C866.998 332.264 871.873 339.18 877.122 345.762C877.955 346.804 880.579 347.096 882.121 346.762C890.536 344.846 898.827 342.638 907.201 340.555C908.992 340.097 910.908 339.93 912.742 339.597V339.638ZM455.35 585.186C454.683 585.311 454.059 585.394 453.392 585.519C454.933 601.767 456.475 618.015 458.141 634.262C458.225 635.054 459.474 636.262 460.308 636.387C464.474 637.053 468.681 637.387 473.889 637.928C467.473 619.681 461.391 602.433 455.35 585.144V585.186ZM999.354 549.191C999.354 549.191 999.687 548.9 999.854 548.733C994.854 541.109 989.855 533.485 984.814 525.861C984.273 525.07 983.606 523.987 982.773 523.778C976.441 522.07 970.066 520.529 963.609 518.946C962.526 529.486 963.067 530.319 971.733 533.777C974.357 534.818 976.982 535.86 979.44 537.276C986.148 541.151 992.73 545.192 999.354 549.191ZM941.446 739.205C933.239 736.789 925.573 734.539 916.699 731.956C923.948 742.58 930.489 752.162 937.696 762.702C939.071 754.161 940.238 746.871 941.446 739.205ZM1275.48 489.575C1266.81 484.451 1258.73 479.701 1250.65 474.952C1250.44 475.244 1250.28 475.494 1250.07 475.785C1255.82 482.576 1261.52 489.367 1267.44 496.324C1270.19 493.991 1272.56 491.991 1275.48 489.533V489.575ZM648.072 237.153C648.78 237.487 649.447 237.82 650.155 238.112C652.155 236.112 655.696 234.279 655.904 232.112C656.654 225.03 656.196 217.823 656.196 210.699C655.404 210.616 654.612 210.532 653.779 210.491C651.863 219.364 649.988 228.28 648.072 237.153ZM308.663 825.901C306.913 830.525 305.539 833.733 304.497 837.066C304.164 838.107 304.289 839.899 304.955 840.565C307.913 843.607 311.204 846.398 314.329 849.273C314.621 849.064 314.954 848.898 315.246 848.689C313.162 841.565 311.121 834.483 308.621 825.901H308.663ZM655.779 269.94V251.443C648.655 255.317 648.572 255.317 650.155 264.191C650.613 266.816 650.03 270.69 655.779 269.94ZM1092.92 928.053C1086.05 932.177 1079.88 935.885 1072.97 940.009C1087.05 940.426 1089.72 938.843 1092.92 928.053ZM960.276 488.783C960.276 503.698 961.651 505.739 971.525 505.656C967.942 500.282 964.526 495.116 960.276 488.783ZM1256.94 505.573C1252.69 500.49 1248.82 495.824 1244.9 491.158C1244.65 491.366 1244.4 491.533 1244.11 491.741C1246.48 497.824 1248.82 503.906 1251.36 510.447C1253.23 508.822 1254.82 507.447 1256.94 505.614V505.573ZM594.663 447.039C589.164 442.873 584.831 439.582 580.165 435.999C578.999 446.081 579.207 446.373 588.039 446.998C589.664 447.123 591.33 446.998 594.663 446.998V447.039ZM1216.03 821.402C1215.74 821.152 1215.45 820.943 1215.16 820.693C1211.41 825.443 1207.62 830.234 1203.57 835.358C1205.37 836.441 1206.82 837.316 1208.82 838.566C1211.32 832.608 1213.66 827.026 1215.99 821.443L1216.03 821.402ZM1172.2 579.937C1172.95 584.769 1173.58 588.685 1174.37 593.726C1177.45 589.81 1179.74 586.936 1182.41 583.561C1178.79 582.27 1175.91 581.27 1172.2 579.937ZM1094.84 406.92C1093.01 396.422 1084.8 395.38 1077.43 393.256C1083.05 397.63 1088.63 402.046 1094.84 406.92ZM1156.75 801.279C1153.62 809.07 1154.79 810.861 1162.87 811.903C1160.91 808.528 1159.04 805.279 1156.75 801.279ZM480.055 53.2218C478.43 57.0129 477.139 60.0541 475.847 63.0953L476.68 63.5953C479.305 61.7205 481.971 59.8458 484.929 57.7628C483.304 56.263 482.013 55.0132 480.096 53.1801L480.055 53.2218Z" fill="#312678"/>
<path d="M985.854 0.479492C997.56 5.97869 1009.35 11.3529 1021.02 16.9771C1087.51 48.9724 1149.75 88.0917 1209.7 131.002C1268.52 173.121 1324.43 218.864 1379.75 265.399C1397.71 280.522 1416.29 294.853 1434.62 309.518C1436.16 310.726 1438.08 311.476 1439.79 312.434V328.432C1420.12 318.808 1404 304.185 1387.55 290.229C1330.22 241.694 1272.52 193.66 1211.65 149.541C1138.41 96.4655 1062.09 48.6808 978.647 13.061C968.44 8.68663 958.108 4.64555 947.859 0.479492C960.524 0.479492 973.189 0.479492 985.854 0.479492Z" fill="#312678"/>
<path d="M1243.82 0.479492C1257.4 13.7276 1270.9 27.059 1284.6 40.182C1329.22 82.8842 1371.55 127.586 1406.67 178.62C1417.71 194.66 1427.37 211.574 1437.66 228.113C1438.37 229.238 1439.08 230.321 1439.79 231.446V262.441C1439.29 261.816 1438.62 261.316 1438.33 260.608C1417.96 215.823 1389.8 176.079 1358.55 138.376C1327.56 101.007 1292.89 67.0948 1257.73 33.683C1246.23 22.8096 1235.11 11.5612 1223.82 0.479492C1230.49 0.479492 1237.15 0.479492 1243.82 0.479492Z" fill="#312678"/>
<path d="M1439.79 797.364C1430.67 797.447 1422.67 794.072 1416.21 788.032C1398.79 771.617 1381.63 754.911 1364.63 738.039C1355.22 728.665 1346.34 718.708 1337.22 709.001C1336.1 707.793 1334.97 706.543 1334.05 705.127C1332.22 702.294 1331.8 698.836 1334.72 697.128C1336.8 695.878 1340.8 695.545 1342.68 696.753C1347.05 699.669 1350.84 703.544 1354.55 707.377C1372.67 725.957 1390.5 744.829 1408.79 763.243C1414.88 769.368 1421.83 774.575 1428.67 779.866C1431.79 782.282 1435.46 784.282 1439.75 782.366V797.364H1439.79Z" fill="#312678"/>
<path d="M1378.8 0.479492C1392.92 12.0611 1407.13 23.5595 1421.08 35.3494C1427.54 40.807 1433.54 46.7644 1439.79 52.4719V72.469C1434.67 67.5114 1429.5 62.6371 1424.46 57.6378C1403.96 37.2658 1381.51 19.3101 1357.64 3.06245C1356.59 2.35422 1355.76 1.35436 1354.8 0.479492C1362.8 0.479492 1370.8 0.479492 1378.8 0.479492Z" fill="#312678"/>
</svg>
