<svg width="1441" height="944" viewBox="0 0 1441 944" fill="none" xmlns="http://www.w3.org/2000/svg">
<path d="M405.335 -28C410.001 -28 414.667 -28 419.333 -28C420.208 -25.8336 420.958 -23.6257 421.958 -21.5427C452.953 44.0728 484.324 109.48 514.736 175.345C520.985 188.885 529.776 197.717 542.274 205.549C556.522 214.506 569.686 215.798 585.809 212.715C646.633 201.008 707.624 190.302 768.657 179.928C824.774 170.388 881.058 161.722 937.299 152.765C940.715 152.224 942.84 150.766 944.673 147.808C958.921 124.728 973.377 101.731 987.792 78.7344C995.541 66.3612 1003.29 53.9464 1011.21 41.2399C1009.29 40.1151 1007.75 39.1985 1006.21 38.3237C968.961 17.2851 931.717 -3.75358 894.472 -24.7922C892.972 -25.6671 891.639 -26.8752 890.264 -27.9584C899.263 -27.9584 908.262 -27.9584 917.261 -27.9584C917.927 -27.4584 918.552 -26.9168 919.26 -26.5002C951.714 -8.25287 984.167 9.95279 1016.66 28.1585C1017.33 28.5334 1018.08 28.7 1019 29.0333C1031.2 9.86943 1043.24 -9.04445 1055.24 -27.9584C1060.24 -27.9584 1065.24 -27.9584 1070.24 -27.9584C1059.99 -11.0442 1049.7 5.87001 1039.41 22.7842C1036.66 27.2836 1033.83 31.6996 1030.79 36.5739C1070.28 59.279 1109.36 81.6923 1148.39 104.106C1148.14 101.564 1147.31 99.9396 1146.44 98.3565C1125.9 60.4871 1105.36 22.5759 1084.9 -15.3352C1082.69 -19.3763 1081.07 -23.7506 1079.2 -27.9584C1083.86 -27.9584 1088.53 -27.9584 1093.19 -27.9584C1118.52 18.3266 1143.89 64.6115 1169.1 111.021C1170.89 114.313 1172.6 115.437 1176.43 114.896C1241.71 105.481 1307.04 96.3985 1372.28 86.8166C1394.98 83.4838 1417.56 79.026 1440.18 75.0683V89.0663C1438.56 89.233 1436.89 89.3162 1435.27 89.6495C1416.1 93.149 1397.07 97.2734 1377.82 100.065C1322.78 108.063 1267.67 115.479 1212.63 123.186C1204.84 124.27 1197.05 125.686 1188.14 127.144C1190.47 128.602 1191.72 129.435 1192.97 130.185C1275.04 179.303 1353.95 233.17 1430.19 290.912C1433.48 293.411 1436.85 295.703 1440.23 298.077V314.075C1438.52 313.117 1436.68 312.367 1435.1 311.242C1422.31 301.952 1409.52 292.62 1396.77 283.246C1331.07 234.795 1263.63 188.968 1193.68 146.891C1191.64 145.683 1189.6 144.475 1186.39 142.517C1261.29 285.788 1339.74 425.434 1411.69 569.121C1416.1 561.622 1420.1 554.707 1424.19 547.874C1429.52 538.917 1434.89 530.002 1440.23 521.045V549.041C1433.43 560.331 1426.6 571.621 1419.9 582.994C1419.44 583.786 1419.6 585.286 1420.06 586.202C1426.73 599.492 1433.52 612.782 1440.23 626.03V657.025C1430.39 637.82 1420.6 618.614 1410.61 599.075C1384.65 639.903 1361.15 681.73 1340.07 725.182C1341.53 726.39 1342.78 727.432 1344.07 728.473C1365.57 745.554 1387.03 762.718 1408.61 779.716C1419.02 787.923 1429.69 795.922 1440.23 804.004V821.001C1439.02 819.877 1437.89 818.627 1436.6 817.627C1411.23 798.13 1385.86 778.716 1360.53 759.177C1351.49 752.22 1342.61 745.096 1333.37 737.805C1331.78 740.846 1330.41 743.304 1329.16 745.846C1303.12 799.088 1276.87 852.205 1251.25 905.656C1240.84 927.402 1231.88 949.858 1222.26 971.979H1208.26C1212.13 961.898 1215.47 951.566 1220.01 941.775C1245.05 887.908 1270.21 834.083 1295.71 780.424C1303.91 763.176 1313.2 746.429 1322.16 729.181C1161.27 599.95 988.125 489.216 813.151 380.774C812.276 382.024 811.734 382.648 811.318 383.357C783.197 434.016 755.076 484.675 726.872 535.251C725.289 538.084 726.455 539.334 728.33 541.042C748.952 559.956 769.365 579.078 790.112 597.909C830.607 634.612 871.392 670.982 911.803 707.726C968.253 759.052 1024.74 810.336 1080.69 862.204C1119.65 898.323 1157.77 935.36 1196.26 971.979H1176.26C1174.35 969.938 1172.51 967.813 1170.47 965.897C1160.89 956.898 1151.14 948.024 1141.6 938.984C1105.52 904.906 1069.9 870.327 1033.37 836.791C976.919 785.007 919.802 733.931 863.018 682.521C822.774 646.068 782.655 609.532 742.494 572.996C734.621 565.83 726.872 558.581 718.831 551.124C709.208 569.621 699.709 587.744 690.419 605.949C689.752 607.282 690.21 609.532 690.752 611.115C718.831 692.603 746.952 774.05 775.198 855.455C775.948 857.579 777.656 859.912 779.572 861.037C840.938 897.865 901.43 936.235 964.629 969.938C965.628 970.48 966.462 971.271 967.336 971.938H938.341C938.091 971.688 937.924 971.396 937.632 971.271C887.598 941.567 837.522 911.863 787.446 882.201C786.571 881.701 785.571 881.451 783.738 880.701C787.446 891.699 790.821 901.74 794.279 911.78C801.277 931.86 808.318 951.899 815.359 971.979H800.361C789.071 939.109 777.822 906.197 766.324 873.369C765.324 870.536 762.95 867.578 760.408 866.078C721.831 843.331 683.17 820.751 644.425 798.255C628.636 789.089 612.68 780.174 596.557 770.967C595.516 772.633 594.599 774.008 593.808 775.425C557.063 840.374 516.569 903.031 475.95 965.564C474.617 967.605 473.617 969.813 472.409 971.938H455.411C461.577 962.314 467.743 952.649 473.95 943.025C511.153 885.575 548.106 828 581.768 768.384C582.559 767.009 583.226 765.551 584.184 763.76C442.788 684.479 302.85 603.45 158.496 529.294C158.496 531.418 158.413 533.043 158.496 534.668C160.871 571.413 163.246 608.116 165.62 644.86C168.078 682.605 170.578 720.308 172.911 758.052C175.91 806.42 178.702 854.83 181.701 903.198C183.118 926.153 184.867 949.066 186.451 971.979H172.453C172.036 967.147 171.536 962.356 171.244 957.523C168.703 915.279 166.329 873.035 163.662 830.792C159.58 765.968 155.33 701.144 151.122 636.278C148.748 599.367 146.373 562.456 143.874 525.586C143.749 523.753 143.207 521.087 141.957 520.337C135.291 516.379 128.334 512.88 121.127 509.047C120.794 510.422 120.585 511.172 120.419 511.921C111.587 560.748 102.755 609.574 93.9642 658.358C84.4239 711.267 74.342 764.093 65.5933 817.127C56.9279 869.453 45.6796 921.07 30.4735 971.854H16.4755C27.2239 931.694 38.514 891.616 45.5546 850.58C53.3451 804.962 61.0106 759.344 69.2178 713.809C81.6743 644.694 94.5474 575.62 107.337 506.589C108.004 502.964 107.004 501.215 103.754 499.673C97.3387 496.549 91.0479 493.091 84.8405 489.55C56.7196 473.427 28.5988 457.179 0.519531 440.973C0.519531 435.974 0.519531 430.975 0.519531 425.976C2.85252 427.225 5.18549 428.475 7.51848 429.767C37.3475 446.598 67.1764 463.47 97.047 480.301C101.338 482.717 105.712 484.925 110.462 487.425C110.92 485.717 111.253 484.634 111.462 483.509C117.044 450.555 122.002 417.435 128.459 384.648C133.042 361.277 130.334 338.363 127.918 314.908C126.334 315.075 125.043 315.117 123.793 315.408C112.128 318.075 100.422 320.658 88.7983 323.49C59.3859 330.614 30.0152 337.822 0.602807 344.987C0.602807 340.321 0.602807 335.655 0.602807 330.989C1.39436 330.698 2.14424 330.323 2.93579 330.156C34.6395 322.449 66.3016 314.7 98.0053 307.034C107.504 304.743 117.002 302.618 126.584 300.452C126.501 298.369 126.459 296.869 126.334 295.411C123.918 270.54 121.96 245.627 119.002 220.797C110.962 152.807 102.588 84.8585 94.1724 16.9518C93.8808 14.6604 92.3393 11.9108 90.5063 10.4944C81.6326 3.49537 72.4256 -3.12864 63.3436 -9.91932C55.3865 -15.8768 47.5126 -21.8759 39.597 -27.875C47.2626 -27.875 54.9282 -27.875 62.5938 -27.875C71.7591 -21.126 80.8828 -14.3353 90.7564 -7.04472C90.3397 -14.7519 89.9647 -21.3343 89.5897 -27.875C93.9224 -27.875 98.2552 -27.875 102.588 -27.875C103.838 -18.2931 104.838 -8.71119 106.421 0.787426C106.879 3.41204 108.504 6.45329 110.587 8.03639C129.584 22.9092 148.748 37.5321 167.912 52.2383C168.495 52.6966 169.286 52.9466 170.245 53.4048C172.703 37.4072 175.036 21.8261 177.577 6.24502C178.077 3.24545 176.66 2.1206 174.411 0.954103C155.788 -8.62783 137.208 -18.2514 118.586 -27.875C129.251 -27.875 139.916 -27.875 150.581 -27.875C160.371 -22.4591 170.161 -17.0433 180.868 -11.1691C181.868 -17.2516 182.743 -22.5841 183.576 -27.875C188.575 -27.875 193.575 -27.875 198.574 -27.875C197.699 -24.0006 196.741 -20.0845 195.908 -16.2101C193.408 -4.54514 193.616 -4.8367 203.698 1.62069C228.819 17.66 253.274 34.7409 278.812 49.9886C351.968 93.649 425.582 136.559 499.03 179.761C499.863 180.261 500.905 180.428 502.404 180.97C501.28 178.637 500.53 176.97 499.738 175.304C476.533 126.852 453.12 78.4845 430.248 29.8666C421.333 10.9527 413.751 -8.62783 405.544 -27.875L405.335 -28ZM1328.53 716.35C1333.16 707.351 1337.07 699.061 1341.62 691.145C1361.28 656.567 1381.03 622.03 1400.94 587.577C1402.65 584.619 1402.69 582.369 1401.15 579.411C1395.48 568.455 1390.36 557.248 1384.57 546.375C1311.74 408.978 1238.88 271.665 1166.1 134.268C1164.52 131.268 1162.77 130.935 1159.72 131.435C1091.48 142.35 1023.2 153.14 955.005 164.139C952.589 164.514 949.714 166.347 948.381 168.346C910.595 226.796 872.934 285.329 835.314 343.904C830.106 351.986 825.232 360.235 820.108 368.526C994.874 476.968 1167.68 587.41 1328.53 716.35ZM590.892 751.595C591.475 750.887 592.016 750.47 592.308 749.887C619.054 703.06 645.842 656.234 672.421 609.282C673.504 607.366 673.338 604.116 672.546 601.95C656.34 557.04 639.968 512.171 623.47 467.345C622.387 464.387 620.22 461.512 617.888 459.387C590.1 433.766 562.271 408.145 534.275 382.732C489.99 342.529 445.621 302.493 401.128 262.499C399.586 261.124 396.587 260.416 394.545 260.791C356.051 267.749 317.515 274.498 279.145 282.122C238.151 290.287 197.366 299.369 156.497 307.993C153.789 308.576 152.622 309.701 152.331 312.534C151.706 318.658 150.539 324.74 149.873 330.864C148.623 342.446 146.04 354.111 146.706 365.568C149.456 412.436 153.289 459.262 156.497 506.13C156.788 510.713 158.205 513.171 162.287 515.254C290.477 581.661 416.084 652.818 541.774 723.807C558.146 733.056 574.477 742.263 590.933 751.553L590.892 751.595ZM543.19 234.17C543.523 235.42 543.565 235.92 543.773 236.336C576.144 306.993 605.014 379.149 632.677 451.763C633.593 454.138 635.385 456.346 637.301 458.096C655.59 474.843 674.004 491.466 692.377 508.172C699.709 514.838 707.083 521.503 714.165 527.919C742.953 476.135 771.448 424.809 800.153 373.15C799.111 372.483 797.778 371.567 796.362 370.734C781.78 362.026 767.241 353.278 752.618 344.654C689.669 307.576 626.678 270.54 563.646 233.504C561.979 232.545 559.938 231.421 558.188 231.587C553.272 232.087 548.398 233.254 543.19 234.17ZM807.61 360.86C848.979 296.744 890.264 232.754 932.175 167.763C814.4 185.261 698.376 206.049 581.393 227.463C657.507 272.331 732.663 316.658 807.61 360.86ZM384.047 247.377C316.473 191.218 252.149 131.477 179.785 78.9427C171.37 151.265 163.121 222.339 154.872 293.203C231.236 277.914 307.225 262.749 384.005 247.377H384.047ZM522.36 223.547C520.152 218.756 517.944 214.506 516.236 210.049C514.569 205.758 511.695 203.091 507.737 200.8C470.659 179.136 433.706 157.265 396.67 135.518C355.509 111.313 314.015 87.5665 273.188 62.8618C247.275 47.1974 222.237 30.0749 196.824 13.6606C195.074 12.5358 193.158 11.6192 190.658 10.286C188.2 26.867 185.951 42.6146 183.409 58.3623C182.785 62.1535 183.659 64.3615 186.784 66.6945C205.531 80.8591 224.57 94.6488 242.567 109.688C294.935 153.515 346.844 197.842 398.878 242.044C401.378 244.169 403.544 244.96 406.918 244.335C428.332 240.336 449.829 236.628 471.284 232.795C488.115 229.796 504.946 226.713 522.36 223.547ZM757.95 847.789C731.996 772.675 706.5 698.894 680.837 624.572C654.716 669.857 629.136 714.184 603.515 758.552C654.799 788.173 705.708 817.585 757.95 847.789ZM609.347 432.766C609.597 432.6 609.847 432.433 610.097 432.225C609.764 431.141 609.43 430.058 609.014 429.017C584.351 365.609 558.896 302.535 530.484 240.669C528.984 237.461 527.442 236.711 524.068 237.336C496.572 242.377 469.034 247.251 441.538 252.209C433.456 253.667 425.374 255.167 417.708 256.584C481.741 315.45 545.523 374.108 609.347 432.766ZM960.171 148.974C1022.91 139.017 1084.15 129.31 1145.39 119.603C1145.48 119.27 1145.56 118.937 1145.69 118.562C1104.98 95.1904 1064.28 71.7771 1023.33 48.2388C1002.37 81.6507 981.626 114.771 960.213 148.974H960.171ZM140.832 291.203C140.916 290.912 141.166 290.162 141.249 289.412C149.914 217.506 158.58 145.558 167.328 73.6518C167.703 70.569 166.703 68.8192 164.329 66.9861C150.789 56.7376 137.374 46.3225 123.876 35.949C119.294 32.4495 114.669 28.9917 109.962 25.4089C120.294 114.438 130.584 202.841 140.874 291.12L140.832 291.203ZM646.133 485.134C645.925 485.3 645.717 485.467 645.467 485.634C657.882 519.837 670.338 554.04 683.045 589.077C684.419 586.66 685.336 585.119 686.169 583.494C692.752 570.788 699.167 557.998 705.916 545.375C707.708 542.084 707.208 540.209 704.5 537.793C692.668 527.294 681.045 516.546 669.338 505.922C661.631 498.923 653.841 492.008 646.092 485.092L646.133 485.134ZM142.54 504.589C140.666 476.885 138.874 450.347 137.083 423.809C132 446.681 127.876 469.594 123.918 492.508C123.751 493.424 124.751 495.049 125.626 495.549C130.792 498.507 136.083 501.215 142.54 504.589Z" fill="#3C3279"/>
</svg>
