<svg width="1440" height="1001" viewBox="0 0 1440 1001" fill="none" xmlns="http://www.w3.org/2000/svg">
<path d="M1013.81 0.0416377C1019.48 0.0416377 1025.14 0.0416377 1030.81 0.0416377C1024.39 10.4984 1018.02 20.9553 1011.56 31.4538C1012.52 32.3703 1012.98 32.8286 1013.48 33.2035C1026.19 43.1187 1038.89 53.1172 1051.72 62.8241C1053.31 64.0323 1056.01 64.5322 1058.06 64.2406C1089.55 60.1578 1121.05 55.8252 1152.54 51.7008C1162.21 50.4093 1171.96 49.4928 1182.58 48.2846C1178.54 31.8287 1174.66 15.9143 1170.79 0C1179.12 0 1187.45 0 1195.79 0C1202.16 13.9146 1208.58 27.746 1214.78 41.7439C1216.07 44.6602 1217.53 45.4934 1220.74 45.2851C1268.23 41.7022 1315.77 40.8274 1363.39 41.9522C1365.84 41.9939 1368.3 41.9522 1371.76 41.9522C1368.34 27.6626 1365.05 13.8313 1361.76 0C1366.43 0 1371.09 0 1375.76 0C1378.8 12.9148 1381.88 25.8296 1384.92 38.7444C1385.47 41.0774 1385.88 42.9521 1389.13 43.1604C1406 44.2852 1422.92 45.7017 1439.79 46.9932V60.9911C1422.96 59.6163 1406.13 58.2414 1390.13 56.95C1397.21 107.818 1404.17 157.852 1411.17 208.261C1420.25 207.553 1430 206.762 1439.79 206.012V219.01C1430.25 219.885 1420.71 220.718 1411.17 221.593C1411.17 224.551 1411.13 226.675 1411.17 228.842C1412.38 271.46 1413.5 314.038 1414.8 356.656C1415.17 368.613 1415.59 380.611 1416.46 392.568C1419.13 429.021 1419.25 465.432 1416.46 501.885C1413.55 539.463 1407.63 576.583 1400.09 613.494C1399.71 615.285 1399.63 617.785 1400.59 619.16C1406.42 627.409 1412.63 635.408 1418.84 643.698C1426.04 638.657 1432.96 633.824 1439.88 629.033V646.031C1436.29 648.614 1432.67 651.197 1428.54 654.155C1433.08 655.696 1436.46 656.863 1439.88 658.029V695.024C1433.17 686.108 1426.46 677.235 1419.75 668.319C1417.21 664.945 1414.55 664.153 1410.92 666.945C1403.13 672.902 1395.34 678.984 1387.17 684.359C1378.05 690.358 1375.8 699.773 1376.26 709.022C1376.93 722.603 1379.76 736.059 1381.8 749.557C1382.05 751.224 1382.92 753.14 1384.09 754.307C1402.63 772.263 1421.25 790.093 1439.88 807.966V827.963C1422 810.34 1404.09 792.718 1386.22 775.095C1386.76 789.01 1388.67 802.008 1389.84 815.09C1394.63 867.915 1399.21 920.783 1403.76 973.608C1404.51 982.357 1404.51 991.189 1404.88 999.938H1391.88C1390.47 981.024 1389.47 962.026 1387.59 943.154C1381.72 883.288 1375.55 823.505 1369.55 763.639C1369.14 759.639 1367.18 757.056 1363.47 755.098C1363.14 756.432 1362.84 757.39 1362.64 758.306C1343.89 836.42 1318.85 912.617 1291.65 988.148C1290.23 992.022 1289.15 996.022 1287.9 999.938H1272.9C1273.44 998.021 1273.86 996.105 1274.52 994.23C1296.06 935.28 1316.23 875.914 1333.22 815.465C1335.14 808.591 1337.02 801.717 1338.93 794.801C1337.68 795.218 1337.18 795.842 1336.81 796.551C1323.98 820.339 1309.35 843.002 1292.9 864.416C1291.27 866.499 1290.6 869.54 1290.06 872.206C1281.31 914.742 1272.61 957.319 1263.9 999.854H1249.9C1249.99 999.021 1249.9 998.188 1250.11 997.396C1256.19 969.609 1262.32 941.863 1268.4 914.075C1269.27 910.034 1269.98 905.91 1270.73 901.827C1271.44 897.911 1272.07 893.995 1272.77 890.079C1270.73 890.912 1269.65 892.162 1268.53 893.37C1245.36 918.783 1220.2 942.113 1192.08 961.902C1172.96 975.4 1152.71 987.273 1132.92 999.854H1100.92C1101.63 999.438 1102.3 998.938 1103.05 998.605C1169.96 967.901 1225.78 922.949 1273.07 866.915C1276.44 862.916 1278.27 858.708 1278.94 853.542C1281.61 832.712 1284.69 811.965 1287.36 791.135C1288.77 780.136 1289.69 769.055 1290.94 757.181C1289.23 758.223 1288.23 758.723 1287.36 759.389C1216.45 814.756 1148.83 873.706 1090.09 942.154C1074.05 960.818 1059.26 980.607 1043.93 999.854H1026.94C1027.39 998.855 1027.73 997.73 1028.39 996.813C1074.8 934.447 1126.84 877.164 1185.58 826.213C1219.53 796.759 1254.78 768.763 1289.36 740.017C1290.94 738.684 1292.44 736.351 1292.56 734.351C1293.48 722.228 1294.15 710.063 1294.44 697.898C1294.48 695.649 1293.27 692.566 1291.56 691.149C1272.19 674.86 1252.65 658.737 1232.95 642.823C1230.86 641.115 1227.57 639.865 1224.91 639.99C1199.66 641.448 1174.41 643.323 1149.17 644.948C1145.88 645.156 1144.79 646.906 1143.83 649.697C1135.42 673.902 1127.59 698.315 1118.17 722.145C1090.22 793.051 1061.47 863.666 1033.43 934.531C1024.94 956.027 1017.73 977.983 1009.9 999.771H994.898C996.065 996.313 997.064 992.772 998.398 989.356C1017.69 939.905 1036.68 890.37 1056.43 841.086C1081.09 779.428 1106.22 717.979 1127.46 655.03C1128.17 652.905 1128.75 650.78 1129.88 647.114C1110.3 651.947 1092.09 656.529 1073.85 660.945C1070.35 661.779 1068.55 663.57 1067.64 667.07C1066.51 671.402 1064.85 675.61 1063.22 679.776C1055.1 700.523 1046.06 720.978 1038.89 742.059C1017.98 803.216 987.732 859.083 946.322 908.784C942.739 913.075 942.198 916.2 944.364 921.407C955.071 946.862 964.403 972.858 970.902 999.771H956.904C949.696 974.983 941.781 950.445 931.949 927.74C910.244 946.612 888.747 965.276 866.667 984.482C871 989.106 875.957 994.439 880.915 999.771H850.919C850.294 997.98 849.669 996.23 848.794 993.73C845.587 995.897 842.754 997.855 839.921 999.771H807.925C817.341 994.897 826.923 990.231 836.171 985.107C847.92 978.607 847.836 978.441 841.629 966.276C841.546 966.151 841.379 966.068 841.129 965.818C797.594 986.44 754.059 996.396 711.023 963.735C706.232 975.983 701.566 987.898 696.9 999.771H681.902C687.526 985.19 693.276 970.609 698.692 955.944C699.316 954.236 698.858 951.32 697.733 949.862C689.485 939.238 683.111 927.615 678.653 914.95C676.32 908.326 674.404 901.535 672.987 896.953C672.987 907.909 673.237 920.866 672.945 933.864C672.445 955.861 671.612 977.816 670.904 999.771H656.906C656.906 998.938 656.781 998.105 656.823 997.271C660.239 952.32 659.406 907.41 655.781 862.499C650.199 793.135 639.492 724.644 621.328 657.404C620.328 653.655 618.703 651.322 614.995 650.03C579.584 637.449 544.214 624.742 508.803 612.119C507.469 611.619 505.97 611.494 504.512 611.203C503.803 612.494 503.262 613.494 502.679 614.494C489.93 636.324 477.391 658.321 464.309 679.943C461.351 684.817 461.184 688.4 463.434 693.524C502.512 783.428 534.84 875.622 557.962 970.984C558.504 973.275 560.253 975.941 562.253 977.149C572.335 983.315 582.625 989.064 592.915 994.897C595.873 996.605 598.956 998.146 601.956 999.771H549.963C549.422 997.188 548.588 994.605 548.338 991.98C547.755 985.773 544.964 981.274 539.632 977.816C535.091 974.858 531.133 970.859 526.967 967.318C523.842 964.61 520.759 961.86 516.677 958.277C523.842 972.983 530.383 986.398 536.882 999.813H521.884C511.927 980.107 502.179 960.277 490.555 942.279C489.68 961.36 488.764 980.607 487.889 999.813H473.891C474.099 998.688 474.433 997.521 474.516 996.396C476.766 970.442 476.349 944.487 473.391 918.575C473.058 915.742 471.766 912.784 470.142 910.409C447.395 877.081 422.357 845.544 395.527 815.423C388.362 807.382 381.071 799.467 373.739 791.343C335.036 828.671 293.751 860.75 241.425 875.997C242.592 878.789 243.508 881.122 244.466 883.371C261.714 923.907 282.419 962.568 305.957 999.813H288.96C288.627 998.896 288.46 997.896 287.96 997.105C265.172 960.652 245.758 922.449 229.177 882.788C227.76 879.372 225.844 879.414 223.011 879.914C205.889 882.955 188.641 883.996 171.31 882.33C168.519 882.08 167.519 882.996 166.936 885.621C162.353 906.41 157.437 927.115 153.063 947.945C149.438 965.193 146.314 982.524 142.981 999.813H128.983C133.649 975.816 138.149 951.736 143.064 927.782C146.314 911.992 150.147 896.328 153.73 880.747C153.23 880.413 152.98 880.122 152.646 880.038C149.397 879.289 146.147 878.58 142.898 877.83C96.8211 867.29 67.2421 839.461 54.7023 793.718C45.9536 761.764 45.6203 729.519 51.5361 697.19C59.2433 655.03 75.1578 615.827 95.6964 578.416C96.8629 576.249 98.0295 574.125 99.4043 571.583C85.7813 563.376 72.6165 555.294 59.2851 547.504C56.5355 545.92 53.1191 544.837 49.9529 544.754C33.2887 544.254 16.6662 544.129 0.00195312 543.921C0.00195312 539.588 0.00195312 535.255 0.00195312 530.923H28.1645C28.1645 530.381 28.2479 529.84 28.2479 529.256C18.8327 523.799 9.41724 518.341 0.00195312 512.925C0.00195312 507.926 0.00195312 502.927 0.00195312 497.927C1.66838 498.594 3.41809 499.094 4.91787 499.969C21.5404 509.468 38.1215 519.091 54.7857 528.465C57.2853 529.881 60.3266 530.839 63.2012 531.006C80.4904 532.006 97.821 532.381 115.11 533.631C121.026 534.047 124.859 532.756 127.567 527.382C129.108 524.299 131.816 521.799 133.524 518.758C134.649 516.716 135.482 514.133 135.399 511.842C134.649 487.221 133.524 462.558 132.899 437.936C132.774 433.728 131.566 431.979 127.608 430.646C99.5291 421.022 71.9083 410.44 46.287 395.192C33.6222 387.652 21.7071 379.153 12.7918 367.155C1.29346 351.699 -0.164516 335.409 9.29243 318.537C12.042 313.621 15.5831 309.122 19.1243 304.747C23.457 299.331 28.2063 294.249 32.9139 288.916C27.0814 284.5 20.1657 279.084 13.0834 273.877C8.83406 270.752 4.37631 267.961 0.00195312 265.045C0.00195312 259.046 0.00195312 253.046 0.00195312 247.047C14.2915 257.671 28.6229 268.253 42.7874 279.001C45.4121 280.959 47.2033 281.251 50.2029 279.459C58.3684 274.668 66.6589 270.002 75.2409 266.003C100.529 254.13 127.192 246.464 154.521 241.132C158.854 240.298 161.02 238.632 162.062 234.216C163.603 227.592 165.77 221.093 168.061 214.677C169.352 211.053 169.102 208.261 166.769 205.012C149.314 181.099 131.983 157.06 114.694 133.022C112.777 130.314 110.611 129.148 107.278 129.065C73.3246 128.273 39.4128 127.356 5.45948 126.482C3.62641 126.44 1.83506 126.232 0.0436544 126.107C0.0436544 121.774 0.0436544 117.441 0.0436544 113.109C1.21015 112.984 2.33506 112.734 3.50155 112.775C33.7888 113.359 64.0343 113.983 94.3216 114.608C96.1963 114.608 98.0711 114.608 100.612 114.608C99.3209 112.734 98.6127 111.609 97.8212 110.567C80.5737 87.1124 63.1178 63.824 46.1202 40.1608C36.705 27.0794 28.0396 13.498 19.0409 0.124977C24.7067 0.124977 30.3726 0.124977 36.0385 0.124977C36.955 1.87472 37.6631 3.70781 38.8296 5.29091C64.9508 41.2857 91.0722 77.2387 117.36 113.109C118.443 114.567 120.776 115.733 122.651 115.9C149.647 118.608 176.685 121.191 203.722 123.607C205.305 123.732 207.68 122.274 208.596 120.857C212.388 115.025 215.637 108.776 219.387 102.86C226.219 92.0699 233.26 81.3631 240.342 70.4897C239.384 69.6148 238.592 68.74 237.717 68.0734C220.553 54.617 203.514 40.994 186.1 27.871C173.352 18.289 160.104 9.37363 147.064 0.124977C155.396 0.124977 163.728 0.124977 172.06 0.124977C172.893 0.874868 173.727 1.66639 174.643 2.37462C191.807 15.2061 209.055 27.9542 226.177 40.9107C233.801 46.7015 241.175 52.8256 248.549 58.6998C263.88 38.9526 278.961 19.5388 294.084 0.124977C299.75 0.124977 305.416 0.124977 311.082 0.124977C310.748 0.833207 310.498 1.6664 310.04 2.24964C300.292 14.7062 290.46 27.0794 280.794 39.5776C273.587 48.9095 266.671 58.4082 259.672 67.7402C260.339 68.6567 260.589 69.115 260.922 69.4066C289.793 94.1113 317.247 120.274 343.452 147.77C345.16 149.562 347.784 150.895 350.201 151.603C363.657 155.352 377.155 158.935 390.695 162.31C392.445 162.768 395.111 162.393 396.444 161.268C426.69 136.063 460.726 117.608 497.471 103.818C499.387 103.11 501.387 101.735 502.512 100.11C515.885 80.6966 531.133 62.9492 548.464 46.9515C550.547 45.0351 550.963 43.5353 549.63 40.994C545.214 32.6202 541.09 24.0798 536.674 15.6644C533.924 10.4151 530.924 5.24925 528.008 0.083339C533.341 0.083339 538.673 0.083339 544.006 0.083339C550.13 11.54 556.254 22.9966 562.42 34.6199C566.836 31.2871 570.752 27.9542 575.043 25.163C588.291 16.6642 601.664 8.41546 614.954 0.083339C625.619 0.083339 636.284 0.083339 646.949 0.083339C645.699 0.83323 644.449 1.62478 643.158 2.29135C632.035 7.95719 620.536 12.9564 609.871 19.3722C595.415 28.0792 581.584 37.9111 567.752 47.0348C571.585 57.6999 575.126 66.8236 578.084 76.1556C579.292 79.905 581 80.53 584.542 79.8217C641.825 68.615 699.65 64.324 757.974 67.6985C761.391 67.9068 764.848 67.6985 768.348 67.6985C768.473 67.0736 768.681 66.6153 768.64 66.1571C766.39 44.1186 764.14 22.1218 761.891 0.083339C766.557 0.083339 771.222 0.083339 775.888 0.083339C776.263 3.04124 776.763 5.99914 777.055 8.9987C778.93 27.5377 780.888 46.1183 782.513 64.6989C782.888 68.7816 784.429 69.8649 788.304 70.0732C795.927 70.5314 803.593 71.2813 811.133 72.5311C839.671 77.3637 868.167 82.5296 896.704 87.4873C908.577 89.5703 920.492 92.5699 932.699 86.9874C931.782 85.7792 930.949 84.6127 930.033 83.4879C915.576 65.6155 900.745 47.993 889.455 27.871C884.623 19.2472 880.623 10.2902 880.873 0.083339H894.871C894.704 10.1235 899.287 18.5806 904.745 26.2878C916.701 43.1187 929.575 59.2413 941.656 75.9889C946.28 82.4463 951.071 85.4875 958.987 82.2797C962.153 80.9882 965.861 81.0715 969.194 80.03C970.86 79.5301 972.86 78.2802 973.61 76.7805C978.984 66.0737 984.108 55.2419 989.191 44.3685C989.732 43.1604 990.149 41.244 989.565 40.2858C986.233 34.9532 983.15 29.579 977.276 26.2045C959.487 16.0393 941.323 6.70733 921.867 0.0416377H978.859C984.983 8.70704 989.524 18.7889 1000.19 24.0382C1004.86 15.831 1009.35 7.95715 1013.85 0.0416377H1013.81ZM863.084 796.217C864.626 793.718 865.334 792.635 866 791.51C883.373 761.389 906.036 735.851 933.407 714.604C965.777 689.441 1001.9 671.194 1040.39 657.321C1043.47 656.196 1045.27 654.988 1045.81 651.322C1052.47 606.662 1054.1 561.793 1052.43 516.758C1052.31 513.509 1051.18 511.592 1048.43 509.967C1008.02 486.096 967.652 462.183 927.283 438.186C924.492 436.52 922.659 436.895 920.326 439.019C910.244 448.226 900.245 457.558 889.747 466.265C882.915 471.973 878.54 477.722 883.331 486.762C883.415 486.887 883.414 487.096 883.456 487.262C886.831 504.26 884.831 520.383 871.458 532.339C864.292 538.755 860.418 545.462 860.126 554.669C860.126 555.502 859.918 556.336 859.835 557.127C855.627 596.205 850.628 635.199 847.462 674.318C844.879 706.314 844.42 738.518 843.17 770.638C843.087 772.846 844.004 775.637 845.42 777.262C850.878 783.553 856.71 789.468 863.001 796.176L863.084 796.217ZM597.956 300.29C597.581 302.039 597.331 302.831 597.206 303.664C591.291 357.073 580.292 409.44 564.878 460.933C564.17 463.307 564.586 466.515 565.628 468.89C573.168 486.304 581.209 503.468 588.624 520.924C590.499 525.34 592.874 527.298 597.54 527.923C633.493 532.964 669.279 539.005 705.315 543.046C728.437 545.629 751.85 545.379 775.097 546.462C779.18 546.67 780.513 545.129 780.596 541.046C780.804 532.047 781.804 523.09 782.013 514.092C783.013 469.307 783.888 424.521 784.721 379.736C784.721 378.195 784.554 375.945 783.554 375.154C776.555 369.613 770.056 362.489 762.016 359.406C718.897 342.7 675.445 326.952 631.993 311.08C620.953 307.039 609.58 303.956 597.915 300.29H597.956ZM876.082 395.776C876.499 394.193 876.707 393.401 876.874 392.609C895.705 307.955 917.16 224.009 946.739 142.354C947.364 140.646 946.989 138.063 946.072 136.438C941.281 127.69 936.24 119.066 931.116 110.484C930.324 109.151 928.908 107.526 927.575 107.359C922.576 106.693 917.201 105.276 912.535 106.401C873.624 116.025 834.838 126.148 796.011 136.189C788.512 138.147 788.72 138.313 789.22 145.812C790.845 170.559 792.844 195.305 793.844 220.093C795.636 265.003 796.844 309.955 798.177 354.907C798.26 358.156 799.219 359.864 802.343 361.239C818.299 368.363 834.13 375.695 849.961 383.111C858.502 387.11 866.959 391.36 876.041 395.734L876.082 395.776ZM1285.11 244.006C1285.61 246.631 1285.73 247.756 1286.06 248.88C1313.77 347.449 1332.39 447.935 1350.01 548.628C1350.55 551.628 1351.85 554.711 1353.6 557.169C1361.47 567.917 1369.64 578.457 1377.68 589.081C1378.51 590.164 1379.51 591.122 1380.84 592.622C1381.22 590.872 1381.47 589.956 1381.59 588.998C1392.01 521.757 1398.13 454.1 1400.01 386.069C1400.21 377.945 1400.09 369.696 1399.13 361.614C1397.34 346.741 1395.46 331.827 1392.51 317.162C1388.05 294.999 1382.76 273.002 1377.51 251.005C1376.22 245.548 1376.51 242.173 1380.05 240.548C1383.59 238.923 1387.97 240.757 1390.13 245.548C1392.13 249.922 1393.46 254.588 1394.84 259.212C1396.38 264.503 1397.59 269.919 1398.92 275.293C1399.26 275.252 1399.59 275.168 1399.88 275.127C1398.92 258.087 1397.96 241.048 1396.92 222.634C1359.14 229.883 1322.39 236.924 1285.11 244.089V244.006ZM156.896 866.207C157.229 865.332 157.604 864.749 157.729 864.083C165.478 828.129 173.31 792.176 180.809 756.182C181.601 752.307 181.309 747.849 180.226 744.058C167.394 698.523 155.896 652.697 147.605 606.078C147.272 604.245 146.481 601.912 145.106 600.996C134.066 593.622 122.817 586.498 111.486 579.207C110.611 580.54 109.903 581.457 109.361 582.457C92.0302 613.411 78.2407 645.781 69.4503 680.151C60.1183 716.562 57.9102 753.182 68.0337 789.802C79.7404 832.045 105.32 858.292 156.896 866.207ZM1222.24 59.1581C1245.4 115.733 1264.32 173.016 1280.94 230.55C1319.43 223.217 1357.39 216.01 1395.76 208.72C1395.05 201.096 1394.38 193.18 1393.59 185.223C1389.47 143.437 1383.17 101.944 1375.18 60.6995C1374.59 57.6166 1373.59 56.1169 1370.14 56.1585C1328.68 56.7001 1287.19 57.0334 1245.74 57.575C1238.15 57.6583 1230.57 58.5748 1222.24 59.1164V59.1581ZM775.139 142.854C773.805 143.021 773.264 142.979 772.806 143.146C715.606 160.56 659.489 180.974 604.33 204.012C601.622 205.137 601.164 206.803 601.206 209.428C601.456 218.926 601.622 228.425 601.497 237.924C601.497 240.84 602.789 241.965 605.08 243.048C664.78 271.919 721.355 305.914 773.139 347.574C776.18 350.032 780.138 351.366 784.471 353.615C782.929 282.542 780.596 212.844 775.139 142.896V142.854ZM229.135 556.586C225.136 579.916 221.47 602.412 217.262 624.784C216.095 630.991 217.512 634.449 222.678 638.282C265.338 669.777 305.707 703.981 343.535 741.1C353.617 750.974 363.449 761.097 374.031 771.721C384.321 760.223 394.319 749.141 404.11 737.851C405.109 736.684 404.943 734.06 404.651 732.268C403.318 724.894 401.86 717.562 400.11 710.272C398.277 702.731 397.361 694.607 393.736 687.983C371.364 647.031 345.035 608.536 316.914 571.333C315.581 569.584 313.081 568.126 310.915 567.792C296.125 565.376 281.294 563.21 266.463 561.168C254.298 559.502 242.092 558.169 229.177 556.586H229.135ZM404.193 476.806C403.61 488.387 403.61 488.429 411.484 490.095C449.895 498.219 488.306 506.301 526.717 514.55C530.299 515.3 532.008 514.758 533.257 511.009C537.757 497.261 542.756 483.68 547.255 469.932C548.005 467.682 547.839 464.557 546.797 462.433C516.76 401.192 481.39 343.117 441.562 287.75C440.729 286.583 438.813 285.042 437.98 285.333C436.48 285.875 435.23 287.5 434.313 288.958C433.564 290.166 433.439 291.791 433.064 293.249C416.691 354.615 408.609 417.231 404.235 476.806H404.193ZM364.032 781.386C317.622 732.81 267.671 689.025 213.804 648.739C213.387 650.322 213.179 651.072 213.012 651.822C207.972 681.526 202.931 711.188 198.056 740.934C197.39 744.933 196.681 749.474 197.848 753.14C207.763 783.511 218.053 813.715 228.344 843.919C230.51 850.293 233.301 856.5 235.926 863.083C287.085 848.543 326.788 817.381 364.032 781.344V781.386ZM957.112 155.894C956.237 158.019 955.571 159.31 955.113 160.685C949.655 177.099 944.072 193.472 938.865 209.969C919.409 271.752 904.161 334.618 889.955 397.775C889.164 401.317 889.955 403.066 893.288 404.691C901.662 408.732 909.952 413.023 918.076 417.606C921.076 419.272 922.992 418.897 925.533 416.814C956.821 390.818 990.066 367.53 1024.39 345.7C1027.02 344.033 1027.81 342.575 1027.02 339.367C1013.27 283.417 994.232 229.425 968.485 177.849C964.944 170.725 961.153 163.768 957.112 155.977V155.894ZM772.473 735.101C771.556 736.559 771.264 736.809 771.223 737.101C758.308 808.091 740.81 877.872 717.189 946.112C716.689 947.57 717.564 950.403 718.772 951.486C731.812 963.36 747.309 969.609 764.849 970.692C789.97 972.233 812.758 964.401 834.63 953.111C835.797 952.528 836.588 949.528 836.255 947.945C832.964 931.656 832.005 915.283 833.047 898.744C833.297 894.745 833.38 890.745 833.214 886.787C831.964 858.5 830.631 830.254 829.381 801.967C829.089 795.009 830.881 787.135 828.173 781.344C825.465 775.512 818.466 771.554 813.05 767.18C799.719 756.431 786.22 745.933 772.514 735.185L772.473 735.101ZM1204.16 392.235C1203.62 394.651 1203.2 396.026 1202.99 397.442C1194.91 455.392 1183.2 512.592 1167.83 569.084C1166.71 573.292 1167.5 575.458 1171 578.083C1190.91 592.914 1210.53 608.12 1230.36 622.993C1232.45 624.576 1235.36 625.659 1237.99 625.826C1250.78 626.617 1263.61 627.034 1276.44 627.617C1282.02 627.867 1287.61 628.325 1293.31 628.7C1293.31 625.659 1293.44 623.159 1293.31 620.701C1290.31 573.208 1283.27 526.34 1272.02 480.097C1271.02 475.889 1268.86 471.64 1266.15 468.265C1251.36 449.601 1236.24 431.187 1221.16 412.732C1215.74 406.066 1210.16 399.525 1204.12 392.235H1204.16ZM1154.25 565.418C1154.83 563.71 1155.33 562.501 1155.67 561.252C1171.37 501.802 1183.33 441.602 1191.16 380.611C1191.41 378.653 1190.41 376.029 1189.12 374.487C1175.25 358.073 1161.25 341.825 1147.21 325.578C1140.71 318.037 1134.04 310.663 1127.38 303.123C1120.42 306.664 1113.84 309.83 1107.51 313.496C1106.17 314.246 1105.13 316.995 1105.34 318.662C1109.21 349.449 1111.05 380.361 1110.76 411.357C1110.38 449.185 1107.26 486.846 1101.59 524.257C1101.17 527.173 1101.76 528.756 1104.22 530.423C1115.92 538.38 1127.46 546.587 1139.04 554.711C1144.04 558.21 1149.04 561.752 1154.29 565.459L1154.25 565.418ZM926.2 880.997C926.783 880.497 927.2 880.247 927.533 879.872C954.529 851.334 978.067 820.172 997.898 786.302C1013.27 760.056 1029.02 733.893 1035.27 703.481C1037.39 693.107 1039.93 682.817 1042.43 671.652C1039.98 672.444 1038.52 672.694 1037.27 673.319C1016.85 683.026 995.856 691.649 976.234 702.731C933.782 726.644 899.662 759.473 875.791 802.383C874.041 805.508 874.374 807.382 876.582 810.174C886.497 822.672 896.454 835.212 905.661 848.251C912.994 858.667 919.284 869.873 926.2 881.038V880.997ZM778.846 561.876C748.309 559.71 718.064 558.419 687.985 555.252C657.948 552.086 628.119 547.004 597.956 542.713C598.165 543.504 598.373 544.296 598.623 545.046C609.246 576.374 619.828 607.703 630.618 638.99C631.285 640.948 633.493 642.906 635.493 643.865C653.282 652.53 671.237 660.82 689.068 669.486C697.108 673.402 704.899 677.818 712.981 682.109C713.689 680.859 714.314 679.901 714.814 678.859C732.062 643.656 751.975 610.036 774.93 578.291C778.971 572.708 778.43 566.876 778.846 561.876ZM583.75 93.903C592.957 125.773 598.123 157.644 600.498 190.097C601.664 189.889 602.206 189.889 602.622 189.722C657.614 166.726 713.648 146.604 770.681 129.273C773.764 128.356 774.014 126.773 773.764 124.149C772.681 112.025 771.514 99.9437 770.764 87.8205C770.514 83.6961 769.389 82.238 765.015 81.9463C714.939 78.4052 665.155 80.9882 615.579 88.4871C605.08 90.0702 594.665 92.0699 583.75 93.9446V93.903ZM211.429 429.104C218.137 423.022 223.761 417.856 229.468 412.815C237.467 405.774 245.633 398.942 253.59 391.86C262.089 384.277 261.755 372.571 266.63 363.28C266.796 362.989 266.963 362.656 266.963 362.322C266.796 360.156 267.338 357.573 266.338 355.948C243.925 321.078 221.386 286.333 198.723 251.672C197.765 250.172 194.974 248.964 193.141 249.089C187.183 249.464 181.267 250.63 175.31 251.338C172.435 251.672 171.06 252.963 170.31 255.838C161.312 291.374 155.021 327.411 151.022 363.864C150.563 367.905 151.98 370.279 154.729 372.821C165.478 382.778 176.143 392.818 186.558 403.108C195.057 411.523 203.139 420.355 211.513 429.104H211.429ZM364.24 191.014C356.325 182.348 348.284 173.475 340.077 164.768C338.827 163.434 336.703 162.601 334.828 162.226C296.125 154.686 257.381 147.27 218.678 139.73C215.429 139.105 213.804 139.896 212.513 142.854C203.806 163.185 194.932 183.473 186.391 203.845C185.683 205.553 186.266 208.47 187.308 210.136C191.766 217.135 196.515 224.009 201.514 230.675C202.597 232.133 205.264 233.258 207.138 233.216C225.094 232.55 243.05 230.883 261.047 230.841C283.336 230.841 305.666 232.133 327.954 232.716C329.746 232.758 332.245 232.383 333.203 231.175C343.535 218.135 353.575 204.887 364.24 191.014ZM1330.85 527.798C1331.27 527.59 1331.64 527.382 1332.06 527.173C1315.35 433.687 1297.56 340.45 1271.65 249.297C1270.98 249.089 1270.77 248.964 1270.65 248.964C1252.69 254.463 1234.74 260.004 1216.82 265.586C1216.03 265.836 1214.82 266.836 1214.87 267.461C1215.07 272.669 1214.03 278.626 1216.16 283C1244.11 340.659 1266.19 400.483 1282.27 462.516C1283.11 465.765 1284.86 469.015 1286.9 471.723C1294.98 482.305 1303.39 492.637 1311.6 503.093C1318.06 511.301 1324.39 519.549 1330.77 527.798H1330.85ZM1031.06 82.9463C1032.14 85.1126 1032.85 86.6123 1033.6 88.0704C1055.31 130.064 1072.89 173.683 1084.93 219.385C1088.93 234.633 1094.84 247.797 1106.42 258.754C1115.21 267.044 1122.75 276.71 1130.71 285.583C1150.25 277.126 1169.37 268.836 1188.66 260.504C1172.87 231.3 1155.62 203.387 1136.38 176.808C1111.67 142.729 1084.43 110.9 1053.02 82.7796C1051.64 81.5714 1049.64 80.1133 1048.02 80.2799C1042.6 80.7799 1037.23 81.9048 1031.06 82.9463ZM295.917 376.362C296.25 377.237 296.375 377.737 296.625 378.153C315.706 410.399 334.786 442.602 353.909 474.806C354.617 476.014 355.783 477.472 356.991 477.764C367.615 480.347 378.322 482.68 389.612 485.263C394.111 421.73 401.777 359.156 417.691 296.624C374.822 321.578 334.495 347.658 295.917 376.362ZM554.254 445.935C564.586 418.981 585.083 312.913 583.417 296.332C583.125 296.165 582.833 295.999 582.542 295.915C545.922 286.667 509.303 277.418 472.683 268.253C471.475 267.961 469.85 267.836 468.809 268.378C463.059 271.252 457.435 274.335 451.394 277.585C490.139 331.202 524.217 386.944 554.296 445.935H554.254ZM1067.6 77.0304C1122.09 128.44 1164.71 187.598 1200.62 253.255C1200.95 251.088 1201.16 250.339 1201.16 249.589C1202.03 187.931 1197.54 126.732 1186 66.1153C1185.25 62.2826 1183.54 62.2826 1180.5 62.6576C1153.88 65.9071 1127.25 68.99 1100.63 72.2812C1089.93 73.6143 1079.3 75.3223 1067.6 77.0304ZM705.232 936.697C705.816 935.572 706.107 935.155 706.274 934.697C729.104 867.624 746.018 799.05 758.308 729.352C758.558 727.977 757.266 725.561 755.975 724.769C745.101 717.729 734.02 710.896 723.021 704.064C721.938 703.398 720.73 702.939 719.355 702.273C708.149 727.394 698.775 752.807 692.276 779.178C683.277 815.506 678.986 852.209 685.943 889.454C689.11 906.285 695.109 922.032 705.274 936.697H705.232ZM829.339 762.097C830.88 690.233 836.755 619.493 846.92 549.003C837.921 551.378 829.797 554.753 821.507 555.336C809.925 556.127 802.968 561.877 796.927 571C793.428 576.374 791.261 581.457 790.803 587.873C789.72 602.787 788.262 617.743 786.345 632.575C782.763 660.445 778.763 688.275 774.806 716.146C774.389 718.979 774.805 720.645 777.388 722.312C782.804 725.853 788.095 729.685 793.219 733.643C805.051 742.809 816.758 752.14 829.339 762.056V762.097ZM470.392 187.139C471.433 187.681 471.933 188.056 472.558 188.264C495.388 196.971 518.218 205.72 541.131 214.26C543.006 214.969 545.714 214.552 547.672 213.719C559.295 208.72 570.71 203.304 582.375 198.429C585.916 196.93 587.166 195.138 586.666 191.389C583.875 171.308 581.667 151.103 578.417 131.064C576.584 119.649 573.21 108.526 570.252 96.111C550.921 101.777 532.424 107.068 514.052 112.775C511.511 113.567 508.719 115.775 507.386 118.066C497.971 134.314 488.805 150.728 479.848 167.226C476.391 173.6 473.599 180.39 470.475 187.098L470.392 187.139ZM1040.27 334.909C1041.22 334.66 1041.77 334.66 1042.14 334.41C1057.14 325.786 1072.18 317.162 1087.05 308.33C1088.22 307.622 1089.18 305.039 1088.88 303.581C1085.76 286.208 1082.47 268.877 1078.89 251.63C1078.3 248.922 1076.43 246.214 1074.51 244.089C1046.39 213.177 1018.14 182.348 989.899 151.52C982.65 143.562 975.401 135.647 968.027 127.606C962.736 136.355 963.028 137.105 966.902 145.146C979.651 171.517 992.94 197.638 1004.48 224.509C1019.73 260.045 1030.81 297.04 1040.18 334.951L1040.27 334.909ZM497.846 594.288C507.469 572.542 517.01 550.92 526.758 528.881C484.723 520.008 443.896 511.384 402.193 502.552C401.818 522.341 401.318 541.296 401.277 560.252C401.277 566.709 405.693 571.042 411.942 572.542C426.815 576.083 441.729 579.457 456.56 583.207C470.058 586.623 483.473 590.414 497.846 594.247V594.288ZM1031.18 357.74C997.773 379.111 965.861 401.441 935.823 426.188C974.318 448.935 1012.48 471.473 1051.01 494.22C1047.77 448.268 1041.39 403.108 1031.18 357.74ZM451.145 700.106C445.02 708.313 439.563 715.979 433.689 723.353C431.189 726.478 430.856 728.894 432.647 732.643C456.477 782.594 474.099 834.628 483.64 889.287C484.431 893.87 486.264 898.702 489.014 902.369C498.096 914.659 507.469 926.823 517.426 938.447C524.175 946.321 532.133 953.236 539.548 960.568C539.923 960.277 540.298 960.027 540.673 959.735C518.301 870.915 487.806 784.886 451.186 700.148L451.145 700.106ZM45.662 298.498C39.9962 303.914 34.2054 308.663 29.2895 314.246C11.667 334.368 12.8751 351.74 33.3304 368.863C62.3678 393.234 97.7377 404.899 133.066 418.064C133.232 415.44 133.399 413.523 133.524 411.565C134.149 401.442 134.524 391.276 135.566 381.194C136.066 376.404 134.941 373.154 131.191 369.988C114.652 356.031 98.4877 341.7 81.9485 327.744C70.2835 317.912 58.2019 308.538 45.662 298.456V298.498ZM288.501 364.155C289.168 363.822 289.626 363.614 290.001 363.322C331.579 332.66 375.031 304.872 419.857 279.209C422.399 277.751 426.273 269.502 425.773 266.753C425.232 263.837 418.982 257.837 415.608 257.421C391.695 254.255 367.74 251.255 343.827 248.006C340.119 247.506 338.244 248.839 336.286 251.88C316.248 283.292 300.333 316.704 286.127 351.074C283.96 356.281 284.127 360.156 288.501 364.114V364.155ZM1091.59 322.036C1089.22 323.286 1087.59 324.036 1086.05 324.953C1073.8 332.077 1061.72 339.451 1049.31 346.241C1044.89 348.658 1044.02 351.157 1044.97 356.031C1049.6 379.903 1054.43 403.733 1057.85 427.771C1061.14 451.018 1062.76 474.473 1065.22 497.802C1065.47 500.344 1065.51 503.927 1067.14 505.176C1073.64 510.176 1080.72 514.425 1088.22 519.383C1097.72 453.351 1099.92 388.193 1091.59 322.036ZM614.287 633.866C614.162 633.283 614.079 632.45 613.829 631.7C603.414 601.871 593.04 572.042 582.417 542.296C581.792 540.505 579.001 538.797 576.959 538.338C566.377 536.047 555.712 534.297 545.089 532.172C541.59 531.464 539.923 532.214 538.423 535.755C530.008 555.502 521.259 575.083 512.635 594.747C512.135 595.872 511.761 597.08 511.511 597.705C545.881 609.828 579.917 621.784 614.287 633.908V633.866ZM387.362 567.126C386.654 565.126 386.404 564.001 385.904 563.001C373.197 539.421 360.533 515.842 347.618 492.387C346.701 490.72 344.16 489.387 342.16 488.887C312.623 481.597 283.044 474.473 253.465 467.307C252.132 466.974 250.757 466.89 249.132 466.682C249.424 467.515 249.424 467.89 249.632 468.098C273.296 496.469 296.958 524.84 320.747 553.086C321.955 554.544 324.246 555.502 326.204 555.877C336.994 557.96 347.826 559.752 358.616 561.71C367.907 563.418 377.197 565.209 387.404 567.126H387.362ZM1199.29 61.4077C1211.37 124.107 1216.07 187.181 1215.03 251.088C1233.07 245.464 1250.24 240.09 1267.44 234.758C1267.07 233.133 1266.86 232.008 1266.53 230.883C1250.28 175.099 1232.11 119.983 1210.03 66.1571C1208.28 61.8521 1204.7 60.269 1199.29 61.4077ZM795.136 545.962C797.552 544.587 800.135 543.796 801.676 542.088C820.132 521.341 838.463 500.385 856.835 479.555C861.251 474.556 862.043 468.015 858.793 462.141C845.003 437.478 826.548 416.523 806.801 396.651C804.509 394.359 802.093 392.193 799.885 390.068C798.302 441.686 796.761 493.053 795.136 545.962ZM273.795 340.95C289.543 309.663 305.499 278.001 321.455 246.381C285.877 243.798 249.549 243.631 212.721 246.881C233.509 278.876 253.923 310.371 273.795 340.95ZM707.482 694.399C683.944 682.651 660.781 671.069 637.576 659.487C637.201 659.862 636.867 660.279 636.492 660.654C652.198 720.103 662.03 780.553 668.321 841.711C671.196 790.218 686.443 742.059 707.482 694.399ZM154.896 255.046C121.276 262.295 88.5307 272.294 58.5767 290.374C85.1145 312.538 111.194 334.368 136.774 355.781C142.773 322.411 148.772 288.958 154.854 255.046H154.896ZM867.5 820.631C849.878 847.418 842.837 913.617 854.377 941.53C854.544 941.53 854.752 941.613 854.877 941.53C876.499 928.115 895.663 911.617 913.743 893.828C914.577 893.037 914.785 890.662 914.243 889.579C901.579 864.874 885.789 842.252 867.5 820.631ZM217.47 541.171C217.845 540.38 218.178 539.963 218.262 539.505C223.094 517.591 227.927 495.636 232.593 473.681C232.885 472.223 231.926 470.265 231.052 468.848C225.844 460.391 217.595 456.892 208.263 455.434C206.68 455.184 204.264 456.017 203.222 457.225C186.85 476.056 170.852 495.219 154.188 513.8C148.272 520.424 151.188 527.173 151.521 534.047C151.521 534.714 153.396 535.797 154.479 535.88C175.351 537.713 196.265 539.421 217.47 541.171ZM1075.76 645.239C1094.3 641.407 1113.34 637.491 1132.34 633.408C1133.59 633.158 1135.04 631.45 1135.46 630.117C1140.29 614.536 1145.04 598.954 1149.54 583.29C1149.96 581.832 1148.92 579.082 1147.63 578.124C1138.88 571.5 1129.88 565.168 1120.92 558.835C1113.76 553.753 1106.51 548.837 1099.51 544.004C1091.51 578.124 1083.64 611.869 1075.8 645.281L1075.76 645.239ZM1069.89 218.177C1069.6 216.177 1069.55 215.385 1069.35 214.635C1056.51 171.1 1039.6 129.189 1018.44 89.0287C1017.06 86.4041 1015.56 85.3626 1012.56 86.0708C1007.85 87.154 1003.11 88.6121 998.356 88.6537C985.525 88.7371 978.568 95.0279 975.401 107.193C974.36 111.192 974.193 113.608 977.151 116.775C998.814 140.313 1020.23 164.018 1041.77 187.681C1050.81 197.596 1059.97 207.47 1069.93 218.218L1069.89 218.177ZM1292.27 500.76C1291.94 500.885 1291.6 501.052 1291.27 501.177C1291.6 502.968 1291.98 504.718 1292.27 506.51C1295.15 523.215 1298.6 539.88 1300.69 556.669C1303.56 579.791 1305.44 602.995 1307.56 626.2C1307.85 629.533 1308.89 631.033 1312.27 630.95C1313.56 630.95 1314.89 631.283 1316.23 631.45C1327.39 633.033 1338.51 634.658 1350.1 636.282C1349.89 634.116 1349.8 632.325 1349.51 630.533C1346.06 609.703 1342.43 588.873 1339.18 568.001C1338.26 562.21 1336.27 557.335 1332.64 552.753C1319.06 535.547 1305.73 518.091 1292.31 500.76H1292.27ZM252.048 452.809C280.669 459.766 308.207 466.432 335.745 473.098C335.995 472.764 336.286 472.39 336.536 472.056C319.33 443.144 302.125 414.231 284.46 384.527C278.878 389.485 271.546 392.901 269.421 398.359C262.672 415.814 257.881 434.02 252.048 452.809ZM203.347 623.618C207.347 600.454 211.221 578.082 215.262 555.003C194.39 553.211 174.143 551.503 153.105 549.712C154.938 562.543 156.938 574.291 158.229 586.165C158.854 591.664 161.228 595.038 165.811 597.996C178.309 606.162 190.474 614.785 203.347 623.618ZM454.186 671.61C466.85 649.739 478.974 628.783 491.722 606.828C465.517 600.121 440.438 593.705 414.233 586.998C427.814 615.702 440.646 642.865 454.186 671.61ZM584.875 281.376C584.875 281.376 585.458 280.709 585.5 280.168C586.125 271.044 586.874 261.92 587.124 252.755C587.124 251.255 585.166 249.047 583.583 248.297C571.668 242.756 559.67 237.424 547.547 232.341C545.589 231.508 542.589 231.591 540.631 232.508C525.134 239.798 509.761 247.422 494.388 254.921C493.097 255.546 491.93 256.338 490.514 257.171C522.134 265.253 553.338 273.252 584.875 281.334V281.376ZM221.428 125.44C254.756 131.647 286.877 137.605 319.039 143.604C319.33 143.312 319.622 143.062 319.914 142.771C297.292 121.607 274.629 100.485 251.299 78.6552C240.967 94.8612 231.343 109.984 221.47 125.44H221.428ZM1140.25 296.373C1158.46 317.412 1175.83 337.451 1193.66 358.031C1194.04 356.281 1194.37 355.365 1194.45 354.407C1196.29 331.702 1198.29 308.997 1199.7 286.25C1199.91 282.625 1197.62 278.793 1196.16 275.168C1195.91 274.543 1193.79 274.002 1192.91 274.335C1175.58 281.501 1158.29 288.791 1140.25 296.373ZM1295.81 834.795C1296.19 834.92 1296.52 835.087 1296.9 835.212C1300.77 829.254 1304.73 823.38 1308.52 817.339C1323.18 793.884 1335.68 769.305 1346.26 743.767C1346.85 742.392 1346.93 739.851 1346.1 739.017C1341.43 734.351 1336.39 730.06 1331.39 725.519C1323.81 731.31 1316.48 736.518 1309.6 742.267C1307.6 743.933 1305.89 746.974 1305.56 749.557C1303.73 764.764 1302.52 780.011 1300.81 795.218C1299.35 808.424 1297.48 821.589 1295.81 834.753V834.795ZM1308.81 644.239C1308.81 658.821 1308.81 672.11 1308.89 685.442C1308.89 686.608 1309.56 688.108 1310.44 688.858C1317.52 695.149 1324.68 701.314 1332.14 707.772C1340.47 701.564 1348.6 695.565 1356.64 689.358C1357.55 688.65 1358.18 686.775 1358.01 685.567C1356.55 675.193 1354.97 664.82 1353.22 654.446C1353.01 653.155 1351.64 651.197 1350.55 650.989C1336.81 648.614 1323.06 646.489 1308.81 644.198V644.239ZM776.014 603.537C775.472 603.454 774.93 603.37 774.43 603.287C756.141 630.658 739.685 659.112 725.396 689.066C737.561 696.524 749.351 703.731 762.141 711.605C766.89 674.818 771.473 639.199 776.055 603.579L776.014 603.537ZM450.895 196.346C450.52 195.93 450.353 195.555 450.103 195.471C433.314 190.139 416.566 184.848 399.735 179.64C398.777 179.349 397.194 179.349 396.527 179.89C392.111 183.807 387.904 187.889 383.904 191.68C398.027 209.178 411.567 226.05 425.273 242.715C426.815 244.589 429.647 245.339 431.98 246.714C438.604 229.092 444.77 212.677 450.895 196.388V196.346ZM190.766 780.178C184.184 809.965 177.768 839.003 171.269 868.374C188.516 870.207 205.097 869.04 221.428 866.082C211.18 837.336 201.098 809.132 190.766 780.136V780.178ZM1260.03 438.019C1248.15 393.984 1232.57 351.574 1213.16 309.663C1212.62 311.205 1212.37 311.663 1212.32 312.121C1210.45 331.493 1208.49 350.907 1206.78 370.321C1206.62 372.196 1207.66 374.529 1208.87 376.07C1214.78 383.486 1220.99 390.693 1227.03 398.025C1238.03 411.357 1249.03 424.73 1260.03 438.061V438.019ZM403.193 596.788C402.818 596.871 402.401 596.955 402.027 597.038C402.027 598.163 401.943 599.246 402.027 600.371C403.818 622.576 405.943 644.781 407.359 666.986C408.442 683.9 414.15 698.94 424.023 713.354C430.023 705.064 435.813 696.857 441.896 688.775C443.979 686.025 444.145 683.692 442.687 680.609C434.48 663.153 426.523 645.573 418.358 628.117C413.442 617.618 408.276 607.203 403.193 596.746V596.788ZM300.833 551.753C301.166 551.42 301.458 551.086 301.791 550.753C283.086 528.548 264.338 506.301 245.633 484.096C245.133 484.346 244.633 484.596 244.133 484.846C240.05 503.968 235.926 523.091 231.718 542.671C255.173 545.754 278.003 548.753 300.833 551.753ZM446.145 248.589C452.269 249.839 457.352 250.672 462.351 251.922C466.351 252.963 469.6 252.088 473.183 250.255C489.139 242.048 505.22 234.133 521.259 226.092C522.717 225.384 524.134 224.634 526.8 223.259C505.47 215.302 485.223 207.761 464.476 200.013C458.227 216.635 452.311 232.258 446.145 248.547V248.589ZM722.063 327.827C684.235 300.415 643.783 277.251 601.247 256.629C600.581 265.42 600.248 273.418 599.331 281.292C598.915 285.042 599.998 286.458 603.539 287.583C627.785 295.29 652.032 303.039 676.153 311.205C691.567 316.412 706.732 322.286 722.021 327.869L722.063 327.827ZM787.72 123.732C818.882 115.442 849.378 107.359 879.832 99.2356C848.42 91.57 816.841 86.3624 784.346 83.6544C785.512 97.2774 786.595 110.317 787.72 123.732ZM131.566 130.189C131.358 130.606 131.108 130.981 130.9 131.398C145.606 151.728 160.27 172.058 174.976 192.347C183.142 173.641 191.057 155.519 199.306 136.73C176.601 134.522 154.105 132.356 131.608 130.189H131.566ZM391.195 654.113C389.987 631.283 388.82 607.87 387.404 584.498C387.32 583.207 385.279 581.29 383.904 580.999C372.031 578.499 360.116 576.249 348.201 574C344.118 573.208 339.994 572.583 335.661 571.792C354.575 599.788 373.031 627.159 391.195 654.113ZM486.889 122.982C459.351 134.48 433.98 148.853 410.275 167.934C426.356 173.058 441.562 177.932 456.435 182.682C466.642 162.685 476.599 143.104 486.848 122.982H486.889ZM186.516 716.771C186.933 716.729 187.308 716.646 187.725 716.604C187.933 715.979 188.266 715.396 188.391 714.771C192.432 690.483 196.557 666.195 200.389 641.865C200.598 640.448 199.139 638.199 197.848 637.199C190.932 631.991 183.809 627.075 176.726 622.076C172.56 619.16 168.269 616.369 164.061 613.494C163.561 613.744 163.103 613.952 162.603 614.202C170.602 648.364 178.559 682.567 186.558 716.729L186.516 716.771ZM383.946 781.261C403.818 804.175 423.523 826.88 441.062 847.127C430.856 818.131 419.691 786.302 408.526 754.557C400.568 763.18 392.153 772.304 383.946 781.261ZM189.891 450.226C175.56 445.935 161.395 441.686 146.231 437.103C146.856 457.808 147.439 477.597 148.064 498.594C162.562 481.805 176.101 466.182 189.891 450.226ZM1150.17 630.45C1170.58 628.867 1190.29 627.325 1211.33 625.701C1194.62 613.036 1178.95 601.162 1162.71 588.831C1158.42 603.12 1154.37 616.577 1150.17 630.45ZM865.459 445.935C867.875 434.562 869.833 424.272 872.291 414.106C873.083 410.815 872.25 409.357 869.333 407.982C851.128 399.442 833.005 390.693 814.841 382.069C813.758 381.569 812.592 381.236 810.175 380.403C831.047 400.858 849.669 421.397 865.459 445.935ZM1068.01 522.799C1066.47 560.793 1064.93 598.455 1063.39 636.157C1062.76 635.366 1063.35 634.533 1063.55 633.658C1070.85 601.579 1078.18 569.5 1085.34 537.38C1085.59 536.255 1084.97 534.297 1084.05 533.631C1078.68 529.798 1073.14 526.215 1068.05 522.799H1068.01ZM150.105 387.11C149.647 387.319 149.147 387.527 148.689 387.735C148.147 397.942 147.772 408.149 147.064 418.356C146.855 421.605 147.98 423.022 151.063 423.938C166.686 428.479 182.225 433.229 197.848 437.895C198.973 438.228 200.223 438.353 201.389 438.561C201.598 438.269 201.806 437.936 201.973 437.645C184.683 420.814 167.394 403.941 150.105 387.11ZM373.864 201.762C364.949 212.886 356.742 223.176 347.951 234.133C368.073 236.716 386.862 239.09 406.942 241.673C395.736 228.133 385.196 215.427 373.864 201.762ZM922.034 906.035C921.492 906.201 921.117 906.243 920.909 906.41C901.745 924.949 881.248 941.78 858.543 955.903C857.668 956.444 856.543 957.694 856.627 958.444C857.085 962.401 857.918 966.359 858.71 970.817C860.293 969.817 861.001 969.4 861.668 968.942C883.456 953.778 902.953 936.03 921.159 916.783C924.617 913.117 925.533 910.117 921.992 906.035H922.034ZM1253.78 640.032C1253.65 640.448 1253.49 640.907 1253.36 641.323C1266.86 652.488 1280.4 663.653 1294.35 675.193V642.74C1280.52 641.823 1267.15 640.907 1253.78 640.032ZM524.134 92.9448C524.467 93.3197 524.759 93.7363 525.092 94.1113C538.632 90.5285 552.13 86.9873 566.086 83.2795C562.961 74.6974 560.004 66.6153 556.546 57.2001C545.214 69.6982 534.674 81.3215 524.134 92.9448ZM1372.93 640.323C1373.72 635.991 1374.09 631.283 1375.51 626.95C1378.8 616.827 1376.8 608.495 1369.3 600.829C1364.68 596.122 1361.14 590.331 1357.1 584.998C1358.8 601.204 1361.51 616.91 1363.8 632.658C1364.55 637.865 1366.09 641.198 1372.93 640.282V640.323ZM885.956 416.439C883.04 430.479 880.248 443.894 877.457 457.35C877.79 457.517 878.082 457.725 878.415 457.892C888.914 448.435 899.37 438.936 910.327 429.062C902.078 424.771 894.33 420.772 885.998 416.439H885.956ZM422.274 744.225C431.231 782.136 443.812 818.714 461.351 853.542C452.311 815.673 439.105 779.303 422.274 744.225ZM545.506 518.133C555.254 519.966 564.586 521.716 575.001 523.674C568.961 510.092 563.42 497.594 557.462 484.18C553.296 496.011 549.505 506.76 545.506 518.133ZM143.606 583.165C142.148 572.25 140.981 562.543 139.523 552.919C139.315 551.461 137.982 549.128 136.982 549.045C134.399 548.753 130.525 548.545 129.317 550.045C125.192 555.128 122.026 561.002 118.235 567.001C126.692 572.375 134.691 577.499 143.648 583.207L143.606 583.165ZM821.049 540.005C821.465 540.63 821.882 541.296 822.257 541.921C830.755 538.797 839.254 535.755 847.753 532.547C848.544 532.256 849.544 531.298 849.669 530.506C851.294 521.799 852.752 513.05 854.252 504.343C853.794 504.135 853.336 503.885 852.919 503.677C842.296 515.8 831.672 527.923 821.049 540.005ZM364.699 493.97C372.281 507.884 379.363 520.924 386.445 534.006C386.904 533.881 387.404 533.797 387.862 533.672V499.219C380.738 497.594 373.198 495.928 364.657 494.011L364.699 493.97ZM239.009 448.685C242.258 437.478 245.466 426.438 248.674 415.398C248.382 415.231 248.132 415.023 247.841 414.856C239.3 422.605 230.718 430.354 222.178 438.103C226.177 444.394 231.01 448.476 239.009 448.685ZM561.212 222.884C570.627 227.05 578.834 230.675 587.208 234.383V211.344C578.542 215.177 570.544 218.718 561.212 222.843V222.884ZM843.67 837.836C844.045 837.836 844.379 837.878 844.754 837.92C848.545 828.754 852.377 819.631 856.127 810.465C856.418 809.715 856.335 808.382 855.835 807.841C851.961 803.716 847.961 799.717 843.712 795.384V837.878L843.67 837.836ZM1098.63 270.752C1098.3 270.919 1097.97 271.085 1097.67 271.252C1099.34 280.667 1101.01 290.041 1102.8 299.998C1108.01 297.29 1112.76 294.832 1117.92 292.166C1111.21 284.667 1104.92 277.71 1098.67 270.752H1098.63ZM969.235 855.459C968.902 855.292 968.569 855.084 968.235 854.917C957.32 867.249 946.405 879.539 935.449 891.828C932.157 895.495 932.116 895.453 936.24 900.369C947.322 885.288 958.278 870.373 969.235 855.459ZM106.445 559.668C108.944 555.544 111.236 551.795 113.944 547.295C104.029 546.837 95.0716 546.42 86.1145 545.962C86.0312 546.337 85.9479 546.754 85.8646 547.129C92.6136 551.253 99.3626 555.336 106.403 559.668H106.445ZM1009.4 72.4894C1005.85 66.4903 1002.77 61.2828 999.231 55.242C995.773 62.4493 992.732 68.9067 989.274 76.1973C996.481 74.8641 1002.48 73.7809 1009.4 72.4894ZM1353.47 726.603C1355.97 718.979 1358.14 712.396 1360.3 705.772L1359.1 705.189C1353.8 709.105 1348.55 712.979 1342.89 717.146C1346.43 720.312 1349.55 723.145 1353.47 726.644V726.603ZM1014.02 50.7843C1013.77 50.9926 1013.56 51.2426 1013.31 51.4509C1016.48 56.9917 1019.6 62.5325 1022.89 68.0317C1023.39 68.8233 1024.73 69.6982 1025.56 69.6148C1028.68 69.2399 1031.77 68.5317 1036.06 67.6985C1028.02 61.5327 1021.02 56.1585 1014.06 50.7843H1014.02ZM1320.52 716.229C1316.48 712.688 1312.77 709.438 1308.23 705.481C1307.85 713.021 1307.56 719.229 1307.23 726.436C1312.14 722.645 1316.1 719.645 1320.56 716.229H1320.52ZM953.946 121.941C957.612 117.649 957.112 114.275 953.446 110.817C950.447 107.984 948.03 104.61 945.239 101.569C944.531 100.819 943.406 100.402 942.489 99.8188C942.239 100.11 941.948 100.444 941.698 100.735C945.739 107.693 949.78 114.65 953.988 121.899L953.946 121.941ZM381.321 174.308C375.655 172.766 370.49 171.35 365.365 169.975C365.199 170.308 365.074 170.642 364.907 170.975C368.032 174.475 371.114 177.932 374.031 181.182C376.572 178.766 378.697 176.766 381.363 174.308H381.321ZM175.518 237.174C179.767 236.549 183.309 236.007 187.558 235.341C184.725 231.216 182.475 227.883 179.601 223.676C178.101 228.592 176.934 232.466 175.518 237.174ZM1196.41 47.1181C1198.29 46.8682 1199.78 46.6599 1201.74 46.4099C1198.54 39.2443 1195.62 32.7036 1192.7 26.1212C1192.37 26.2462 1192.08 26.3712 1191.74 26.4961C1193.24 33.0785 1194.7 39.7026 1196.37 47.0765L1196.41 47.1181ZM1404.51 647.947C1401.01 643.281 1398.34 639.698 1395.21 635.449C1394.3 639.324 1393.59 642.115 1392.84 645.239C1396.67 646.114 1399.92 646.864 1404.51 647.906V647.947ZM866.75 514.092L868.583 514.3C869.5 508.801 870.458 503.26 871.375 497.761C870.875 497.678 870.333 497.553 869.833 497.469C868.792 503.01 867.75 508.551 866.75 514.092ZM1387.26 666.945C1390.67 664.362 1392.92 662.612 1395.84 660.404C1393.17 659.821 1391.47 659.404 1389.34 658.946C1388.72 661.362 1388.17 663.487 1387.26 666.945Z" fill="#342979"/>
<path d="M89.9472 999.896C85.6145 990.189 81.4484 980.441 76.8658 970.859C57.2436 929.948 37.6214 888.996 17.7077 848.21C13.7083 840.003 8.50081 832.42 3.75151 824.63C2.87663 823.172 1.25177 822.172 0.00195312 820.922C0.00195312 810.924 0.00195312 800.925 0.00195312 790.927C0.460219 791.385 1.0435 791.801 1.33512 792.343C13.0001 812.632 25.79 832.379 36.0802 853.334C59.4934 900.91 81.6983 949.112 104.362 997.063C104.778 997.896 104.778 998.938 104.987 999.896H89.9889H89.9472Z" fill="#342979"/>
</svg>
