<svg width="1440" height="1001" viewBox="0 0 1440 1001" fill="none" xmlns="http://www.w3.org/2000/svg">
<path d="M852.917 0C851.417 4.20772 850.084 8.4571 848.417 12.6232C827.004 66.6153 806.215 120.816 788.885 176.266C787.885 179.432 787.676 183.182 788.301 186.431C791.009 200.471 794.009 214.469 797.217 228.425C797.967 231.675 799.508 235.049 801.591 237.674C869.331 322.328 937.196 406.857 1005.06 491.428C1009.56 497.011 1013.94 502.677 1018.14 508.468C1020.02 511.051 1022.02 512.009 1025.22 511.759C1060.59 509.009 1095.96 506.343 1131.33 503.885C1135.5 503.593 1135.13 501.01 1135.33 498.469C1137.46 470.557 1139.71 442.686 1141.54 414.773C1146.58 338.159 1151.04 261.504 1156.5 184.89C1159.87 137.23 1164.45 89.6536 1168.87 42.0355C1170.16 27.9543 1172.83 14.0396 1174.87 0.0416576C1179.54 0.0416576 1184.2 0.0416576 1188.87 0.0416576C1187.28 10.4151 1185.53 20.747 1184.16 31.1621C1174.74 104.068 1170.7 177.433 1166.08 250.714C1163.58 290.124 1161.29 329.535 1158.62 368.905C1155.66 412.273 1152.33 455.6 1149.21 498.969C1149.12 500.052 1149.37 501.177 1149.5 502.677C1222.95 498.219 1296.14 495.636 1369.76 498.136C1369.34 495.845 1369.09 494.22 1368.72 492.637C1357.26 447.643 1346.22 402.525 1334.22 357.698C1307.93 259.296 1277.52 162.101 1247.48 64.7822C1240.86 43.327 1235.07 21.6218 1228.86 0.0416576C1233.53 0.0416576 1238.19 0.0416576 1242.86 0.0416576C1246.73 13.4564 1250.4 26.9544 1254.52 40.2858C1301.23 190.556 1347.34 340.992 1383.34 494.303C1384.13 497.678 1385.46 498.761 1388.96 498.927C1405.92 499.761 1422.83 500.927 1439.79 501.969V515.967C1422.88 515.008 1405.92 514.05 1389.01 513.092C1388.8 513.092 1388.55 513.467 1388.17 513.8C1388.55 515.508 1388.92 517.258 1389.34 519.049C1403.54 582.374 1417.79 645.698 1432 708.98C1434.62 720.603 1437.16 732.268 1439.79 743.892V816.881C1439.41 815.798 1438.91 814.756 1438.71 813.673C1420.04 714.521 1397.88 616.16 1374.88 517.925C1373.88 513.675 1372.42 512.05 1367.8 511.926C1299.31 509.676 1230.9 511.842 1162.54 515.883C1157.91 516.175 1151.58 514.883 1149.08 517.383C1146.37 520.049 1147.08 526.34 1146.67 531.048C1142.79 573.5 1138.88 615.952 1135.29 658.404C1135.04 661.362 1136.29 664.945 1138 667.445C1154.04 690.15 1170.29 712.73 1186.62 735.226C1188.41 737.684 1190.83 739.976 1193.45 741.559C1268.27 786.802 1341.55 834.462 1413.04 884.788C1421.83 890.995 1430.92 896.828 1439.83 902.869V919.866C1437.58 918.533 1435.21 917.325 1433.08 915.825C1371.05 871.998 1308.31 829.213 1243.86 789.052C1233.07 782.344 1222.28 775.595 1211.45 768.888C1211.66 770.888 1212.49 772.263 1213.36 773.554C1246.07 822.172 1279.1 870.623 1311.43 919.533C1328.85 945.904 1345.1 973.067 1361.88 999.896H1345.89C1343.47 995.938 1341.05 991.939 1338.6 988.023C1289.23 908.743 1237.15 831.212 1183.29 754.932C1181.16 751.891 1178.33 749.016 1175.2 747.058C1161.62 738.684 1147.79 730.644 1134 722.561C1132.67 721.77 1131.21 721.187 1129.5 720.312C1127 745.683 1124.88 770.388 1122 795.009C1117.09 837.67 1111.96 880.289 1106.42 922.866C1103.09 948.612 1098.76 974.233 1094.88 999.896H1080.88C1084.01 979.316 1087.13 958.777 1090.17 938.197C1101.09 864.874 1108.88 791.177 1115.75 717.354C1116.13 713.521 1115.17 711.48 1111.71 709.48C1035.43 665.403 958.068 623.409 879.746 583.082C873.122 579.666 866.457 576.333 859.458 572.75C859.374 573.958 859.249 574.625 859.333 575.208C865.707 621.576 872.539 667.861 878.33 714.271C884.704 765.305 890.411 816.464 895.911 867.624C900.618 911.659 904.618 955.778 908.909 999.854H894.911C891.078 960.569 887.703 921.241 883.329 881.997C875.83 814.465 867.998 746.975 859.749 679.526C855.292 642.99 849.584 606.62 844.585 570.167C844.043 566.084 842.293 563.751 838.544 562.043C831.128 558.71 823.963 554.753 816.547 551.336C814.423 550.378 811.673 549.837 809.423 550.212C770.262 557.211 731.143 564.418 691.982 571.417C688.358 572.042 687.108 573.667 686.4 577.041C675.651 628.534 664.153 679.859 654.154 731.477C640.906 799.8 629.2 868.374 616.035 936.697C613.452 950.028 614.41 960.818 623.326 971.567C630.491 980.191 635.824 990.314 641.948 999.813H625.95C620.659 992.106 615.41 984.398 609.661 976.025C607.953 984.607 606.453 992.231 604.953 999.813H590.955C593.247 987.023 595.663 974.275 597.704 961.485C598.037 959.485 596.996 956.944 595.829 955.153C530.964 857.542 465.182 760.556 396.525 665.57C395.817 664.57 394.942 663.695 393.484 661.904C393.484 665.445 393.443 667.861 393.484 670.277C394.776 725.394 395.942 780.47 397.359 835.587C398.358 873.539 399.775 911.492 400.9 949.445C401.4 966.234 401.65 983.024 401.983 999.813H388.985C388.818 998.48 388.568 997.188 388.527 995.855C386.902 945.237 385.11 894.62 383.777 844.002C382.069 779.553 380.694 715.104 379.153 650.655C379.111 648.739 378.903 646.823 378.736 644.615C376.861 644.989 375.57 645.156 374.32 645.489C334.534 655.78 294.624 665.736 254.963 676.527C178.849 697.19 102.86 718.354 26.7877 739.184C17.9973 741.6 8.95706 742.975 0.0417013 744.85C0.0417013 740.517 0.0417013 736.185 0.0417013 731.852C11.665 728.977 23.3299 726.311 34.8282 723.186C143.687 693.607 252.546 663.987 361.405 634.366C364.697 633.491 367.988 632.616 371.654 631.616C370.446 629.867 369.613 628.617 368.738 627.45C340.492 590.122 312.204 552.878 284.042 515.508C222.592 433.979 161.268 352.365 99.7771 270.877C98.1107 268.711 95.3194 266.836 92.6531 266.045C61.8243 256.546 30.9121 247.297 0 237.965C0 233.633 0 229.3 0 224.967C1.12484 225.092 2.33302 225.051 3.4162 225.384C16.8726 229.092 30.3706 232.758 43.7853 236.632C56.4918 240.298 69.1565 244.214 83.2794 248.464C81.4047 245.923 80.3632 244.506 79.3216 243.09C55.6168 211.969 31.9535 180.849 8.20701 149.812C5.62406 146.437 2.74964 143.271 0.0417013 140.021C0.0417013 132.356 0.0417013 124.69 0.0417013 117.025C0.833252 117.816 1.74956 118.566 2.41613 119.483C35.8279 163.351 69.1566 207.262 102.652 251.047C104.61 253.588 107.776 255.879 110.859 256.838C196.305 283.084 281.125 311.163 364.905 342.367C366.363 342.908 367.863 343.367 369.738 344.033C369.738 341.45 369.738 339.617 369.738 337.826C368.988 307.497 367.779 277.21 367.571 246.881C367.071 170.225 366.946 93.6114 366.821 16.9559C366.821 11.3317 367.571 5.7075 367.988 0.0833191C372.32 0.0833191 376.653 0.0833191 380.986 0.0833191C380.778 3.54115 380.361 7.04064 380.319 10.4985C378.528 121.774 380.486 233.008 383.819 344.242C383.944 348.491 385.444 350.199 389.235 351.616C479.097 385.486 568 421.647 655.779 460.558C668.652 466.266 681.525 472.098 694.732 478.014C695.232 476.222 695.648 474.806 695.982 473.389C716.395 388.444 736.601 303.456 761.097 219.551C762.514 214.677 761.93 211.428 758.639 207.595C737.225 182.515 716.312 157.019 694.773 132.064C666.861 99.8188 638.573 67.9484 610.327 35.9948C599.662 23.9132 588.747 12.0399 577.957 0.0833191C584.289 0.0833191 590.622 0.0833191 596.954 0.0833191C601.162 4.79097 605.411 9.45696 609.536 14.2063C661.112 73.6976 712.646 133.189 764.222 192.639C765.221 193.805 766.263 194.972 767.846 196.846C769.679 188.723 773.304 182.348 771.429 174.183C762.513 135.105 754.098 95.9027 745.641 56.7417C741.558 37.9111 737.85 18.9556 733.934 0.0833191C738.934 0.0833191 743.933 0.0833191 748.932 0.0833191C749.099 1.87473 749.057 3.74945 749.432 5.4992C757.973 46.2016 766.555 86.8624 775.178 127.565C776.928 135.897 778.928 144.187 781.136 153.853C782.052 151.395 782.469 150.353 782.885 149.27C800.216 102.527 817.589 55.7419 834.919 8.99869C836.003 6.08245 836.919 3.08288 837.919 0.124981C842.918 0.124981 847.918 0.124981 852.917 0.124981V0ZM392.693 626.409C395.234 625.826 397.15 625.409 399.067 624.992C489.845 603.87 580.623 582.707 671.443 561.71C674.943 560.877 676.234 559.252 676.984 555.919C681.234 536.755 685.483 517.55 690.232 498.511C691.566 493.22 690.357 491.179 685.483 488.971C587.956 444.852 488.928 404.316 388.901 366.238C387.61 365.738 386.235 365.447 384.527 364.947C387.235 452.309 389.943 539.005 392.693 626.409ZM396.609 639.615C465.39 739.226 533.714 838.211 602.204 937.447C622.826 816.589 645.531 696.149 672.777 574.833C579.582 596.705 487.887 618.202 396.609 639.615ZM121.69 274.752C203.47 391.151 292.457 501.719 378.153 616.41C378.153 613.702 378.153 612.411 378.153 611.119C375.653 528.881 373.07 446.602 370.696 364.364C370.571 360.281 369.154 358.573 365.488 357.323C299.248 334.618 233.049 311.705 166.767 289C151.853 283.875 136.688 279.459 121.649 274.71L121.69 274.752ZM838.544 531.798C838.127 528.84 837.919 526.715 837.544 524.59C831.337 487.971 825.588 451.309 818.839 414.815C808.298 357.865 797.05 301.04 786.135 244.131C784.677 236.466 778.469 232.341 774.095 226.842C773.429 226.884 772.762 226.925 772.095 227.009C750.473 312.455 728.852 397.942 707.271 483.138C708.73 484.18 709.23 484.638 709.813 484.888C744.225 501.26 778.636 517.633 813.089 533.964C814.256 534.506 815.672 535.005 816.88 534.839C823.963 533.964 831.003 532.881 838.544 531.798ZM806.34 264.545L805.549 265.128C821.463 353.157 837.419 441.186 853.333 529.215C902.993 523.84 953.194 518.425 1004.94 512.8C938.321 429.562 872.331 347.033 806.34 264.545ZM1117.59 696.69C1118.38 688.233 1118.92 680.484 1119.92 672.777C1120.46 668.653 1119.46 665.487 1117 662.195C1083.88 618.327 1050.85 574.416 1017.89 530.423C1015.77 527.59 1013.6 526.465 1009.98 526.882C966.734 531.464 923.49 535.839 880.288 540.38C871.914 541.255 863.54 542.546 855.042 543.713C855.125 550.92 856.291 555.836 863.624 559.502C947.653 601.829 1030.39 646.531 1111.84 693.607C1113.5 694.566 1115.25 695.44 1117.59 696.732V696.69ZM1122.42 645.739C1126.29 602.454 1130.04 560.377 1133.83 517.425C1099.46 519.924 1065.89 522.424 1031.31 524.924C1061.93 565.501 1091.8 605.162 1122.42 645.739ZM791.093 538.547C761.555 524.59 733.309 511.217 704.605 497.636C699.939 518.008 695.482 537.297 690.941 557.127C724.394 550.92 756.973 544.879 791.093 538.547ZM1133.88 685.525C1133.5 685.567 1133.13 685.65 1132.75 685.692C1132.21 690.774 1131.83 695.899 1131.13 700.94C1130.75 703.689 1131.75 705.147 1134.13 706.48C1139.92 709.688 1145.58 713.146 1151.33 716.521C1153.33 717.687 1155.33 718.812 1157.33 719.937C1157.54 719.604 1157.75 719.312 1157.96 718.979C1149.96 707.814 1141.96 696.69 1133.92 685.525H1133.88Z" fill="#392F76"/>
<path d="M1302.85 0C1310.93 9.91522 1319.06 19.7888 1327.06 29.7457C1366.3 78.6969 1403.25 129.356 1438.04 181.599C1438.58 182.432 1439.25 183.182 1439.87 183.973V207.97C1435.46 201.804 1430.92 195.721 1426.67 189.431C1383.3 124.982 1337.47 62.3659 1286.94 3.29119C1286.1 2.33299 1285.56 1.12483 1284.85 0.0416576C1290.85 0.0416576 1296.85 0.0416576 1302.85 0.0416576V0Z" fill="#392F76"/>
</svg>
