<svg width="778" height="71" viewBox="0 0 778 71" fill="none" xmlns="http://www.w3.org/2000/svg">
<g clip-path="url(#clip0_5079_5307)">
<path d="M1.01375 0.714844H20.3877L21.2888 26.1388H48.097L49.336 0.714844H71.4133L68.3721 69.9308H49.2234L48.097 45.9628H21.2888L21.852 69.9308H0L1.01375 0.714844Z" fill="#A82F7D"/>
<path d="M82.3394 0.826539L127.958 0.602539L126.607 18.6345L100.812 19.8665L101.15 26.2505L126.719 27.9305V42.7145L102.277 44.0585L102.727 50.6665L126.945 52.9065L127.057 69.7065H93.8286L82.3394 69.1465V0.826539Z" fill="#A82F7D"/>
<path d="M150.599 0.266602L174.366 0.826602L198.02 70.2666L180.674 69.7066L172.451 54.4746L154.203 54.2506L147.783 69.9306H129.986L150.599 0.266602ZM161.637 23.2266C160.624 23.2266 156.231 35.4346 156.231 38.5706C154.992 42.2666 165.017 40.2506 169.522 37.8986C167.157 32.9706 165.693 26.5866 161.637 23.2266Z" fill="#A82F7D"/>
<path d="M202.638 0.490723H239.809C244.991 1.94672 252.199 4.18672 256.705 11.3547L257.831 29.7227C254.452 35.0987 251.749 38.3467 246.23 39.6907L264.702 70.1547L243.526 69.8187L223.814 45.1787L223.589 69.8187L202.075 70.1547L202.638 0.490723ZM224.828 15.4987C219.647 19.5307 219.759 22.7787 223.476 26.8107C232.15 29.1627 233.839 26.3627 233.952 22.8907C235.304 17.5147 232.262 15.4987 224.828 15.4987Z" fill="#A82F7D"/>
<path d="M280.472 18.9708L263.013 19.8668V0.714844H320.346V18.1868L302.549 18.6348V69.9308H281.711L280.472 18.9708Z" fill="#A82F7D"/>
<path d="M325.753 51.8987L345.803 51.1147L324.514 21.4347L324.852 12.1387C325.64 7.09872 331.272 2.17072 336.454 0.602723L372.386 0.490723L372.498 20.8747L348.506 21.2107L373.061 48.6507L373.174 59.2907C370.696 66.1227 365.627 68.6987 360.221 69.9307L325.753 70.1547V51.8987Z" fill="#A82F7D"/>
<path d="M384.438 37.7865L392.886 33.8665C387.705 29.2745 381.509 23.3385 383.987 13.2585C386.353 5.97854 393.337 0.602539 400.996 0.602539H423.749C429.719 2.84254 435.351 6.31454 438.73 9.56254C441.771 16.3945 441.321 22.6665 438.28 28.2665L427.241 38.7945L428.705 40.2505L456.865 23.2265L458.329 41.9305L449.318 49.4345L458.329 54.8105V69.7065L452.134 69.9305C447.291 69.4825 438.505 66.4585 434.337 63.8825L427.692 70.0425L384.889 69.9305C369.457 60.2985 376.666 41.2585 384.438 37.7865ZM403.812 43.7225C395.815 46.1865 396.153 54.9225 403.812 56.2665C407.867 56.0425 413.837 56.1545 415.076 53.3545C412.711 48.7625 410.007 45.9625 403.812 43.7225ZM407.867 15.0505C403.474 17.7385 402.686 23.4505 408.993 27.4825C415.639 27.4825 417.892 23.2265 419.131 20.8745C418.568 16.6185 414.175 15.0505 407.867 15.0505Z" fill="#CF4D92"/>
<path d="M466.89 0.714844H483.11L504.512 29.0508L524.111 0.714844H541.232L539.43 69.9308H521.182L518.479 38.2348L502.146 57.7228L487.39 37.7868L485.588 69.9308H465.764L466.89 0.714844Z" fill="#A82E7D"/>
<path d="M551.144 0.714844H572.546L572.884 69.9308L552.271 69.8188L551.144 0.714844Z" fill="#A82E7D"/>
<path d="M584.936 0.490723H605.099L628.753 34.6507L632.019 0.602723L650.38 0.938723L650.605 70.1547L631.118 69.9307L603.071 31.2907L601.494 69.9307H581.895L584.936 0.490723Z" fill="#A82E7D"/>
<path d="M663.22 0.826539L694.872 0.602539C711.43 4.52254 724.384 11.5785 726.636 28.1545C726.298 33.4185 725.623 42.9385 724.384 47.8665C718.639 60.1865 707.375 65.4505 693.633 70.0425L661.531 69.8185L663.22 0.826539ZM680.905 50.5545C683.27 51.0025 687.1 51.0025 690.254 50.7785C702.194 49.8825 706.136 44.0585 706.925 32.8585C702.982 21.2105 697.463 18.6345 686.762 18.9705C684.735 19.0825 683.608 19.0825 681.468 19.7545L680.905 50.5545Z" fill="#A82E7D"/>
<path d="M730.354 51.6748H752.093L730.354 21.6588V9.45084C732.043 4.18684 737.562 2.17084 742.631 0.714844H777.887L778 19.9788H754.346L777.887 48.6508V59.4028C776.31 66.3468 772.143 68.8108 766.623 69.9308H730.354V51.6748Z" fill="#A82E7D"/>
</g>
<defs>
<clipPath id="clip0_5079_5307">
<rect width="778" height="70" fill="transparent" transform="translate(0 0.266602)"/>
</clipPath>
</defs>
</svg>
