<svg width="95" height="82" viewBox="0 0 95 82" fill="none" xmlns="http://www.w3.org/2000/svg">
<g id="Layer_1" clip-path="url(#clip0_5077_53641)">
<path id="Vector" d="M87.2789 81.2664C80.8899 80.4778 78.0679 75.8138 77.3455 69.9332C85.1116 62.9485 84.028 64.03 87.7756 62.8809C91.0943 65.472 94.8645 72.006 94.9999 74.3268L87.3015 81.2664H87.2789Z" fill="#A82E7D"/>
<path id="Vector_2" d="M84.4796 41.6341L86.1728 54.5671C86.1728 54.5671 81.951 63.0839 78.1583 65.292C74.3655 67.5001 67.0283 65.292 67.0283 65.292C67.0283 65.292 48.9674 80.8611 40.6595 80.8611C32.3515 80.8611 19.9798 73.7863 19.9798 73.7863L11.4461 59.9295L14.8325 50.2186C14.8325 50.2186 0 43.2564 0 33.8383C0 24.4202 4.899 13.3348 4.899 13.3348C4.899 13.3348 15.7581 6.39519 23.0501 2.51981C30.3422 -1.35558 43.4589 7.92732 43.4589 7.92732C43.4589 7.92732 60.8876 -1.40064 67.6153 0.514522C74.3429 2.42968 81.635 10.248 83.3282 17.7059C85.0214 25.1638 80.2578 37.4884 80.2578 37.4884L84.4796 41.6341Z" fill="#A82E7D"/>
<path id="Vector_3" d="M44.1812 32.0134C44.1812 32.0134 47.3645 26.4257 49.1931 25.3442C51.0218 24.2627 58.5622 23.046 58.5622 23.046L65.8317 26.8312C65.8317 26.8312 66.8927 34.7397 66.8927 37.2632C66.8927 39.7867 59.9167 49.0921 59.9167 49.0921L44.2038 58.4877C44.2038 58.4877 32.4643 52.7647 28.4909 49.0921C24.5175 45.4195 21.5149 37.2632 21.5149 37.2632C21.5149 37.2632 22.576 29.8504 24.066 26.8312C25.556 23.812 29.8455 23.0234 29.8455 23.0234L39.2145 25.3216L44.2264 31.9909L44.1812 32.0134Z" fill="#DB8FB7"/>
</g>
<defs>
<clipPath id="clip0_5077_53641">
<rect width="95" height="81" fill="transparent" transform="translate(0 0.266602)"/>
</clipPath>
</defs>
</svg>
